<svg width="63" height="63" viewBox="0 0 63 63" fill="none" xmlns="http://www.w3.org/2000/svg">
<path d="M31.1629 62.3258C48.3737 62.3258 62.3259 48.3737 62.3259 31.1629C62.3259 13.9521 48.3737 0 31.1629 0C13.9521 0 0 13.9521 0 31.1629C0 48.3737 13.9521 62.3258 31.1629 62.3258Z" fill="#95EAB3"/>
<path d="M31.1625 50.0496C41.5933 50.0496 50.0491 41.5938 50.0491 31.163C50.0491 20.7322 41.5933 12.2764 31.1625 12.2764C20.7317 12.2764 12.2759 20.7322 12.2759 31.163C12.2759 41.5938 20.7317 50.0496 31.1625 50.0496Z" fill="#81D89A"/>
<path d="M18.2845 19.8614L23.3469 19.2919L25.3719 40.0161L20.3095 40.5856L18.2845 19.8614Z" fill="#41BE7B"/>
<path d="M42.9316 19.1337L43.4695 24.4492C43.4906 24.5968 43.5011 24.8078 43.5011 25.082C43.5011 26.1999 43.2058 27.2441 42.6152 28.2143C42.0457 29.1635 41.2758 29.9335 40.3055 30.5241C39.3352 31.0936 38.2805 31.3783 37.1415 31.3783H36.5403C36.0552 31.3783 35.57 31.3151 35.0849 31.1885L35.9392 39.8895L30.8768 40.459L28.8518 19.7032L33.9142 19.1337L34.4521 24.7339C34.5365 25.1347 34.663 25.3984 34.8318 25.5249C35.0005 25.6304 35.2958 25.6831 35.7177 25.6831H37.1415C37.6055 25.6831 37.9325 25.6304 38.1223 25.5249C38.3333 25.4195 38.4282 25.2191 38.4071 24.9238L37.8692 19.7032L42.9316 19.1337Z" fill="#41BE7B"/>
</svg>
