<svg width="63" height="63" viewBox="0 0 63 63" fill="none" xmlns="http://www.w3.org/2000/svg">
<path d="M31.1629 62.9774C48.3737 62.9774 62.3259 49.0253 62.3259 31.8145C62.3259 14.6037 48.3737 0.651611 31.1629 0.651611C13.9521 0.651611 0 14.6037 0 31.8145C0 49.0253 13.9521 62.9774 31.1629 62.9774Z" fill="#57B679"/>
<path opacity="0.44" d="M31.163 50.7012C41.5937 50.7012 50.0496 42.2454 50.0496 31.8146C50.0496 21.3838 41.5937 12.928 31.163 12.928C20.7322 12.928 12.2764 21.3838 12.2764 31.8146C12.2764 42.2454 20.7322 50.7012 31.163 50.7012Z" fill="#4DA06B"/>
<path d="M18.351 20.3138L23.4134 19.7443L25.4383 40.4685L20.3759 41.038L18.351 20.3138Z" fill="#A3DBAF"/>
<path d="M42.998 19.5861L43.5359 24.9016C43.557 25.0492 43.5675 25.2602 43.5675 25.5344C43.5675 26.6523 43.2722 27.6964 42.6816 28.6667C42.1121 29.6159 41.3422 30.3858 40.3719 30.9765C39.4016 31.546 38.3469 31.8307 37.2079 31.8307H36.6067C36.1216 31.8307 35.6364 31.7675 35.1513 31.6409L36.0056 40.3419L30.9432 40.9114L28.9182 20.1556L33.9806 19.5861L34.5185 25.1863C34.6029 25.5871 34.7294 25.8508 34.8982 25.9773C35.0669 26.0828 35.3622 26.1355 35.7841 26.1355H37.2079C37.672 26.1355 37.9989 26.0828 38.1887 25.9773C38.3997 25.8719 38.4946 25.6715 38.4735 25.3762L37.9356 20.1556L42.998 19.5861Z" fill="#A3DBAF"/>
</svg>
