<svg width="63" height="63" viewBox="0 0 63 63" fill="none" xmlns="http://www.w3.org/2000/svg">
<path d="M31.1629 62.3258C48.3737 62.3258 62.3259 48.3737 62.3259 31.1629C62.3259 13.9521 48.3737 0 31.1629 0C13.9521 0 0 13.9521 0 31.1629C0 48.3737 13.9521 62.3258 31.1629 62.3258Z" fill="#95EAB3"/>
<path d="M31.1625 50.0496C41.5933 50.0496 50.0491 41.5938 50.0491 31.163C50.0491 20.7322 41.5933 12.2764 31.1625 12.2764C20.7317 12.2764 12.2759 20.7322 12.2759 31.163C12.2759 41.5938 20.7317 50.0496 31.1625 50.0496Z" fill="#81D89A"/>
<path d="M28.2704 31.5049C27.9962 31.5049 27.7958 31.4943 27.6692 31.4732L28.4919 40.016L23.4295 40.5856L21.974 25.3351C21.9529 25.2929 21.9424 25.2191 21.9424 25.1136L21.4362 19.8297L26.4986 19.2602L27.0364 24.8288C27.0786 25.1452 27.1525 25.3773 27.2579 25.5249C27.3634 25.6515 27.511 25.7359 27.7009 25.778C27.5954 25.2085 27.5427 24.6812 27.5427 24.196C27.5427 22.8672 27.8591 21.6438 28.4919 20.5258C29.1458 19.4079 30.0211 18.5219 31.118 17.868C32.2149 17.2142 33.4066 16.8872 34.6933 16.8872C35.516 16.8872 36.4863 17.1087 37.6042 17.5516C38.7221 17.9735 39.587 18.3426 40.1987 18.659L37.9522 23.7214C37.3827 23.5105 36.7921 23.2996 36.1804 23.0886C35.5687 22.8566 35.073 22.6879 34.6933 22.5824C34.5879 22.5402 34.4297 22.5191 34.2187 22.5191C33.7547 22.5191 33.3644 22.6984 33.048 23.057C32.7527 23.3945 32.6051 23.7742 32.6051 24.196C32.6051 24.639 32.7316 25.0187 32.9848 25.3351C33.259 25.6515 33.5859 25.8097 33.9656 25.8097H40.0405V31.5049H28.2704Z" fill="#41BE7B"/>
</svg>
