<svg width="93" height="93" viewBox="0 0 93 93" fill="none" xmlns="http://www.w3.org/2000/svg">
<g filter="url(#filter0_d_656_313)">
<path d="M46.163 77.6516C63.3738 77.6516 77.3259 63.6995 77.3259 46.4887C77.3259 29.2779 63.3738 15.3258 46.163 15.3258C28.9521 15.3258 15 29.2779 15 46.4887C15 63.6995 28.9521 77.6516 46.163 77.6516Z" fill="white"/>
</g>
<path opacity="0.44" d="M46.163 65.3754C56.5938 65.3754 65.0496 56.9196 65.0496 46.4888C65.0496 36.058 56.5938 27.6022 46.163 27.6022C35.7322 27.6022 27.2764 36.058 27.2764 46.4888C27.2764 56.9196 35.7322 65.3754 46.163 65.3754Z" fill="#DCDFF9" 31A064/>
<path d="M37.3335 41.779C37.3335 40.4501 37.6499 39.2267 38.2827 38.1087C38.9155 36.9697 39.7698 36.0732 40.8455 35.4193C41.9424 34.7654 43.1342 34.4385 44.4209 34.4385C45.6443 34.4385 46.7622 34.7443 47.7747 35.356C48.8083 35.9677 49.652 36.8115 50.3059 37.8872C50.9598 38.9419 51.3606 40.1337 51.5082 41.4626L53.0902 55.6373L48.0278 56.2068L47.2368 48.9929H44.4209C43.1131 48.9929 41.9213 48.6765 40.8455 48.0437C39.7698 47.3898 38.9155 46.5144 38.2827 45.4176C37.6499 44.3207 37.3335 43.1078 37.3335 41.779ZM42.3959 41.779C42.3959 42.243 42.5857 42.6438 42.9654 42.9813C43.3662 43.3188 43.8513 43.4875 44.4209 43.4875H46.604L46.4458 42.0321C46.3825 41.4415 46.1611 40.9563 45.7814 40.5766C45.4228 40.197 44.9693 40.0071 44.4209 40.0071C43.8302 40.0071 43.3451 40.1864 42.9654 40.545C42.5857 40.8825 42.3959 41.2938 42.3959 41.779Z" fill="#31A064"/>
<defs>
<filter id="filter0_d_656_313" x="0" y="0.325806" width="92.3259" height="92.3258" filterUnits="userSpaceOnUse" color-interpolation-filters="sRGB">
<feFlood flood-opacity="0" result="BackgroundImageFix"/>
<feColorMatrix in="SourceAlpha" type="matrix" values="0 0 0 0 0 0 0 0 0 0 0 0 0 0 0 0 0 0 127 0" result="hardAlpha"/>
<feOffset/>
<feGaussianBlur stdDeviation="7.5"/>
<feComposite in2="hardAlpha" operator="out"/>
<feColorMatrix type="matrix" values="0 0 0 0 0 0 0 0 0 0 0 0 0 0 0 0 0 0 0.15 0"/>
<feBlend mode="normal" in2="BackgroundImageFix" result="effect1_dropShadow_656_313"/>
<feBlend mode="normal" in="SourceGraphic" in2="effect1_dropShadow_656_313" result="shape"/>
</filter>
</defs>
</svg>
