<svg width="63" height="63" viewBox="0 0 63 63" fill="none" xmlns="http://www.w3.org/2000/svg">
<path d="M31.1629 62.9774C48.3737 62.9774 62.3259 49.0253 62.3259 31.8145C62.3259 14.6037 48.3737 0.651611 31.1629 0.651611C13.9521 0.651611 0 14.6037 0 31.8145C0 49.0253 13.9521 62.9774 31.1629 62.9774Z" fill="#57B679"/>
<path opacity="0.44" d="M31.163 50.7012C41.5937 50.7012 50.0496 42.2454 50.0496 31.8146C50.0496 21.3838 41.5937 12.928 31.163 12.928C20.7322 12.928 12.2764 21.3838 12.2764 31.8146C12.2764 42.2454 20.7322 50.7012 31.163 50.7012Z" fill="#4DA06B"/>
<path d="M40.2172 21.6427L33.1614 41.0063H28.4154L21.3914 21.6427L26.1374 19.7443L30.7884 32.6534L35.4712 19.7443L40.2172 21.6427Z" fill="#A3DBAF"/>
</svg>
