<svg width="93" height="93" viewBox="0 0 93 93" fill="none" xmlns="http://www.w3.org/2000/svg">
<g filter="url(#filter0_d_656_317)">
<path d="M46.163 77.6516C63.3738 77.6516 77.3259 63.6995 77.3259 46.4887C77.3259 29.2779 63.3738 15.3258 46.163 15.3258C28.9521 15.3258 15 29.2779 15 46.4887C15 63.6995 28.9521 77.6516 46.163 77.6516Z" fill="white"/>
</g>
<path opacity="0.44" d="M46.163 65.3754C56.5938 65.3754 65.0496 56.9196 65.0496 46.4888C65.0496 36.058 56.5938 27.6022 46.163 27.6022C35.7322 27.6022 27.2764 36.058 27.2764 46.4888C27.2764 56.9196 35.7322 65.3754 46.163 65.3754Z" fill="#DCDFF9"/>
<path d="M33.0062 35.5143L38.0686 34.9448L40.0936 55.669L35.0312 56.2385L33.0062 35.5143Z" fill="#31A064"/>
<path d="M57.0521 48.6449C57.0521 49.8684 56.7568 51.0074 56.1662 52.0621C55.5756 53.1167 54.7741 53.9605 53.7616 54.5933C52.7702 55.205 51.6839 55.5108 50.5027 55.5108C49.3214 55.5108 48.2246 55.205 47.2121 54.5933C46.2207 53.9605 45.4297 53.1167 44.8391 52.0621C44.2485 51.0074 43.9532 49.8684 43.9532 48.6449C43.9532 47.4215 44.2485 46.2825 44.8391 45.2278C45.4297 44.1732 46.2207 43.34 47.2121 42.7283C48.2246 42.0955 49.3214 41.7791 50.5027 41.7791C51.6839 41.7791 52.7702 42.0955 53.7616 42.7283C54.7741 43.34 55.5756 44.1732 56.1662 45.2278C56.7568 46.2825 57.0521 47.4215 57.0521 48.6449ZM48.6992 48.6449C48.6992 49.0879 48.8785 49.457 49.2371 49.7523C49.5956 50.0266 50.0175 50.1637 50.5027 50.1637C50.9878 50.1637 51.4097 50.0266 51.7683 49.7523C52.1268 49.457 52.3061 49.0879 52.3061 48.6449C52.3061 48.2231 52.1268 47.8645 51.7683 47.5692C51.4097 47.2739 50.9878 47.1262 50.5027 47.1262C50.0175 47.1262 49.5956 47.2739 49.2371 47.5692C48.8785 47.8645 48.6992 48.2231 48.6992 48.6449Z" fill="#31A064"/>
<defs>
<filter id="filter0_d_656_317" x="0" y="0.325806" width="92.3259" height="92.3258" filterUnits="userSpaceOnUse" color-interpolation-filters="sRGB">
<feFlood flood-opacity="0" result="BackgroundImageFix"/>
<feColorMatrix in="SourceAlpha" type="matrix" values="0 0 0 0 0 0 0 0 0 0 0 0 0 0 0 0 0 0 127 0" result="hardAlpha"/>
<feOffset/>
<feGaussianBlur stdDeviation="7.5"/>
<feComposite in2="hardAlpha" operator="out"/>
<feColorMatrix type="matrix" values="0 0 0 0 0 0 0 0 0 0 0 0 0 0 0 0 0 0 0.15 0"/>
<feBlend mode="normal" in2="BackgroundImageFix" result="effect1_dropShadow_656_317"/>
<feBlend mode="normal" in="SourceGraphic" in2="effect1_dropShadow_656_317" result="shape"/>
</filter>
</defs>
</svg>
