<svg width="63" height="63" viewBox="0 0 63 63" fill="none" xmlns="http://www.w3.org/2000/svg">
<path d="M31.1629 62.3258C48.3737 62.3258 62.3259 48.3737 62.3259 31.1629C62.3259 13.9521 48.3737 0 31.1629 0C13.9521 0 0 13.9521 0 31.1629C0 48.3737 13.9521 62.3258 31.1629 62.3258Z" fill="#95EAB3"/>
<path d="M31.1625 50.0496C41.5933 50.0496 50.0491 41.5938 50.0491 31.163C50.0491 20.7322 41.5933 12.2764 31.1625 12.2764C20.7317 12.2764 12.2759 20.7322 12.2759 31.163C12.2759 41.5938 20.7317 50.0496 31.1625 50.0496Z" fill="#81D89A"/>
<path d="M34.944 40.3008C33.5518 40.3008 32.3178 39.8789 31.2421 39.0352C30.1663 39.8789 28.9324 40.3008 27.5402 40.3008H27.1922C26.0531 40.3008 25.009 40.0161 24.0598 39.4465C23.1106 38.8559 22.3618 38.0649 21.8134 37.0735C21.2649 36.0611 20.9907 34.9642 20.9907 33.783C20.9907 31.8846 21.1278 30.3764 21.402 29.2585C21.6973 28.1405 22.288 26.9593 23.1739 25.7148C24.0598 24.4492 25.5574 22.6457 27.6668 20.3043L27.1289 19.7032L30.8624 15.9064C34.4905 19.9141 36.9584 22.7406 38.2662 24.3859C39.574 26.0312 40.4388 27.4866 40.8606 28.7522C41.2825 29.9967 41.4934 31.6736 41.4934 33.783C41.4934 34.9642 41.2192 36.0611 40.6708 37.0735C40.1224 38.0649 39.3736 38.8559 38.4244 39.4465C37.4752 40.0161 36.431 40.3008 35.292 40.3008H34.944ZM26.0531 33.783C26.0531 34.015 26.148 34.2154 26.3379 34.3841C26.5488 34.5318 26.8336 34.6056 27.1922 34.6056H27.5402C27.8777 34.6056 28.1519 34.5212 28.3628 34.3525C28.5949 34.1837 28.7109 33.9939 28.7109 33.783V31.8529H33.7733V33.5299C33.8366 34.247 34.2268 34.6056 34.944 34.6056H35.292C35.6506 34.6056 35.9248 34.5318 36.1146 34.3841C36.3256 34.2154 36.431 34.015 36.431 33.783C36.431 32.5807 36.3256 31.6315 36.1146 30.9354C35.9248 30.2393 35.4818 29.4272 34.7858 28.4991C34.1108 27.571 32.9295 26.1577 31.2421 24.2593C29.4702 26.221 28.2574 27.6343 27.6035 28.4991C26.9496 29.3639 26.5277 30.1444 26.3379 30.8405C26.148 31.5154 26.0531 32.4963 26.0531 33.783Z" fill="#41BE7B"/>
</svg>
