<svg width="63" height="63" viewBox="0 0 63 63" fill="none" xmlns="http://www.w3.org/2000/svg">
<path d="M31.1629 62.9774C48.3737 62.9774 62.3259 49.0253 62.3259 31.8145C62.3259 14.6037 48.3737 0.651611 31.1629 0.651611C13.9521 0.651611 0 14.6037 0 31.8145C0 49.0253 13.9521 62.9774 31.1629 62.9774Z" fill="#57B679"/>
<path opacity="0.44" d="M31.163 50.7012C41.5937 50.7012 50.0496 42.2454 50.0496 31.8146C50.0496 21.3838 41.5937 12.928 31.163 12.928C20.7322 12.928 12.2764 21.3838 12.2764 31.8146C12.2764 42.2454 20.7322 50.7012 31.163 50.7012Z" fill="#4DA06B"/>
<path d="M38.2143 19.5861L38.7522 24.9016C38.7733 25.0492 38.7838 25.2602 38.7838 25.5344C38.7838 26.6523 38.4885 27.6964 37.8979 28.6667C37.3284 29.6159 36.5585 30.3858 35.5882 30.9765C34.6179 31.546 33.5632 31.8307 32.4242 31.8307H31.823C31.3379 31.8307 30.8527 31.7675 30.3676 31.6409L31.2219 40.3419L26.1595 40.9114L24.1345 20.1556L29.1969 19.5861L29.7348 25.1863C29.8192 25.5871 29.9457 25.8508 30.1145 25.9773C30.2832 26.0828 30.5785 26.1355 31.0004 26.1355H32.4242C32.8883 26.1355 33.2152 26.0828 33.405 25.9773C33.616 25.8719 33.7109 25.6715 33.6898 25.3762L33.1519 20.1556L38.2143 19.5861Z" fill="#A3DBAF"/>
</svg>
