<svg width="63" height="63" viewBox="0 0 63 63" fill="none" xmlns="http://www.w3.org/2000/svg">
<path d="M31.1629 62.3258C48.3737 62.3258 62.3259 48.3737 62.3259 31.1629C62.3259 13.9521 48.3737 0 31.1629 0C13.9521 0 0 13.9521 0 31.1629C0 48.3737 13.9521 62.3258 31.1629 62.3258Z" fill="#95EAB3"/>
<path d="M31.1625 50.0496C41.5933 50.0496 50.0491 41.5938 50.0491 31.163C50.0491 20.7322 41.5933 12.2764 31.1625 12.2764C20.7317 12.2764 12.2759 20.7322 12.2759 31.163C12.2759 41.5938 20.7317 50.0496 31.1625 50.0496Z" fill="#81D89A"/>
<path d="M22.519 26.126C22.519 24.7971 22.8354 23.5737 23.4682 22.4558C24.101 21.3167 24.9553 20.4203 26.0311 19.7664C27.1279 19.1125 28.3197 18.7855 29.6064 18.7855C30.8298 18.7855 31.9478 19.0914 32.9602 19.7031C33.9938 20.3148 34.8375 21.1585 35.4914 22.2343C36.1453 23.2889 36.5461 24.4807 36.6938 25.8096L38.2758 39.9843L33.2134 40.5538L32.4224 33.3399H29.6064C28.2986 33.3399 27.1068 33.0235 26.0311 32.3907C24.9553 31.7368 24.101 30.8615 23.4682 29.7646C22.8354 28.6677 22.519 27.4549 22.519 26.126ZM27.5814 26.126C27.5814 26.5901 27.7713 26.9908 28.151 27.3283C28.5517 27.6658 29.0369 27.8346 29.6064 27.8346H31.7896L31.6314 26.3791C31.5681 25.7885 31.3466 25.3034 30.9669 24.9237C30.6083 24.544 30.1548 24.3542 29.6064 24.3542C29.0158 24.3542 28.5306 24.5335 28.151 24.892C27.7713 25.2295 27.5814 25.6409 27.5814 26.126Z" fill="#41BE7B"/>
</svg>
