<svg width="63" height="63" viewBox="0 0 63 63" fill="none" xmlns="http://www.w3.org/2000/svg">
<path d="M31.1629 62.3258C48.3737 62.3258 62.3259 48.3737 62.3259 31.1629C62.3259 13.9521 48.3737 0 31.1629 0C13.9521 0 0 13.9521 0 31.1629C0 48.3737 13.9521 62.3258 31.1629 62.3258Z" fill="#95EAB3"/>
<path d="M31.1625 50.0496C41.5933 50.0496 50.0491 41.5938 50.0491 31.163C50.0491 20.7322 41.5933 12.2764 31.1625 12.2764C20.7317 12.2764 12.2759 20.7322 12.2759 31.163C12.2759 41.5938 20.7317 50.0496 31.1625 50.0496Z" fill="#81D89A"/>
<path d="M15.1385 19.8614L20.2009 19.2919L22.2258 40.0161L17.1634 40.5856L15.1385 19.8614Z" fill="#41BE7B"/>
<path d="M40.9562 31.5049C39.5852 31.5049 38.3407 31.0514 37.2227 30.1444C36.0837 31.0514 34.797 31.5049 33.3626 31.5049H32.7931C32.5822 31.5049 32.308 31.4838 31.9705 31.4416L32.7931 40.0161L27.7307 40.5856L25.7058 19.8614L30.7682 19.2919L31.2744 24.5125C31.3799 25.3773 31.8123 25.8097 32.5716 25.8097H33.3626C33.7212 25.8097 34.0271 25.7359 34.2802 25.5882C34.5333 25.4406 34.6493 25.2402 34.6282 24.9871V24.9554L34.1853 20.5891L39.2477 20.0196L39.6906 24.6707C39.7539 25.43 40.1758 25.8097 40.9562 25.8097H41.3043C41.6629 25.8097 41.9687 25.7253 42.2218 25.5566C42.475 25.3878 42.591 25.1875 42.5699 24.9554L42.0636 19.8614L47.126 19.2919L47.6323 24.7023C47.6534 24.8289 47.6639 25.0187 47.6639 25.2718C47.6639 26.3898 47.3686 27.4339 46.778 28.4042C46.1874 29.3534 45.4069 30.1127 44.4366 30.6823C43.4663 31.2307 42.4222 31.5049 41.3043 31.5049H40.9562Z" fill="#41BE7B"/>
</svg>
