<svg width="93" height="93" viewBox="0 0 93 93" fill="none" xmlns="http://www.w3.org/2000/svg">
<g filter="url(#filter0_d_656_293)">
<path d="M46.163 77.6516C63.3738 77.6516 77.3259 63.6995 77.3259 46.4887C77.3259 29.2779 63.3738 15.3258 46.163 15.3258C28.9521 15.3258 15 29.2779 15 46.4887C15 63.6995 28.9521 77.6516 46.163 77.6516Z" fill="white"/>
</g>
<path opacity="0.44" d="M46.163 65.3754C56.5938 65.3754 65.0496 56.9196 65.0496 46.4888C65.0496 36.058 56.5938 27.6022 46.163 27.6022C35.7322 27.6022 27.2764 36.058 27.2764 46.4888C27.2764 56.9196 35.7322 65.3754 46.163 65.3754Z" fill="#DCDFF9"/>
<path d="M43.0849 47.1578C42.8106 47.1578 42.6103 47.1473 42.4837 47.1262L43.3063 55.669L38.2439 56.2385L36.7885 40.988C36.7674 40.9459 36.7569 40.872 36.7569 40.7666L36.2506 35.4827L41.313 34.9132L41.8509 40.4818C41.8931 40.7982 41.9669 41.0302 42.0724 41.1779C42.1778 41.3044 42.3255 41.3888 42.5153 41.431C42.4099 40.8615 42.3571 40.3341 42.3571 39.849C42.3571 38.5201 42.6735 37.2967 43.3063 36.1788C43.9602 35.0608 44.8356 34.1749 45.9325 33.521C47.0293 32.8671 48.2211 32.5402 49.5078 32.5402C50.3304 32.5402 51.3007 32.7616 52.4187 33.2046C53.5366 33.6265 54.4014 33.9956 55.0131 34.312L52.7667 39.3744C52.1972 39.1635 51.6066 38.9525 50.9949 38.7416C50.3831 38.5096 49.8875 38.3408 49.5078 38.2354C49.4023 38.1932 49.2441 38.1721 49.0332 38.1721C48.5691 38.1721 48.1789 38.3514 47.8625 38.71C47.5672 39.0475 47.4195 39.4271 47.4195 39.849C47.4195 40.292 47.5461 40.6716 47.7992 40.988C48.0734 41.3044 48.4004 41.4626 48.7801 41.4626H54.8549V47.1578H43.0849Z" fill="#31A064"/>
<defs>
<filter id="filter0_d_656_293" x="0" y="0.325806" width="92.3259" height="92.3258" filterUnits="userSpaceOnUse" color-interpolation-filters="sRGB">
<feFlood flood-opacity="0" result="BackgroundImageFix"/>
<feColorMatrix in="SourceAlpha" type="matrix" values="0 0 0 0 0 0 0 0 0 0 0 0 0 0 0 0 0 0 127 0" result="hardAlpha"/>
<feOffset/>
<feGaussianBlur stdDeviation="7.5"/>
<feComposite in2="hardAlpha" operator="out"/>
<feColorMatrix type="matrix" values="0 0 0 0 0 0 0 0 0 0 0 0 0 0 0 0 0 0 0.15 0"/>
<feBlend mode="normal" in2="BackgroundImageFix" result="effect1_dropShadow_656_293"/>
<feBlend mode="normal" in="SourceGraphic" in2="effect1_dropShadow_656_293" result="shape"/>
</filter>
</defs>
</svg>
