<svg width="63" height="63" viewBox="0 0 63 63" fill="none" xmlns="http://www.w3.org/2000/svg">
<path d="M31.1629 62.3258C48.3737 62.3258 62.3259 48.3737 62.3259 31.1629C62.3259 13.9521 48.3737 0 31.1629 0C13.9521 0 0 13.9521 0 31.1629C0 48.3737 13.9521 62.3258 31.1629 62.3258Z" fill="#95EAB3"/>
<path d="M31.1625 50.0496C41.5933 50.0496 50.0491 41.5938 50.0491 31.163C50.0491 20.7322 41.5933 12.2764 31.1625 12.2764C20.7317 12.2764 12.2759 20.7322 12.2759 31.163C12.2759 41.5938 20.7317 50.0496 31.1625 50.0496Z" fill="#81D89A"/>
<path d="M18.1918 19.8614L23.2542 19.2919L25.2791 40.0161L20.2167 40.5856L18.1918 19.8614Z" fill="#41BE7B"/>
<path d="M42.2377 32.992C42.2377 34.2154 41.9424 35.3544 41.3518 36.4091C40.7611 37.4638 39.9596 38.3075 38.9471 38.9403C37.9557 39.552 36.8694 39.8579 35.6882 39.8579C34.507 39.8579 33.4101 39.552 32.3976 38.9403C31.4063 38.3075 30.6153 37.4638 30.0246 36.4091C29.434 35.3544 29.1387 34.2154 29.1387 32.992C29.1387 31.7686 29.434 30.6295 30.0246 29.5749C30.6153 28.5202 31.4063 27.687 32.3976 27.0753C33.4101 26.4425 34.507 26.1261 35.6882 26.1261C36.8694 26.1261 37.9557 26.4425 38.9471 27.0753C39.9596 27.687 40.7611 28.5202 41.3518 29.5749C41.9424 30.6295 42.2377 31.7686 42.2377 32.992ZM33.8847 32.992C33.8847 33.435 34.064 33.8041 34.4226 34.0994C34.7812 34.3736 35.2031 34.5107 35.6882 34.5107C36.1733 34.5107 36.5952 34.3736 36.9538 34.0994C37.3124 33.8041 37.4917 33.435 37.4917 32.992C37.4917 32.5701 37.3124 32.2115 36.9538 31.9162C36.5952 31.6209 36.1733 31.4733 35.6882 31.4733C35.2031 31.4733 34.7812 31.6209 34.4226 31.9162C34.064 32.2115 33.8847 32.5701 33.8847 32.992Z" fill="#41BE7B"/>
</svg>
