<svg width="63" height="63" viewBox="0 0 63 63" fill="none" xmlns="http://www.w3.org/2000/svg">
<path d="M31.1629 62.3258C48.3737 62.3258 62.3259 48.3737 62.3259 31.1629C62.3259 13.9521 48.3737 0 31.1629 0C13.9521 0 0 13.9521 0 31.1629C0 48.3737 13.9521 62.3258 31.1629 62.3258Z" fill="#95EAB3"/>
<path d="M31.1625 50.0496C41.5933 50.0496 50.0491 41.5938 50.0491 31.163C50.0491 20.7322 41.5933 12.2764 31.1625 12.2764C20.7317 12.2764 12.2759 20.7322 12.2759 31.163C12.2759 41.5938 20.7317 50.0496 31.1625 50.0496Z" fill="#81D89A"/>
<path d="M35.6726 31.5049C34.3015 31.5049 33.057 31.0514 31.9391 30.1444C30.8 31.0514 29.5133 31.5049 28.079 31.5049H27.5095C27.2985 31.5049 27.0243 31.4838 26.6868 31.4416L27.5095 40.0161L22.4471 40.5856L20.4221 19.8614L25.4845 19.2919L25.9908 24.5125C26.0962 25.3773 26.5286 25.8097 27.288 25.8097H28.079C28.4376 25.8097 28.7434 25.7359 28.9966 25.5882C29.2497 25.4406 29.3657 25.2402 29.3446 24.9871V24.9554L28.9016 20.5891L33.964 20.0196L34.407 24.6707C34.4703 25.43 34.8921 25.8097 35.6726 25.8097H36.0206C36.3792 25.8097 36.6851 25.7253 36.9382 25.5566C37.1913 25.3878 37.3073 25.1875 37.2862 24.9554L36.78 19.8614L41.8424 19.2919L42.3486 24.7023C42.3697 24.8289 42.3803 25.0187 42.3803 25.2718C42.3803 26.3898 42.085 27.4339 41.4944 28.4042C40.9037 29.3534 40.1233 30.1127 39.153 30.6823C38.1827 31.2307 37.1386 31.5049 36.0206 31.5049H35.6726Z" fill="#41BE7B"/>
</svg>
