<svg width="63" height="63" viewBox="0 0 63 63" fill="none" xmlns="http://www.w3.org/2000/svg">
<path d="M31.1629 62.3258C48.3737 62.3258 62.3259 48.3737 62.3259 31.1629C62.3259 13.9521 48.3737 0 31.1629 0C13.9521 0 0 13.9521 0 31.1629C0 48.3737 13.9521 62.3258 31.1629 62.3258Z" fill="#95EAB3"/>
<path d="M31.1625 50.0496C41.5933 50.0496 50.0491 41.5938 50.0491 31.163C50.0491 20.7322 41.5933 12.2764 31.1625 12.2764C20.7317 12.2764 12.2759 20.7322 12.2759 31.163C12.2759 41.5938 20.7317 50.0496 31.1625 50.0496Z" fill="#81D89A"/>
<path d="M39.1804 24.8288L36.0797 29.4166H36.1113L35.7633 29.8912L27.6634 41.8828L23.487 38.7188L27.9166 32.1376C27.3681 31.9056 26.9146 31.6736 26.556 31.4416C25.5225 30.7877 24.7209 29.9123 24.1514 28.8155C23.5819 27.6975 23.2971 26.5163 23.2971 25.2718C23.2971 23.753 23.7084 22.382 24.5311 21.1586C24.8053 20.7578 25.3643 20.2199 26.208 19.5449C27.0728 18.8488 28.0326 18.1422 29.0872 17.425L31.6184 22.3609C29.9099 23.3523 28.9396 24.0167 28.7076 24.3542C28.4544 24.7339 28.3279 25.0714 28.3279 25.3667C28.3279 25.7675 28.5915 26.1577 29.1189 26.5374C29.4353 26.7905 29.8361 26.917 30.3212 26.917C30.6587 26.917 30.9751 26.8538 31.2704 26.7272C31.5657 26.6006 31.7872 26.4214 31.9348 26.1893L35.0039 21.6648L39.1804 24.8288Z" fill="#41BE7B"/>
</svg>
