<svg width="93" height="93" viewBox="0 0 93 93" fill="none" xmlns="http://www.w3.org/2000/svg">
<g filter="url(#filter0_d_656_325)">
<path d="M46.163 77.6516C63.3738 77.6516 77.3259 63.6995 77.3259 46.4887C77.3259 29.2779 63.3738 15.3258 46.163 15.3258C28.9521 15.3258 15 29.2779 15 46.4887C15 63.6995 28.9521 77.6516 46.163 77.6516Z" fill="white"/>
</g>
<path opacity="0.44" d="M46.163 65.3754C56.5938 65.3754 65.0496 56.9196 65.0496 46.4888C65.0496 36.058 56.5938 27.6022 46.163 27.6022C35.7322 27.6022 27.2764 36.058 27.2764 46.4888C27.2764 56.9196 35.7322 65.3754 46.163 65.3754Z" fill="#DCDFF9"/>
<path d="M33.099 35.5143L38.1614 34.9448L40.1864 55.669L35.124 56.2385L33.099 35.5143Z" fill="#31A064"/>
<path d="M57.7461 34.7866L58.2839 40.1021C58.305 40.2498 58.3156 40.4607 58.3156 40.7349C58.3156 41.8529 58.0203 42.897 57.4297 43.8673C56.8601 44.8165 56.0902 45.5864 55.1199 46.177C54.1497 46.7465 53.095 47.0313 51.9559 47.0313H51.3548C50.8696 47.0313 50.3845 46.968 49.8993 46.8415L50.7536 55.5425L45.6912 56.112L43.6663 35.3561L48.7287 34.7866L49.2665 40.3869C49.3509 40.7877 49.4775 41.0513 49.6462 41.1779C49.815 41.2834 50.1103 41.3361 50.5321 41.3361H51.9559C52.42 41.3361 52.7469 41.2834 52.9368 41.1779C53.1477 41.0724 53.2426 40.872 53.2215 40.5767L52.6837 35.3561L57.7461 34.7866Z" fill="#31A064"/>
<defs>
<filter id="filter0_d_656_325" x="0" y="0.325806" width="92.3259" height="92.3258" filterUnits="userSpaceOnUse" color-interpolation-filters="sRGB">
<feFlood flood-opacity="0" result="BackgroundImageFix"/>
<feColorMatrix in="SourceAlpha" type="matrix" values="0 0 0 0 0 0 0 0 0 0 0 0 0 0 0 0 0 0 127 0" result="hardAlpha"/>
<feOffset/>
<feGaussianBlur stdDeviation="7.5"/>
<feComposite in2="hardAlpha" operator="out"/>
<feColorMatrix type="matrix" values="0 0 0 0 0 0 0 0 0 0 0 0 0 0 0 0 0 0 0.15 0"/>
<feBlend mode="normal" in2="BackgroundImageFix" result="effect1_dropShadow_656_325"/>
<feBlend mode="normal" in="SourceGraphic" in2="effect1_dropShadow_656_325" result="shape"/>
</filter>
</defs>
</svg>
