<svg width="93" height="93" viewBox="0 0 93 93" fill="none" xmlns="http://www.w3.org/2000/svg">
<g filter="url(#filter0_d_656_297)">
<path d="M46.163 77.6516C63.3738 77.6516 77.3259 63.6995 77.3259 46.4887C77.3259 29.2779 63.3738 15.3258 46.163 15.3258C28.9521 15.3258 15 29.2779 15 46.4887C15 63.6995 28.9521 77.6516 46.163 77.6516Z" fill="white"/>
</g>
<path opacity="0.44" d="M46.163 65.3754C56.5938 65.3754 65.0496 56.9196 65.0496 46.4888C65.0496 36.058 56.5938 27.6022 46.163 27.6022C35.7322 27.6022 27.2764 36.058 27.2764 46.4888C27.2764 56.9196 35.7322 65.3754 46.163 65.3754Z" fill="#DCDFF9"/>
<path d="M49.7584 55.9538C48.3663 55.9538 47.1323 55.5319 46.0565 54.6882C44.9808 55.5319 43.7468 55.9538 42.3547 55.9538H42.0066C40.8676 55.9538 39.8235 55.669 38.8743 55.0995C37.9251 54.5089 37.1762 53.7179 36.6278 52.7265C36.0794 51.714 35.8052 50.6172 35.8052 49.4359C35.8052 47.5375 35.9423 46.0294 36.2165 44.9114C36.5118 43.7935 37.1024 42.6122 37.9883 41.3677C38.8743 40.1021 40.3719 38.2986 42.4812 35.9573L41.9433 35.3561L45.6769 31.5593C49.3049 35.5671 51.7728 38.3936 53.0806 40.0388C54.3884 41.6841 55.2532 43.1396 55.6751 44.4052C56.097 45.6497 56.3079 47.3266 56.3079 49.4359C56.3079 50.6172 56.0337 51.714 55.4853 52.7265C54.9368 53.7179 54.188 54.5089 53.2388 55.0995C52.2896 55.669 51.2455 55.9538 50.1065 55.9538H49.7584ZM40.8676 49.4359C40.8676 49.668 40.9625 49.8683 41.1523 50.0371C41.3633 50.1847 41.648 50.2586 42.0066 50.2586H42.3547C42.6921 50.2586 42.9664 50.1742 43.1773 50.0054C43.4093 49.8367 43.5253 49.6469 43.5253 49.4359V47.5059H48.5877V49.1828C48.651 49.9 49.0412 50.2586 49.7584 50.2586H50.1065C50.465 50.2586 50.7393 50.1847 50.9291 50.0371C51.14 49.8683 51.2455 49.668 51.2455 49.4359C51.2455 48.2336 51.14 47.2844 50.9291 46.5883C50.7393 45.8922 50.2963 45.0802 49.6002 44.152C48.9252 43.2239 47.744 41.8107 46.0565 39.9123C44.2847 41.874 43.0718 43.2872 42.4179 44.152C41.764 45.0169 41.3422 45.7973 41.1523 46.4934C40.9625 47.1684 40.8676 48.1492 40.8676 49.4359Z" fill="#31A064"/>
<defs>
<filter id="filter0_d_656_297" x="0" y="0.325806" width="92.3259" height="92.3258" filterUnits="userSpaceOnUse" color-interpolation-filters="sRGB">
<feFlood flood-opacity="0" result="BackgroundImageFix"/>
<feColorMatrix in="SourceAlpha" type="matrix" values="0 0 0 0 0 0 0 0 0 0 0 0 0 0 0 0 0 0 127 0" result="hardAlpha"/>
<feOffset/>
<feGaussianBlur stdDeviation="7.5"/>
<feComposite in2="hardAlpha" operator="out"/>
<feColorMatrix type="matrix" values="0 0 0 0 0 0 0 0 0 0 0 0 0 0 0 0 0 0 0.15 0"/>
<feBlend mode="normal" in2="BackgroundImageFix" result="effect1_dropShadow_656_297"/>
<feBlend mode="normal" in="SourceGraphic" in2="effect1_dropShadow_656_297" result="shape"/>
</filter>
</defs>
</svg>
