<svg width="63" height="63" viewBox="0 0 63 63" fill="none" xmlns="http://www.w3.org/2000/svg">
<path d="M31.1629 62.3258C48.3737 62.3258 62.3259 48.3737 62.3259 31.1629C62.3259 13.9521 48.3737 0 31.1629 0C13.9521 0 0 13.9521 0 31.1629C0 48.3737 13.9521 62.3258 31.1629 62.3258Z" fill="#95EAB3"/>
<path d="M31.1625 50.0496C41.5933 50.0496 50.0491 41.5938 50.0491 31.163C50.0491 20.7322 41.5933 12.2764 31.1625 12.2764C20.7317 12.2764 12.2759 20.7322 12.2759 31.163C12.2759 41.5938 20.7317 50.0496 31.1625 50.0496Z" fill="#81D89A"/>

<path d="M16.1525 19.8614L21.2149 19.2918L23.2398 40.016L18.1774 40.5856L16.1525 19.8614Z" fill="#41BE7B"/>
<path d="M33.554 31.5049C33.2798 31.5049 33.0794 31.4943 32.9528 31.4732L33.7755 40.016L28.7131 40.5856L27.2576 25.3351C27.2365 25.2929 27.226 25.2191 27.226 25.1136L26.7197 19.8297L31.7821 19.2602L32.32 24.8288C32.3622 25.1452 32.436 25.3773 32.5415 25.5249C32.647 25.6515 32.7946 25.7359 32.9845 25.778C32.879 25.2085 32.8263 24.6812 32.8263 24.196C32.8263 22.8672 33.1427 21.6438 33.7755 20.5258C34.4293 19.4079 35.3047 18.5219 36.4016 17.868C37.4984 17.2142 38.6902 16.8872 39.9769 16.8872C40.7995 16.8872 41.7698 17.1087 42.8878 17.5516C44.0057 17.9735 44.8705 18.3426 45.4823 18.659L43.2358 23.7214C42.6663 23.5105 42.0757 23.2996 41.464 23.0886C40.8523 22.8566 40.3566 22.6879 39.9769 22.5824C39.8714 22.5402 39.7132 22.5191 39.5023 22.5191C39.0382 22.5191 38.648 22.6984 38.3316 23.057C38.0363 23.3945 37.8887 23.7742 37.8887 24.196C37.8887 24.639 38.0152 25.0187 38.2683 25.3351C38.5425 25.6515 38.8695 25.8097 39.2492 25.8097H45.3241V31.5049H33.554Z" fill="#41BE7B"/>
</svg>
