<svg width="93" height="93" viewBox="0 0 93 93" fill="none" xmlns="http://www.w3.org/2000/svg">
<g filter="url(#filter0_d_656_329)">
<path d="M46.163 77.6516C63.3738 77.6516 77.3259 63.6995 77.3259 46.4887C77.3259 29.2779 63.3738 15.3258 46.163 15.3258C28.9521 15.3258 15 29.2779 15 46.4887C15 63.6995 28.9521 77.6516 46.163 77.6516Z" fill="white"/>
</g>
<path opacity="0.44" d="M46.163 65.3754C56.5938 65.3754 65.0496 56.9196 65.0496 46.4888C65.0496 36.058 56.5938 27.6022 46.163 27.6022C35.7322 27.6022 27.2764 36.058 27.2764 46.4888C27.2764 56.9196 35.7322 65.3754 46.163 65.3754Z" fill="#DCDFF9"/>
<path d="M29.9529 35.5143L35.0153 34.9448L37.0403 55.669L31.9779 56.2385L29.9529 35.5143Z" fill="#31A064"/>
<path d="M55.7707 47.1579C54.3996 47.1579 53.1551 46.7044 52.0372 45.7973C50.8981 46.7044 49.6114 47.1579 48.1771 47.1579H47.6076C47.3966 47.1579 47.1224 47.1368 46.7849 47.0946L47.6076 55.669L42.5452 56.2385L40.5202 35.5143L45.5826 34.9448L46.0888 40.1654C46.1943 41.0303 46.6267 41.4627 47.3861 41.4627H48.1771C48.5357 41.4627 48.8415 41.3888 49.0946 41.2412C49.3478 41.0935 49.4638 40.8931 49.4427 40.64V40.6084L48.9997 36.2421L54.0621 35.6725L54.5051 40.3236C54.5684 41.083 54.9902 41.4627 55.7707 41.4627H56.1187C56.4773 41.4627 56.7832 41.3783 57.0363 41.2095C57.2894 41.0408 57.4054 40.8404 57.3843 40.6084L56.8781 35.5143L61.9405 34.9448L62.4467 40.3553C62.4678 40.4818 62.4784 40.6717 62.4784 40.9248C62.4784 42.0427 62.1831 43.0869 61.5924 44.0571C61.0018 45.0063 60.2214 45.7657 59.2511 46.3352C58.2808 46.8837 57.2367 47.1579 56.1187 47.1579H55.7707Z" fill="#31A064"/>
<defs>
<filter id="filter0_d_656_329" x="0" y="0.325806" width="92.3259" height="92.3258" filterUnits="userSpaceOnUse" color-interpolation-filters="sRGB">
<feFlood flood-opacity="0" result="BackgroundImageFix"/>
<feColorMatrix in="SourceAlpha" type="matrix" values="0 0 0 0 0 0 0 0 0 0 0 0 0 0 0 0 0 0 127 0" result="hardAlpha"/>
<feOffset/>
<feGaussianBlur stdDeviation="7.5"/>
<feComposite in2="hardAlpha" operator="out"/>
<feColorMatrix type="matrix" values="0 0 0 0 0 0 0 0 0 0 0 0 0 0 0 0 0 0 0.15 0"/>
<feBlend mode="normal" in2="BackgroundImageFix" result="effect1_dropShadow_656_329"/>
<feBlend mode="normal" in="SourceGraphic" in2="effect1_dropShadow_656_329" result="shape"/>
</filter>
</defs>
</svg>
