<svg width="93" height="93" viewBox="0 0 93 93" fill="none" xmlns="http://www.w3.org/2000/svg">
<g filter="url(#filter0_d_656_301)">
<path d="M46.163 77.6516C63.3738 77.6516 77.3259 63.6995 77.3259 46.4887C77.3259 29.2779 63.3738 15.3258 46.163 15.3258C28.9521 15.3258 15 29.2779 15 46.4887C15 63.6995 28.9521 77.6516 46.163 77.6516Z" fill="white"/>
</g>
<path opacity="0.44" d="M46.163 65.3754C56.5938 65.3754 65.0496 56.9196 65.0496 46.4888C65.0496 36.058 56.5938 27.6022 46.163 27.6022C35.7322 27.6022 27.2764 36.058 27.2764 46.4888C27.2764 56.9196 35.7322 65.3754 46.163 65.3754Z" fill="#DCDFF9"/>
<path d="M53.9949 40.4818L50.8941 45.0696H50.9258L50.5777 45.5442L42.4779 57.5357L38.3014 54.3717L42.731 47.7906C42.1826 47.5586 41.7291 47.3266 41.3705 47.0945C40.3369 46.4406 39.5354 45.5653 38.9659 44.4684C38.3963 43.3505 38.1116 42.1692 38.1116 40.9247C38.1116 39.406 38.5229 38.0349 39.3455 36.8115C39.6197 36.4108 40.1787 35.8729 41.0225 35.1979C41.8873 34.5018 42.847 33.7952 43.9017 33.078L46.4329 38.0138C44.7243 39.0052 43.754 39.6697 43.522 40.0072C43.2689 40.3868 43.1423 40.7243 43.1423 41.0196C43.1423 41.4204 43.406 41.8106 43.9333 42.1903C44.2497 42.4434 44.6505 42.57 45.1357 42.57C45.4731 42.57 45.7895 42.5067 46.0849 42.3802C46.3802 42.2536 46.6016 42.0743 46.7493 41.8423L49.8184 37.3178L53.9949 40.4818Z" fill="#31A064"/>
<defs>
<filter id="filter0_d_656_301" x="0" y="0.325806" width="92.3259" height="92.3258" filterUnits="userSpaceOnUse" color-interpolation-filters="sRGB">
<feFlood flood-opacity="0" result="BackgroundImageFix"/>
<feColorMatrix in="SourceAlpha" type="matrix" values="0 0 0 0 0 0 0 0 0 0 0 0 0 0 0 0 0 0 127 0" result="hardAlpha"/>
<feOffset/>
<feGaussianBlur stdDeviation="7.5"/>
<feComposite in2="hardAlpha" operator="out"/>
<feColorMatrix type="matrix" values="0 0 0 0 0 0 0 0 0 0 0 0 0 0 0 0 0 0 0.15 0"/>
<feBlend mode="normal" in2="BackgroundImageFix" result="effect1_dropShadow_656_301"/>
<feBlend mode="normal" in="SourceGraphic" in2="effect1_dropShadow_656_301" result="shape"/>
</filter>
</defs>
</svg>
