<svg width="63" height="63" viewBox="0 0 63 63" fill="none" xmlns="http://www.w3.org/2000/svg">
<path d="M31.1629 62.9774C48.3737 62.9774 62.3259 49.0253 62.3259 31.8145C62.3259 14.6037 48.3737 0.651611 31.1629 0.651611C13.9521 0.651611 0 14.6037 0 31.8145C0 49.0253 13.9521 62.9774 31.1629 62.9774Z" fill="#57B679"/>
<path opacity="0.44" d="M31.163 50.7012C41.5937 50.7012 50.0496 42.2454 50.0496 31.8146C50.0496 21.3838 41.5937 12.928 31.163 12.928C20.7322 12.928 12.2764 21.3838 12.2764 31.8146C12.2764 42.2454 20.7322 50.7012 31.163 50.7012Z" fill="#4DA06B"/>
<path d="M39.2468 25.2812L36.1461 29.869H36.1777L35.8297 30.3436L27.7298 42.3352L23.5534 39.1712L27.983 32.59C27.4345 32.358 26.981 32.126 26.6224 31.894C25.5889 31.2401 24.7873 30.3647 24.2178 29.2678C23.6483 28.1499 23.3635 26.9687 23.3635 25.7242C23.3635 24.2054 23.7748 22.8344 24.5975 21.611C24.8717 21.2102 25.4307 20.6723 26.2744 19.9973C27.1392 19.3012 28.099 18.5946 29.1536 17.8774L31.6848 22.8133C29.9763 23.8047 29.006 24.4691 28.774 24.8066C28.5208 25.1863 28.3943 25.5238 28.3943 25.8191C28.3943 26.2199 28.658 26.6101 29.1853 26.9898C29.5017 27.2429 29.9025 27.3694 30.3876 27.3694C30.7251 27.3694 31.0415 27.3062 31.3368 27.1796C31.6321 27.053 31.8536 26.8737 32.0012 26.6417L35.0703 22.1172L39.2468 25.2812Z" fill="#A3DBAF"/>
</svg>
