<svg width="63" height="63" viewBox="0 0 63 63" fill="none" xmlns="http://www.w3.org/2000/svg">
<path d="M31.1629 62.9774C48.3737 62.9774 62.3259 49.0253 62.3259 31.8145C62.3259 14.6037 48.3737 0.651611 31.1629 0.651611C13.9521 0.651611 0 14.6037 0 31.8145C0 49.0253 13.9521 62.9774 31.1629 62.9774Z" fill="#57B679"/>
<path opacity="0.44" d="M31.163 50.7012C41.5937 50.7012 50.0496 42.2454 50.0496 31.8146C50.0496 21.3838 41.5937 12.928 31.163 12.928C20.7322 12.928 12.2764 21.3838 12.2764 31.8146C12.2764 42.2454 20.7322 50.7012 31.163 50.7012Z" fill="#4DA06B"/>
<path d="M35.739 31.9573C34.3679 31.9573 33.1234 31.5038 32.0055 30.5968C30.8664 31.5038 29.5798 31.9573 28.1454 31.9573H27.5759C27.365 31.9573 27.0907 31.9362 26.7532 31.894L27.5759 40.4685L22.5135 41.038L20.4885 20.3138L25.5509 19.7443L26.0572 24.9649C26.1626 25.8297 26.595 26.2621 27.3544 26.2621H28.1454C28.504 26.2621 28.8098 26.1883 29.063 26.0406C29.3161 25.893 29.4321 25.6926 29.411 25.4395V25.4078L28.968 21.0415L34.0304 20.472L34.4734 25.1231C34.5367 25.8824 34.9586 26.2621 35.739 26.2621H36.087C36.4456
 26.2621 36.7515 26.1777 37.0046 26.009C37.2577 25.8402 37.3737 25.6398 37.3526 25.4078L36.8464 20.3138L41.9088 19.7443L42.415 25.1547C42.4361 25.2813 42.4467 25.4711 42.4467 25.7242C42.4467 26.8422 42.1514 27.8863 41.5608 28.8566C40.9702 29.8058 40.1897 30.5651 39.2194 31.1347C38.2491 31.6831 37.205 31.9573 36.087 31.9573H35.739Z" fill="#A3DBAF"/>
</svg>
