<svg width="63" height="63" viewBox="0 0 63 63" fill="none" xmlns="http://www.w3.org/2000/svg">
<path d="M31.1629 62.9774C48.3737 62.9774 62.3259 49.0253 62.3259 31.8145C62.3259 14.6037 48.3737 0.651611 31.1629 0.651611C13.9521 0.651611 0 14.6037 0 31.8145C0 49.0253 13.9521 62.9774 31.1629 62.9774Z" fill="#57B679"/>
<path opacity="0.44" d="M31.163 50.7012C41.5937 50.7012 50.0496 42.2454 50.0496 31.8146C50.0496 21.3838 41.5937 12.928 31.163 12.928C20.7322 12.928 12.2764 21.3838 12.2764 31.8146C12.2764 42.2454 20.7322 50.7012 31.163 50.7012Z" fill="#4DA06B"/>
<path d="M16.2189 20.3138L21.2813 19.7442L23.3062 40.4684L18.2438 41.038L16.2189 20.3138Z" fill="#A3DBAF"/>
<path d="M33.6204 31.9573C33.3462 31.9573 33.1458 31.9467 33.0192 31.9256L33.8419 40.4684L28.7795 41.038L27.324 25.7875C27.3029 25.7453 27.2924 25.6715 27.2924 25.566L26.7861 20.2821L31.8485 19.7126L32.3864 25.2812C32.4286 25.5976 32.5024 25.8297 32.6079 25.9773C32.7134 26.1039 32.861 26.1883 33.0509 26.2304C32.9454 25.6609 32.8927 25.1336 32.8927 24.6484C32.8927 23.3196 33.2091 22.0961 33.8419 20.9782C34.4958 19.8603 35.3711 18.9743 36.468 18.3204C37.5648 17.6665 38.7566 17.3396 40.0433 17.3396C40.8659 17.3396 41.8362 17.5611 42.9542 18.004C44.0721 18.4259 44.937 18.795 45.5487 19.1114L43.3022 24.1738C42.7327 23.9629 42.1421 23.752 41.5304 23.541C40.9187 23.309 40.423 23.1403 40.0433 23.0348C39.9378 22.9926 39.7796 22.9715 39.5687 22.9715C39.1046 22.9715 38.7144 23.1508 38.398 23.5094C38.1027 23.8469 37.9551 24.2266 37.9551 24.6484C37.9551 25.0914 38.0816 25.4711 38.3347 25.7875C38.609 26.1039 38.9359 26.2621 39.3156 26.2621H45.3905V31.9573H33.6204Z" fill="#A3DBAF"/>
</svg>
