<svg width="93" height="93" viewBox="0 0 93 93" fill="none" xmlns="http://www.w3.org/2000/svg">
<g filter="url(#filter0_d_656_337)">
<path d="M46.163 77.6516C63.3738 77.6516 77.3259 63.6995 77.3259 46.4887C77.3259 29.2779 63.3738 15.3258 46.163 15.3258C28.9521 15.3258 15 29.2779 15 46.4887C15 63.6995 28.9521 77.6516 46.163 77.6516Z" fill="white"/>
</g>
<path opacity="0.44" d="M46.163 65.3754C56.5938 65.3754 65.0496 56.9196 65.0496 46.4888C65.0496 36.058 56.5938 27.6022 46.163 27.6022C35.7322 27.6022 27.2764 36.058 27.2764 46.4888C27.2764 56.9196 35.7322 65.3754 46.163 65.3754Z" fill="#DCDFF9"/>
<path d="M30.1481 35.5143L35.2105 34.9448L37.2355 55.669L32.1731 56.2385L30.1481 35.5143Z" fill="#31A064"/>
<path d="M54.5421 55.9538C53.1499 55.9538 51.916 55.5319 50.8402 54.6882C49.7644 55.5319 48.5305 55.9538 47.1383 55.9538H46.7903C45.6512 55.9538 44.6071 55.669 43.6579 55.0995C42.7087 54.5089 41.9599 53.7179 41.4115 52.7265C40.8631 51.714 40.5888 50.6172 40.5888 49.4359C40.5888 47.5375 40.7259 46.0294 41.0002 44.9114C41.2955 43.7935 41.8861 42.6122 42.772 41.3677C43.6579 40.1021 45.1555 38.2986 47.2649 35.9573L46.727 35.3561L50.4605 31.5593C54.0886 35.5671 56.5565 38.3936 57.8643 40.0388C59.1721 41.6841 60.0369 43.1396 60.4588 44.4052C60.8806 45.6497 61.0916 47.3266 61.0916 49.4359C61.0916 50.6172 60.8173 51.714 60.2689 52.7265C59.7205 53.7179 58.9717 54.5089 58.0225 55.0995C57.0733 55.669 56.0292 55.9538 54.8901 55.9538H54.5421ZM45.6512 49.4359C45.6512 49.668 45.7462 49.8683 45.936 50.0371C46.1469 50.1847 46.4317 50.2586 46.7903 50.2586H47.1383C47.4758 50.2586 47.75 50.1742 47.961 50.0054C48.193 49.8367 48.309 49.6469 48.309 49.4359V47.5059H53.3714V49.1828C53.4347 49.9 53.8249 50.2586 54.5421 50.2586H54.8901C55.2487 50.2586 55.5229 50.1847 55.7128 50.0371C55.9237 49.8683 56.0292 49.668 56.0292 49.4359C56.0292 48.2336 55.9237 47.2844 55.7128 46.5883C55.5229 45.8922 55.08 45.0802 54.3839 44.152C53.7089 43.2239 52.5277 41.8107 50.8402 39.9123C49.0684 41.874 47.8555 43.2872 47.2016 44.152C46.5477 45.0169 46.1258 45.7973 45.936 46.4934C45.7462 47.1684 45.6512 48.1492 45.6512 49.4359Z" fill="#31A064"/>
<defs>
<filter id="filter0_d_656_337" x="0" y="0.325806" width="92.3259" height="92.3258" filterUnits="userSpaceOnUse" color-interpolation-filters="sRGB">
<feFlood flood-opacity="0" result="BackgroundImageFix"/>
<feColorMatrix in="SourceAlpha" type="matrix" values="0 0 0 0 0 0 0 0 0 0 0 0 0 0 0 0 0 0 127 0" result="hardAlpha"/>
<feOffset/>
<feGaussianBlur stdDeviation="7.5"/>
<feComposite in2="hardAlpha" operator="out"/>
<feColorMatrix type="matrix" values="0 0 0 0 0 0 0 0 0 0 0 0 0 0 0 0 0 0 0.15 0"/>
<feBlend mode="normal" in2="BackgroundImageFix" result="effect1_dropShadow_656_337"/>
<feBlend mode="normal" in="SourceGraphic" in2="effect1_dropShadow_656_337" result="shape"/>
</filter>
</defs>
</svg>
