<svg width="93" height="93" viewBox="0 0 93 93" fill="none" xmlns="http://www.w3.org/2000/svg">
<g filter="url(#filter0_d_656_289)">
<path d="M46.163 77.6516C63.3738 77.6516 77.3259 63.6995 77.3259 46.4887C77.3259 29.2779 63.3738 15.3258 46.163 15.3258C28.9521 15.3258 15 29.2779 15 46.4887C15 63.6995 28.9521 77.6516 46.163 77.6516Z" fill="white"/>
</g>
<path opacity="0.44" d="M46.163 65.3754C56.5938 65.3754 65.0496 56.9196 65.0496 46.4888C65.0496 36.058 56.5938 27.6022 46.163 27.6022C35.7322 27.6022 27.2764 36.058 27.2764 46.4888C27.2764 56.9196 35.7322 65.3754 46.163 65.3754Z" fill="#DCDFF9"/>
<path d="M50.4871 47.1579C49.116 47.1579 47.8715 46.7044 46.7535 45.7973C45.6145 46.7044 44.3278 47.1579 42.8935 47.1579H42.3239C42.113 47.1579 41.8388 47.1368 41.5013 47.0946L42.3239 55.669L37.2615 56.2385L35.2366 35.5143L40.299 34.9448L40.8052 40.1654C40.9107 41.0303 41.3431 41.4627 42.1025 41.4627H42.8935C43.252 41.4627 43.5579 41.3888 43.811 41.2412C44.0641 41.0935 44.1801 40.8931 44.1591 40.64V40.6084L43.7161 36.2421L48.7785 35.6725L49.2215 40.3236C49.2847 41.083 49.7066 41.4627 50.4871 41.4627H50.8351C51.1937 41.4627 51.4995 41.3783 51.7527 41.2095C52.0058 41.0408 52.1218 40.8404 52.1007 40.6084L51.5945 35.5143L56.6569 34.9448L57.1631 40.3553C57.1842 40.4818 57.1947 40.6717 57.1947 40.9248C57.1947 42.0427 56.8994 43.0869 56.3088 44.0571C55.7182 45.0063 54.9377 45.7657 53.9675 46.3352C52.9972 46.8837 51.953 47.1579 50.8351 47.1579H50.4871Z" fill="#31A064"/>
<defs>
<filter id="filter0_d_656_289" x="0" y="0.325806" width="92.3259" height="92.3258" filterUnits="userSpaceOnUse" color-interpolation-filters="sRGB">
<feFlood flood-opacity="0" result="BackgroundImageFix"/>
<feColorMatrix in="SourceAlpha" type="matrix" values="0 0 0 0 0 0 0 0 0 0 0 0 0 0 0 0 0 0 127 0" result="hardAlpha"/>
<feOffset/>
<feGaussianBlur stdDeviation="7.5"/>
<feComposite in2="hardAlpha" operator="out"/>
<feColorMatrix type="matrix" values="0 0 0 0 0 0 0 0 0 0 0 0 0 0 0 0 0 0 0.15 0"/>
<feBlend mode="normal" in2="BackgroundImageFix" result="effect1_dropShadow_656_289"/>
<feBlend mode="normal" in="SourceGraphic" in2="effect1_dropShadow_656_289" result="shape"/>
</filter>
</defs>
</svg>
