<svg width="63" height="63" viewBox="0 0 63 63" fill="none" xmlns="http://www.w3.org/2000/svg">
<path d="M31.1629 62.3258C48.3737 62.3258 62.3259 48.3737 62.3259 31.1629C62.3259 13.9521 48.3737 0 31.1629 0C13.9521 0 0 13.9521 0 31.1629C0 48.3737 13.9521 62.3258 31.1629 62.3258Z" fill="#95EAB3"/>
<path d="M31.1625 50.0496C41.5933 50.0496 50.0491 41.5938 50.0491 31.163C50.0491 20.7322 41.5933 12.2764 31.1625 12.2764C20.7317 12.2764 12.2759 20.7322 12.2759 31.163C12.2759 41.5938 20.7317 50.0496 31.1625 50.0496Z" fill="#81D89A"/>
<path d="M38.1479 19.1337L38.6858 24.4492C38.7069 24.5968 38.7174 24.8078 38.7174 25.082C38.7174 26.1999 38.4221 27.2441 37.8315 28.2143C37.262 29.1635 36.4921 29.9335 35.5218 30.5241C34.5515 31.0936 33.4968 31.3783 32.3578 31.3783H31.7566C31.2715 31.3783 30.7863 31.3151 30.3012 31.1885L31.1555 39.8895L26.0931 40.459L24.0681 19.7032L29.1305 19.1337L29.6684 24.7339C29.7528 25.1347 29.8793 25.3984 30.0481 25.5249C30.2168 25.6304 30.5121 25.6831 30.934 25.6831H32.3578C32.8218 25.6831 33.1488 25.6304 33.3386 25.5249C33.5496 25.4195 33.6445 25.2191 33.6234 24.9238L33.0855 19.7032L38.1479 19.1337Z" fill="#41BE7B"/>
</svg>
