<svg width="63" height="63" viewBox="0 0 63 63" fill="none" xmlns="http://www.w3.org/2000/svg">
<path d="M31.1629 62.9774C48.3737 62.9774 62.3259 49.0253 62.3259 31.8145C62.3259 14.6037 48.3737 0.651611 31.1629 0.651611C13.9521 0.651611 0 14.6037 0 31.8145C0 49.0253 13.9521 62.9774 31.1629 62.9774Z" fill="#57B679"/>
<path opacity="0.44" d="M31.163 50.7012C41.5937 50.7012 50.0496 42.2454 50.0496 31.8146C50.0496 21.3838 41.5937 12.928 31.163 12.928C20.7322 12.928 12.2764 21.3838 12.2764 31.8146C12.2764 42.2454 20.7322 50.7012 31.163 50.7012Z" fill="#4DA06B"/>
<path d="M15.4001 20.3138L20.4625 19.7442L22.4874 40.4684L17.425 41.038L15.4001 20.3138Z" fill="#A3DBAF"/>
<path d="M39.794 40.7532C38.4019 40.7532 37.1679 40.3313 36.0922 39.4876C35.0164 40.3313 33.7824 40.7532 32.3903 40.7532H32.0422C30.9032 40.7532 29.8591 40.4684 28.9099 39.8989C27.9607 39.3083 27.2119 38.5173 26.6634 37.5259C26.115 36.5134 25.8408 35.4166 25.8408 34.2354C25.8408 32.337 25.9779 30.8288 26.2521 29.7108C26.5474 28.5929 27.138 27.4117 28.024 26.1672C28.9099 24.9016 30.4075 23.0981 32.5168 20.7567L31.979 20.1556L35.7125 16.3588C39.3405 20.3665 41.8084 23.193 43.1162 24.8383C44.424 26.4836 45.2888 27.939 45.7107 29.2046C46.1326 30.4491 46.3435 32.126 46.3435 34.2354C46.3435 35.4166 46.0693 36.5134 45.5209 37.5259C44.9724 38.5173 44.2236 39.3083 43.2744 39.8989C42.3252 40.4684 41.2811 40.7532 40.1421 40.7532H39.794ZM30.9032 34.2354C30.9032 34.4674 30.9981 34.6678 31.188 34.8365C31.3989 34.9842 31.6836 35.058 32.0422 35.058H32.3903C32.7278 35.058 33.002 34.9736 33.2129 34.8049C33.4449 34.6361 33.561 34.4463 33.561 34.2354V32.3053H38.6234V33.9822C38.6866 34.6994 39.0769 35.058 39.794 35.058H40.1421C40.5007 35.058 40.7749 34.9842 40.9647 34.8365C41.1756 34.6678 41.2811 34.4674 41.2811 34.2354C41.2811 33.033 41.1756 32.0838 40.9647 31.3878C40.7749 30.6917 40.3319 29.8796 39.6358 28.9515C38.9608 28.0234 37.7796 26.6101 36.0922 24.7117C34.3203 26.6734 33.1074 28.0867 32.4536 28.9515C31.7997 29.8163 31.3778 30.5968 31.188 31.2928C30.9981 31.9678 30.9032 32.9487 30.9032 34.2354Z" fill="#A3DBAF"/>
</svg>
