<svg width="63" height="63" viewBox="0 0 63 63" fill="none" xmlns="http://www.w3.org/2000/svg">
<path d="M31.1629 62.9774C48.3737 62.9774 62.3259 49.0253 62.3259 31.8145C62.3259 14.6037 48.3737 0.651611 31.1629 0.651611C13.9521 0.651611 0 14.6037 0 31.8145C0 49.0253 13.9521 62.9774 31.1629 62.9774Z" fill="#57B679"/>
<path opacity="0.44" d="M31.163 50.7012C41.5937 50.7012 50.0496 42.2454 50.0496 31.8146C50.0496 21.3838 41.5937 12.928 31.163 12.928C20.7322 12.928 12.2764 21.3838 12.2764 31.8146C12.2764 42.2454 20.7322 50.7012 31.163 50.7012Z" fill="#4DA06B"/>
<path d="M35.0104 40.7532C33.6182 40.7532 32.3842 40.3313 31.3085 39.4876C30.2327 40.3313 28.9988 40.7532 27.6066 40.7532H27.2586C26.1195 40.7532 25.0754 40.4684 24.1262 39.8989C23.177 39.3083 22.4282 38.5173 21.8798 37.5259C21.3313 36.5134 21.0571 35.4166 21.0571 34.2354C21.0571 32.337 21.1942 30.8288 21.4684 29.7108C21.7638 28.5929 22.3544 27.4117 23.2403 26.1672C24.1262 24.9016 25.6238 23.0981 27.7332 20.7567L27.1953 20.1556L30.9288 16.3588C34.5569 20.3665 37.0248 23.193 38.3326 24.8383C39.6404 26.4836 40.5052 27.939 40.927 29.2046C41.3489 30.4491 41.5598 32.126 41.5598 34.2354C41.5598 35.4166 41.2856 36.5134 40.7372 37.5259C40.1888 38.5173 39.44 39.3083 38.4908 39.8989C37.5416 40.4684 36.4975 40.7532 35.3584 40.7532H35.0104ZM26.1195 34.2354C26.1195 34.4674 26.2144 34.6678 26.4043 34.8365C26.6152 34.9842 26.9 35.058 27.2586 35.058H27.6066C27.9441 35.058 28.2183 34.9736 28.4292 34.8049C28.6613 34.6361 28.7773 34.4463 28.7773 34.2354V32.3053H33.8397V33.9822C33.903 34.6994 34.2932 35.058 35.0104 35.058H35.3584C35.717 35.058 35.9912 34.9842 36.181 34.8365C36.392 34.6678 36.4974 34.4674 36.4974 34.2354C36.4974 33.033 36.392 32.0838 36.181 31.3878C35.9912 30.6917 35.5482 29.8796 34.8522 28.9515C34.1772 28.0234 32.996 26.6101 31.3085 24.7117C29.5366 26.6734 28.3238 28.0867 27.6699 28.9515C27.016 29.8163 26.5941 30.5968 26.4043 31.2928C26.2144 31.9678 26.1195 32.9487 26.1195 34.2354Z" fill="#A3DBAF"/>
</svg>
