<svg width="63" height="63" viewBox="0 0 63 63" fill="none" xmlns="http://www.w3.org/2000/svg">
<path d="M31.1629 62.9774C48.3737 62.9774 62.3259 49.0253 62.3259 31.8145C62.3259 14.6037 48.3737 0.651611 31.1629 0.651611C13.9521 0.651611 0 14.6037 0 31.8145C0 49.0253 13.9521 62.9774 31.1629 62.9774Z" fill="#57B679"/>
<path opacity="0.44" d="M31.163 50.7012C41.5937 50.7012 50.0496 42.2454 50.0496 31.8146C50.0496 21.3838 41.5937 12.928 31.163 12.928C20.7322 12.928 12.2764 21.3838 12.2764 31.8146C12.2764 42.2454 20.7322 50.7012 31.163 50.7012Z" fill="#4DA06B"/>
<path d="M18.2582 20.3138L23.3206 19.7443L25.3455 40.4685L20.2831 41.038L18.2582 20.3138Z" fill="#A3DBAF"/>
<path d="M42.3041 33.4444C42.3041 34.6678 42.0088 35.8068 41.4182 36.8615C40.8276 37.9162 40.026 38.7599 39.0135 39.3927C38.0221 40.0044 36.9358 40.3103 35.7546 40.3103C34.5734 40.3103 33.4765 40.0044 32.464 39.3927C31.4727 38.7599 30.6817 37.9162 30.091 36.8615C29.5004 35.8068 29.2051 34.6678 29.2051 33.4444C29.2051 32.221 29.5004 31.0819 30.091 30.0273C30.6817 28.9726 31.4727 28.1394 32.464 27.5277C33.4765 26.8949 34.5734 26.5785 35.7546 26.5785C36.9358 26.5785 38.0221 26.8949 39.0135 27.5277C40.026 28.1394 40.8276 28.9726 41.4182 30.0273C42.0088 31.0819 42.3041 32.221 42.3041 33.4444ZM33.9511 33.4444C33.9511 33.8873 34.1304 34.2565 34.489 34.5518C34.8476 34.826 35.2695 34.9631 35.7546 34.9631C36.2398 34.9631 36.6616 34.826 37.0202 34.5518C37.3788 34.2565 37.5581 33.8873 37.5581 33.4444C37.5581 33.0225 37.3788 32.6639 37.0202 32.3686C36.6616 32.0733 36.2398 31.9257 35.7546 31.9257C35.2695 31.9257 34.8476 32.0733 34.489 32.3686C34.1304 32.6639 33.9511 33.0225 33.9511 33.4444Z" fill="#A3DBAF"/>
</svg>
