<svg width="63" height="63" viewBox="0 0 63 63" fill="none" xmlns="http://www.w3.org/2000/svg">
<path d="M31.1629 62.3258C48.3737 62.3258 62.3259 48.3737 62.3259 31.1629C62.3259 13.9521 48.3737 0 31.1629 0C13.9521 0 0 13.9521 0 31.1629C0 48.3737 13.9521 62.3258 31.1629 62.3258Z" fill="#95EAB3"/>
<path d="M31.1625 50.0496C41.5933 50.0496 50.0491 41.5938 50.0491 31.163C50.0491 20.7322 41.5933 12.2764 31.1625 12.2764C20.7317 12.2764 12.2759 20.7322 12.2759 31.163C12.2759 41.5938 20.7317 50.0496 31.1625 50.0496Z" fill="#81D89A"/>
<path d="M15.3337 19.8614L20.3961 19.2919L22.421 40.0161L17.3586 40.5856L15.3337 19.8614Z" fill="#41BE7B"/>
<path d="M39.7276 40.3008C38.3355 40.3008 37.1015 39.8789 36.0257 39.0352C34.95 39.8789 33.716 40.3008 32.3239 40.3008H31.9758C30.8368 40.3008 29.7927 40.0161 28.8435 39.4465C27.8943 38.8559 27.1455 38.0649 26.597 37.0735C26.0486 36.0611 25.7744 34.9642 25.7744 33.783C25.7744 31.8846 25.9115 30.3764 26.1857 29.2585C26.481 28.1405 27.0716 26.9593 27.9575 25.7148C28.8435 24.4492 30.3411 22.6457 32.4504 20.3043L31.9125 19.7032L35.6461 15.9064C39.2741 19.9141 41.742 22.7406 43.0498 24.3859C44.3576 26.0312 45.2224 27.4866 45.6443 28.7522C46.0662 29.9967 46.2771 31.6736 46.2771 33.783C46.2771 34.9642 46.0029 36.0611 45.4545 37.0735C44.906 38.0649 44.1572 38.8559 43.208 39.4465C42.2588 40.0161 41.2147 40.3008 40.0757 40.3008H39.7276ZM30.8368 33.783C30.8368 34.015 30.9317 34.2154 31.1215 34.3841C31.3325 34.5318 31.6172 34.6056 31.9758 34.6056H32.3239C32.6614 34.6056 32.9356 34.5212 33.1465 34.3525C33.3785 34.1837 33.4945 33.9939 33.4945 33.783V31.8529H38.5569V33.5299C38.6202 34.247 39.0105 34.6056 39.7276 34.6056H40.0757C40.4343 34.6056 40.7085 34.5318 40.8983 34.3841C41.1092 34.2154 41.2147 34.015 41.2147 33.783C41.2147 32.5807 41.1092 31.6315 40.8983 30.9354C40.7085 30.2393 40.2655 29.4272 39.5694 28.4991C38.8944 27.571 37.7132 26.1577 36.0257 24.2593C34.2539 26.221 33.041 27.6343 32.3871 28.4991C31.7333 29.3639 31.3114 30.1444 31.1215 30.8405C30.9317 31.5154 30.8368 32.4963 30.8368 33.783Z" fill="#41BE7B"/>
</svg>
