<svg width="63" height="63" viewBox="0 0 63 63" fill="none" xmlns="http://www.w3.org/2000/svg">
<path d="M31.1629 62.9774C48.3737 62.9774 62.3259 49.0253 62.3259 31.8145C62.3259 14.6037 48.3737 0.651611 31.1629 0.651611C13.9521 0.651611 0 14.6037 0 31.8145C0 49.0253 13.9521 62.9774 31.1629 62.9774Z" fill="#57B679"/>
<path opacity="0.44" d="M31.163 50.7012C41.5937 50.7012 50.0496 42.2454 50.0496 31.8146C50.0496 21.3838 41.5937 12.928 31.163 12.928C20.7322 12.928 12.2764 21.3838 12.2764 31.8146C12.2764 42.2454 20.7322 50.7012 31.163 50.7012Z" fill="#4DA06B"/>
<path d="M28.3368 31.9573C28.0626 31.9573 27.8622 31.9467 27.7356 31.9256L28.5583 40.4684L23.4959 41.038L22.0404 25.7875C22.0194 25.7453 22.0088 25.6715 22.0088 25.566L21.5026 20.2821L26.565 19.7126L27.1028 25.2812C27.145 25.5976 27.2189 25.8297 27.3243 25.9773C27.4298 26.1039 27.5774 26.1883 27.7673 26.2304C27.6618 25.6609 27.6091 25.1336 27.6091 24.6484C27.6091 23.3196 27.9255 22.0961 28.5583 20.9782C29.2122 19.8603 30.0875 18.9743 31.1844 18.3204C32.2813 17.6665 33.473 17.3396 34.7597 17.3396C35.5824 17.3396 36.5527 17.5611 37.6706 18.004C38.7886 18.4259 39.6534 18.795 40.2651 19.1114L38.0186 24.1738C37.4491 23.9629 36.8585 23.752 36.2468 23.541C35.6351 23.309 35.1394 23.1403 34.7597 23.0348C34.6543 22.9926 34.4961 22.9715 34.2851 22.9715C33.8211 22.9715 33.4308 23.1508 33.1144 23.5094C32.8191 23.8469 32.6715 24.2266 32.6715 24.6484C32.6715 25.0914 32.798 25.4711 33.0512 25.7875C33.3254 26.1039 33.6523 26.2621 34.032 26.2621H40.1069V31.9573H28.3368Z" fill="#A3DBAF"/>
</svg>
