<svg width="93" height="93" viewBox="0 0 93 93" fill="none" xmlns="http://www.w3.org/2000/svg">
<g filter="url(#filter0_d_656_333)">
<path d="M46.163 77.6516C63.3738 77.6516 77.3259 63.6995 77.3259 46.4887C77.3259 29.2779 63.3738 15.3258 46.163 15.3258C28.9521 15.3258 15 29.2779 15 46.4887C15 63.6995 28.9521 77.6516 46.163 77.6516Z" fill="white"/>
</g>
<path opacity="0.44" d="M46.163 65.3754C56.5938 65.3754 65.0496 56.9196 65.0496 46.4888C65.0496 36.058 56.5938 27.6022 46.163 27.6022C35.7322 27.6022 27.2764 36.058 27.2764 46.4888C27.2764 56.9196 35.7322 65.3754 46.163 65.3754Z" fill="#DCDFF9"/>
<path d="M30.9669 35.5143L36.0293 34.9448L38.0543 55.669L32.9919 56.2385L30.9669 35.5143Z" fill="#31A064"/>
<path d="M48.3684 47.1578C48.0942 47.1578 47.8938 47.1473 47.7673 47.1262L48.5899 55.669L43.5275 56.2385L42.0721 40.988C42.051 40.9459 42.0404 40.872 42.0404 40.7666L41.5342 35.4827L46.5966 34.9132L47.1345 40.4818C47.1767 40.7982 47.2505 41.0302 47.3559 41.1779C47.4614 41.3044 47.6091 41.3888 47.7989 41.431C47.6934 40.8615 47.6407 40.3341 47.6407 39.849C47.6407 38.5201 47.9571 37.2967 48.5899 36.1788C49.2438 35.0608 50.1192 34.1749 51.216 33.521C52.3129 32.8671 53.5047 32.5402 54.7913 32.5402C55.614 32.5402 56.5843 32.7616 57.7022 33.2046C58.8202 33.6265 59.685 33.9956 60.2967 34.312L58.0503 39.3744C57.4807 39.1635 56.8901 38.9525 56.2784 38.7416C55.6667 38.5096 55.171 38.3408 54.7913 38.2354C54.6859 38.1932 54.5277 38.1721 54.3167 38.1721C53.8527 38.1721 53.4625 38.3514 53.1461 38.71C52.8508 39.0475 52.7031 39.4271 52.7031 39.849C52.7031 40.292 52.8297 40.6716 53.0828 40.988C53.357 41.3044 53.6839 41.4626 54.0636 41.4626H60.1385V47.1578H48.3684Z" fill="#31A064"/>
<defs>
<filter id="filter0_d_656_333" x="0" y="0.325806" width="92.3259" height="92.3258" filterUnits="userSpaceOnUse" color-interpolation-filters="sRGB">
<feFlood flood-opacity="0" result="BackgroundImageFix"/>
<feColorMatrix in="SourceAlpha" type="matrix" values="0 0 0 0 0 0 0 0 0 0 0 0 0 0 0 0 0 0 127 0" result="hardAlpha"/>
<feOffset/>
<feGaussianBlur stdDeviation="7.5"/>
<feComposite in2="hardAlpha" operator="out"/>
<feColorMatrix type="matrix" values="0 0 0 0 0 0 0 0 0 0 0 0 0 0 0 0 0 0 0.15 0"/>
<feBlend mode="normal" in2="BackgroundImageFix" result="effect1_dropShadow_656_333"/>
<feBlend mode="normal" in="SourceGraphic" in2="effect1_dropShadow_656_333" result="shape"/>
</filter>
</defs>
</svg>
