<svg width="63" height="63" viewBox="0 0 63 63" fill="none" xmlns="http://www.w3.org/2000/svg">
<path d="M31.1629 62.9774C48.3737 62.9774 62.3259 49.0253 62.3259 31.8145C62.3259 14.6037 48.3737 0.651611 31.1629 0.651611C13.9521 0.651611 0 14.6037 0 31.8145C0 49.0253 13.9521 62.9774 31.1629 62.9774Z" fill="#57B679"/>
<path opacity="0.44" d="M31.163 50.7012C41.5937 50.7012 50.0496 42.2454 50.0496 31.8146C50.0496 21.3838 41.5937 12.928 31.163 12.928C20.7322 12.928 12.2764 21.3838 12.2764 31.8146C12.2764 42.2454 20.7322 50.7012 31.163 50.7012Z" fill="#4DA06B"/>
<path d="M15.2049 20.3138L20.2673 19.7443L22.2923 40.4685L17.2299 41.038L15.2049 20.3138Z" fill="#A3DBAF"/>
<path d="M41.0226 31.9573C39.6516 31.9573 38.4071 31.5038 37.2891 30.5968C36.1501 31.5038 34.8634 31.9573 33.429 31.9573H32.8595C32.6486 31.9573 32.3744 31.9362 32.0369 31.894L32.8595 40.4685L27.7971 41.038L25.7722 20.3138L30.8346 19.7443L31.3408 24.9649C31.4463 25.8297 31.8787 26.2621 32.638 26.2621H33.429C33.7876 26.2621 34.0935 26.1883 34.3466 26.0406C34.5997 25.893 34.7157 25.6926 34.6946 25.4395V25.4078L34.2517 21.0415L39.3141 20.472L39.757 25.1231C39.8203 25.8824 40.2422 26.2621 41.0226 26.2621H41.3707C41.7293 26.2621 42.0351 26.1777 42.2882 26.009C42.5414 25.8402 42.6574 25.6398 42.6363 25.4078L42.13 20.3138L47.1924 19.7443L47.6987 25.1547C47.7198 25.2813 47.7303 25.4711 47.7303 25.7242C47.7303 26.8422 47.435 27.8863 46.8444 28.8566C46.2538 29.8058 45.4733 30.5651 44.503 31.1347C43.5327 31.6831 42.4886 31.9573 41.3707 31.9573H41.0226Z" fill="#A3DBAF"/>
</svg>
