<svg width="63" height="63" viewBox="0 0 63 63" fill="none" xmlns="http://www.w3.org/2000/svg">
<path d="M31.1629 62.9774C48.3737 62.9774 62.3259 49.0253 62.3259 31.8145C62.3259 14.6037 48.3737 0.651611 31.1629 0.651611C13.9521 0.651611 0 14.6037 0 31.8145C0 49.0253 13.9521 62.9774 31.1629 62.9774Z" fill="#57B679"/>
<path opacity="0.44" d="M31.163 50.7012C41.5937 50.7012 50.0496 42.2454 50.0496 31.8146C50.0496 21.3838 41.5937 12.928 31.163 12.928C20.7322 12.928 12.2764 21.3838 12.2764 31.8146C12.2764 42.2454 20.7322 50.7012 31.163 50.7012Z" fill="#4DA06B"/>
<path d="M22.5854 26.5784C22.5854 25.2495 22.9018 24.0261 23.5346 22.9082C24.1674 21.7691 25.0217 20.8726 26.0975 20.2188C27.1943 19.5649 28.3861 19.2379 29.6728 19.2379C30.8962 19.2379 32.0142 19.5438 33.0266 20.1555C34.0602 20.7672 34.904 21.6109 35.5578 22.6867C36.2117 23.7413 36.6125 24.9331 36.7602 26.262L38.3422 40.4367L33.2798 41.0062L32.4888 33.7923H29.6728C28.365 33.7923 27.1732 33.4759 26.0975 32.8431C25.0217 32.1892 24.1674 31.3138 23.5346 30.217C22.9018 29.1201 22.5854 27.9073 22.5854 26.5784ZM27.6478 26.5784C27.6478 27.0424 27.8377 27.4432 28.2174 27.7807C28.6181 28.1182 29.1033 28.287 29.6728 28.287H31.856L31.6978 26.8315C31.6345 26.2409 31.413 25.7558 31.0333 25.3761C30.6747 24.9964 30.2212 24.8066 29.6728 24.8066C29.0822 24.8066 28.597 24.9858 28.2174 25.3444C27.8377 25.6819 27.6478 26.0932 27.6478 26.5784Z" fill="#A3DBAF"/>
</svg>
