<svg width="24" height="24" viewBox="0 0 24 24" xmlns="http://www.w3.org/2000/svg">
    <path d="M16.5 0A7.5 7.5 0 0 1 24 7.5v9a7.5 7.5 0 0 1-7.5 7.5h-9A7.5 7.5 0 0 1 0 16.5v-9A7.5 7.5 0 0 1 7.5 0zm0 2.25h-9A5.256 5.256 0 0 0 2.25 7.5v9a5.256 5.256 0 0 0 5.25 5.25h9a5.256 5.256 0 0 0 5.25-5.25v-9a5.256 5.256 0 0 0-5.25-5.25zM12 6a6 6 0 1 1 0 12 6 6 0 0 1 0-12zm0 2.25A3.754 3.754 0 0 0 8.25 12 3.755 3.755 0 0 0 12 15.75 3.755 3.755 0 0 0 15.75 12 3.754 3.754 0 0 0 12 8.25zm6.45-3.5a.8.8 0 1 1 0 1.6.8.8 0 0 1 0-1.6z" fill="#000" fill-rule="nonzero"/>
</svg>
