<svg width="30" height="24" viewBox="0 0 30 24" xmlns="http://www.w3.org/2000/svg">
    <path d="M29.538 2.841a12.626 12.626 0 0 1-3.489.957A6.022 6.022 0 0 0 28.713.45a12.102 12.102 0 0 1-3.84 1.466 6.054 6.054 0 0 0-10.475 4.14c0 .481.04.943.14 1.382C9.504 7.193 5.05 4.78 2.057 1.104a6.097 6.097 0 0 0-.83 3.06 6.064 6.064 0 0 0 2.69 5.034 5.98 5.98 0 0 1-2.735-.746v.066c0 2.943 2.099 5.387 4.851 5.95-.493.135-1.03.2-1.587.2-.388 0-.78-.022-1.147-.104.785 2.398 3.011 4.162 5.659 4.219a12.168 12.168 0 0 1-7.509 2.583c-.496 0-.973-.023-1.449-.084A17.048 17.048 0 0 0 9.29 24c11.143 0 17.236-9.23 17.236-17.232 0-.268-.01-.526-.023-.783a12.08 12.08 0 0 0 3.035-3.144z" fill="#000" fill-rule="nonzero"/>
</svg>
