<svg width="24" height="24" viewBox="0 0 24 24" xmlns="http://www.w3.org/2000/svg">
    <path d="M12.003 0h-.006C5.38 0 0 5.382 0 12c0 2.625.846 5.058 2.284 7.034L.79 23.49l4.612-1.474A11.896 11.896 0 0 0 12.003 24C18.62 24 24 18.616 24 12c0-6.617-5.38-12-11.997-12zm6.983 16.945c-.29.818-1.439 1.496-2.356 1.694-.626.134-1.445.24-4.203-.903-3.526-1.461-5.797-5.045-5.974-5.277-.17-.232-1.425-1.897-1.425-3.62 0-1.722.875-2.56 1.227-2.92.29-.295.768-.43 1.227-.43.148 0 .282.007.402.013.353.015.53.036.762.593.29.697.995 2.419 1.079 2.596.085.177.17.417.05.65-.112.24-.211.346-.388.55-.177.204-.345.36-.522.579-.162.19-.345.394-.141.747.204.345.909 1.495 1.947 2.42 1.34 1.192 2.426 1.573 2.814 1.735.29.12.635.091.846-.133.269-.29.6-.77.938-1.243.24-.338.542-.38.86-.26.325.112 2.039.96 2.391 1.135.353.177.586.261.671.41.084.148.084.845-.205 1.664z" fill="#000" fill-rule="nonzero"/>
</svg>
