<svg width="24" height="24" viewBox="0 0 24 24" xmlns="http://www.w3.org/2000/svg">
    <defs>
        <filter id="q3uhxchvwa">
            <feColorMatrix in="SourceGraphic" values="0 0 0 0 0.800000 0 0 0 0 0.188235 0 0 0 0 0.295822 0 0 0 1.000000 0"/>
        </filter>
    </defs>
    <g transform="translate(-32 -168)" filter="url(#q3uhxchvwa)" fill="none" fill-rule="evenodd">
        <path d="M48.34 170c3.39 0 5.66 2.38 5.66 5.92v8.17c0 3.53-2.27 5.91-5.66 5.91h-8.67c-3.39 0-5.67-2.38-5.67-5.91v-8.17c0-3.54 2.28-5.92 5.67-5.92zm-1.33 6.97a.88.88 0 0 0-1.24 0L44 178.75l-1.78-1.78a.88.88 0 0 0-1.24 0 .88.88 0 0 0 0 1.24l1.78 1.78-1.78 1.77a.88.88 0 0 0 .62 1.5c.23 0 .45-.09.62-.26l1.78-1.77 1.78 1.77c.17.18.39.26.61.26.23 0 .45-.09.62-.26a.868.868 0 0 0 0-1.23l-1.78-1.78 1.78-1.78a.88.88 0 0 0 0-1.24z" fill="#200E32" fill-rule="nonzero"/>
    </g>
</svg>
