<?xml version="1.0" encoding="UTF-8"?>
<svg width="20px" height="20px" viewBox="0 0 20 20" version="1.1" xmlns="http://www.w3.org/2000/svg" xmlns:xlink="http://www.w3.org/1999/xlink">
    <title>information-svgrepo-com</title>
    <g id="web" stroke="none" stroke-width="1" fill="none" fill-rule="evenodd">
        <g id="web/game-board" transform="translate(-1333.000000, -563.000000)" fill="#5B7DE8" fill-rule="nonzero">
            <g id="Group" transform="translate(1064.000000, 96.000000)">
                <g id="information-svgrepo-com" transform="translate(269.000000, 467.000000)">
                    <path d="M10,0 C4.48582031,0 0,4.48605469 0,10 C0,15.5139453 4.48582031,20 10,20 C15.5141797,20 20,15.5139453 20,10 C20,4.48605469 15.5141797,0 10,0 Z M11.3043359,15.2173828 C11.3043359,15.9377734 10.7203906,16.5217188 10,16.5217188 C9.27960937,16.5217188 8.69566406,15.9377734 8.69566406,15.2173828 L8.69566406,8.69566406 C8.69566406,7.97527344 9.27960938,7.39132812 10,7.39132812 C10.7203906,7.39132812 11.3043359,7.97527344 11.3043359,8.69566406 L11.3043359,15.2173828 Z M10,6.08695312 C9.27960937,6.08695312 8.69566406,5.50300781 8.69566406,4.78261719 C8.69566406,4.06222656 9.27960937,3.47828125 10,3.47828125 C10.7203906,3.47828125 11.3043359,4.06222656 11.3043359,4.78261719 C11.3043359,5.50300781 10.7203906,6.08695312 10,6.08695312 Z" id="Shape"></path>
                </g>
            </g>
        </g>
    </g>
</svg>