<svg width="20" height="20" viewBox="0 0 20 20" xmlns="http://www.w3.org/2000/svg">
    <defs>
        <filter id="nrxdpaew3a">
            <feColorMatrix in="SourceGraphic" values="0 0 0 0 1.000000 0 0 0 0 0.760784 0 0 0 0 0.227451 0 0 0 1.000000 0"/>
        </filter>
        <filter x="-60%" y="-60%" width="220%" height="220%" filterUnits="objectBoundingBox" id="ke52crldmb">
            <feOffset dy="2" in="SourceAlpha" result="shadowOffsetOuter1"/>
            <feGaussianBlur stdDeviation="2" in="shadowOffsetOuter1" result="shadowBlurOuter1"/>
            <feColorMatrix values="0 0 0 0 1 0 0 0 0 0.760784314 0 0 0 0 0.22745098 0 0 0 0.4 0" in="shadowBlurOuter1" result="shadowMatrixOuter1"/>
            <feMerge>
                <feMergeNode in="shadowMatrixOuter1"/>
                <feMergeNode in="SourceGraphic"/>
            </feMerge>
        </filter>
    </defs>
    <g transform="translate(-11 -11)" filter="url(#nrxdpaew3a)" fill="none" fill-rule="evenodd">
        <g filter="url(#ke52crldmb)" transform="translate(11 11)">
            <path d="M14.932 11.933a.917.917 0 0 0-.266.809l.741 4.1a.9.9 0 0 1-.375.9.917.917 0 0 1-.975.066l-3.69-1.925a.942.942 0 0 0-.417-.109h-.226a.676.676 0 0 0-.225.075l-3.692 1.934c-.182.092-.39.125-.592.092a.926.926 0 0 1-.741-1.06l.741-4.1a.933.933 0 0 0-.265-.815L1.94 8.983a.9.9 0 0 1-.224-.941.936.936 0 0 1 .741-.625L6.6 6.816a.927.927 0 0 0 .733-.508l1.825-3.741c.043-.084.1-.16.167-.225l.075-.059a.56.56 0 0 1 .134-.108l.09-.033.142-.059h.351c.314.033.59.22.734.5l1.849 3.725a.926.926 0 0 0 .691.508l4.142.6c.35.05.643.292.758.626.11.334.015.7-.241.941l-3.117 2.95z" fill="#200E32" fill-rule="nonzero"/>
        </g>
    </g>
</svg>
