<svg width="16" height="16" viewBox="0 0 16 16" xmlns="http://www.w3.org/2000/svg">
    <defs>
        <filter id="2djvgdv8na">
            <feColorMatrix in="SourceGraphic" values="0 0 0 0 0.485351 0 0 0 0 0.485351 0 0 0 0 0.485351 0 0 0 1.000000 0"/>
        </filter>
    </defs>
    <g transform="translate(-8 -16)" filter="url(#2djvgdv8na)" fill="none" fill-rule="evenodd" opacity=".322">
        <path d="M14.333 26.01c2.712 0 5 .446 5 2.17 0 1.722-2.303 2.153-5 2.153-2.71 0-5-.446-5-2.169s2.303-2.154 5-2.154zM20.666 21c.33 0 .6.273.6.608v.784h.801c.33 0 .6.273.6.608 0 .334-.27.607-.6.607h-.802v.785a.604.604 0 0 1-.599.608c-.33 0-.6-.273-.6-.608v-.785h-.8c-.33 0-.6-.273-.6-.607 0-.335.27-.608.6-.608h.8v-.784c0-.335.27-.608.6-.608zm-6.333-3.333c1.837 0 3.309 1.49 3.309 3.35 0 1.861-1.472 3.352-3.309 3.352-1.836 0-3.308-1.491-3.308-3.351 0-1.86 1.472-3.351 3.308-3.351z" fill="#200E32" fill-rule="nonzero"/>
    </g>
</svg>
