<svg width="16" height="16" viewBox="0 0 16 16" xmlns="http://www.w3.org/2000/svg">
    <defs>
        <filter id="42rkl7yrba">
            <feColorMatrix in="SourceGraphic" values="0 0 0 0 0.485351 0 0 0 0 0.485351 0 0 0 0 0.485351 0 0 0 1.000000 0"/>
        </filter>
    </defs>
    <g transform="translate(-8 -16)" filter="url(#42rkl7yrba)" fill="none" fill-rule="evenodd" opacity=".322">
        <path d="M19.946 25.547a.734.734 0 0 0-.213.646l.593 3.28a.72.72 0 0 1-.3.72.734.734 0 0 1-.78.054l-2.953-1.54a.754.754 0 0 0-.333-.088h-.181a.541.541 0 0 0-.18.06l-2.953 1.548a.779.779 0 0 1-.474.073.741.741 0 0 1-.593-.847l.593-3.28a.746.746 0 0 0-.212-.653l-2.408-2.333a.72.72 0 0 1-.179-.754.749.749 0 0 1 .593-.5l3.313-.48a.741.741 0 0 0 .587-.406l1.46-2.994a.694.694 0 0 1 .133-.18l.06-.046a.447.447 0 0 1 .107-.087l.073-.027.113-.046h.281c.25.026.471.176.587.4l1.479 2.98a.74.74 0 0 0 .553.406l3.314.48c.28.04.514.234.606.5a.724.724 0 0 1-.193.754l-2.493 2.36z" fill="#200E32" fill-rule="nonzero"/>
    </g>
</svg>
