<svg width="15" height="15" viewBox="0 0 15 15" xmlns="http://www.w3.org/2000/svg">
    <path d="M15 7.5C15 3.34 11.66 0 7.5 0S0 3.34 0 7.5 3.34 15 7.5 15 15 11.66 15 7.5zm-8.761 3.307L3.17 7.739a.368.368 0 0 1-.102-.239.31.31 0 0 1 .102-.239L6.24 4.193a.31.31 0 0 1 .238-.102.31.31 0 0 1 .239.102l.477.477a.33.33 0 0 1 0 .478L5.83 6.51c-.103.103-.035.307.136.307h5.625c.204 0 .34.137.34.341v.682c0 .204-.136.34-.34.34H5.93c-.136 0-.238.171-.136.308L7.16 9.852a.33.33 0 0 1 0 .478l-.477.477a.31.31 0 0 1-.239.102c-.068 0-.136-.034-.204-.102z" fill="#FFC039" fill-rule="nonzero"/>
</svg>
