<svg id="Layer_1" data-name="Layer 1" xmlns="http://www.w3.org/2000/svg" viewBox="0 0 386.05 669.41"><defs><style>.cls-1{fill:none;}.cls-2,.cls-5{fill:#0849b2;stroke:#0849b2;}.cls-15,.cls-2,.cls-3{stroke-miterlimit:10;}.cls-3,.cls-6{fill:#185adb;}.cls-15,.cls-3,.cls-6{stroke:#185adb;}.cls-11,.cls-12,.cls-14,.cls-15,.cls-17,.cls-22,.cls-4{fill:none;}.cls-10,.cls-22,.cls-4{stroke:#fff;}.cls-10,.cls-11,.cls-12,.cls-13,.cls-14,.cls-17,.cls-21,.cls-22,.cls-4,.cls-5,.cls-6,.cls-8{stroke-linecap:round;stroke-linejoin:round;}.cls-4{stroke-width:10px;}.cls-10,.cls-20,.cls-7{fill:#fff;}.cls-8{fill:#68ccd8;}.cls-17,.cls-8{stroke:#68ccd8;}.cls-9{fill:#e5a843;}.cls-11{stroke:#010431;}.cls-12{stroke:#f8f9ff;}.cls-13{fill:#cddeff;stroke:#cddeff;}.cls-14{stroke:#ffc729;stroke-width:0.75px;}.cls-14,.cls-15{stroke-dasharray:4;}.cls-16{fill:#e566f2;}.cls-18,.cls-21{fill:#ff5050;}.cls-19{fill:#faafff;}.cls-20{font-size:15.28px;font-family:MyriadPro-Regular, Myriad Pro;}.cls-21{stroke:#ff5050;stroke-width:2.46px;}.cls-22{stroke-width:2px;}</style></defs><rect class="cls-1" width="386.05" height="669.41"/><path class="cls-2" d="M72.71,151.11a12.35,12.35,0,0,0-12.35,12.36V182.3a2.55,2.55,0,0,1-.75,1.8,2.52,2.52,0,0,1-1.8.74A18.14,18.14,0,0,0,39.68,203v39.37a18.14,18.14,0,0,0,18.14,18.14h16.8a10.77,10.77,0,0,1,10.76,10.77v27.32a9.78,9.78,0,0,1-9.83,9.79,9.91,9.91,0,0,0-9.75,10v80.9a17.91,17.91,0,0,0,17.91,17.92H136.1A17.29,17.29,0,0,0,153.39,400a8.12,8.12,0,0,1,8.06-8.18H206.5a8.06,8.06,0,0,1,8.06,8.06v12.31a8.26,8.26,0,0,0,8.26,8.26h81.42a8.26,8.26,0,0,0,8.26-8.26v-2.44a9.23,9.23,0,0,1,9.23-9.23h6.16a11.28,11.28,0,0,0,11.28-11.27v-49a11.28,11.28,0,0,0-11.27-11.27H286.7a7.62,7.62,0,0,1-7.62-7.62v-3.26a7.62,7.62,0,0,1,7.62-7.62h0a7.62,7.62,0,0,0,7.62-7.62v-25a7.62,7.62,0,0,0-7.62-7.62H265.21a1.35,1.35,0,0,1-1.36-1.35v-4.36a1.36,1.36,0,0,1,1.36-1.36h0a19.32,19.32,0,0,0,19.31-19.31V179.41a18,18,0,0,0-17.95-18h-30a4.28,4.28,0,0,1-4.28-4.27V141.24A4.28,4.28,0,0,0,228,137H216.11a4.28,4.28,0,0,0-4.27,4.28V143a4.27,4.27,0,0,1-4.27,4.27H177.81a4.27,4.27,0,0,1-4.28-4.27h0a19.66,19.66,0,0,0-19.66-19.67H108.94a15.39,15.39,0,0,0-15.39,15.39h0a12.36,12.36,0,0,1-12.36,12.36Z"/><path class="cls-3" d="M72.94,99.6h40.54a12.68,12.68,0,0,1,12.68,12.68v48.31a0,0,0,0,1,0,0H60.26a0,0,0,0,1,0,0V112.28A12.68,12.68,0,0,1,72.94,99.6Z"/><path class="cls-3" d="M151.34,108.82h13a8.58,8.58,0,0,1,8.58,8.58v52.41a0,0,0,0,1,0,0H142.76a0,0,0,0,1,0,0V117.4A8.58,8.58,0,0,1,151.34,108.82Z"/><path class="cls-3" d="M72.71,146.11a12.35,12.35,0,0,0-12.35,12.36V177.3a2.55,2.55,0,0,1-.75,1.8,2.52,2.52,0,0,1-1.8.74A18.14,18.14,0,0,0,39.68,198v39.37a18.14,18.14,0,0,0,18.14,18.14h16.8a10.77,10.77,0,0,1,10.76,10.77v27.32a9.78,9.78,0,0,1-9.83,9.79,9.91,9.91,0,0,0-9.75,10v80.9a17.91,17.91,0,0,0,17.91,17.92H136.1A17.29,17.29,0,0,0,153.39,395a8.12,8.12,0,0,1,8.06-8.18H206.5a8.06,8.06,0,0,1,8.06,8.06v12.31a8.26,8.26,0,0,0,8.26,8.26h81.42a8.26,8.26,0,0,0,8.26-8.26v-2.44a9.23,9.23,0,0,1,9.23-9.23h6.16a11.28,11.28,0,0,0,11.28-11.27v-49a11.27,11.27,0,0,0-11.27-11.27H286.7a7.62,7.62,0,0,1-7.62-7.62v-3.26a7.62,7.62,0,0,1,7.62-7.62h0a7.62,7.62,0,0,0,7.62-7.62v-25a7.62,7.62,0,0,0-7.62-7.62H265.21a1.36,1.36,0,0,1-1.36-1.36v-4.35a1.36,1.36,0,0,1,1.36-1.36h0a19.32,19.32,0,0,0,19.31-19.31V174.41a18,18,0,0,0-17.95-18h-30a4.28,4.28,0,0,1-4.28-4.27V136.24A4.28,4.28,0,0,0,228,132H216.11a4.28,4.28,0,0,0-4.27,4.28V138a4.27,4.27,0,0,1-4.27,4.27H177.81a4.27,4.27,0,0,1-4.28-4.27h0a19.66,19.66,0,0,0-19.66-19.67H108.94a15.39,15.39,0,0,0-15.39,15.39h0a12.36,12.36,0,0,1-12.36,12.36Z"/><path class="cls-4" d="M294.32,416V369.14A11.36,11.36,0,0,0,283,357.78H269.76a11.35,11.35,0,0,1-11.35-11.35v-11a11.36,11.36,0,0,0-11.36-11.35H137a11.35,11.35,0,0,0-11.35,11.35v8.31A11.35,11.35,0,0,0,137,355.06h22.45a11.36,11.36,0,0,0,11.36-11.35v-66a11.37,11.37,0,0,0-11.36-11.36h-1.77a11.37,11.37,0,0,0-11.36,11.36v12.11a11.37,11.37,0,0,0,11.36,11.36h72.51a11.36,11.36,0,0,0,11.35-11.36V230.39A11.35,11.35,0,0,0,230.19,219H180a11.36,11.36,0,0,1-11.35-11.36v-9.94a11.35,11.35,0,0,0-11.35-11.35h-36.6a11.36,11.36,0,0,0-11.36,11.35v3.41A11.36,11.36,0,0,1,98,212.51h-.69a11.36,11.36,0,0,1-11.35-11.36V179.79a11.36,11.36,0,0,1,11.35-11.36H141.5a11.35,11.35,0,0,0,11.35-11.35V118.36"/><line class="cls-4" x1="241.54" y1="234.82" x2="241.54" y2="156.46"/><rect class="cls-5" x="326.34" y="196.26" width="18.34" height="10.42" rx="5.21"/><rect class="cls-6" x="326.34" y="193.26" width="18.34" height="10.42" rx="5.21"/><rect class="cls-5" x="310.91" y="221.12" width="16.32" height="5.99" rx="2.99"/><path class="cls-5" d="M58.13,285.08v8.17a4.35,4.35,0,0,1-4.35,4.35h0A4.35,4.35,0,0,0,49.43,302v9.79a4.36,4.36,0,0,1-4.36,4.36H35.82a4.36,4.36,0,0,1-4.35-4.36V285.08a4.35,4.35,0,0,1,4.35-4.35h18A4.35,4.35,0,0,1,58.13,285.08Z"/><path class="cls-6" d="M58.13,281.08v8.16a4.36,4.36,0,0,1-4.35,4.36h0A4.35,4.35,0,0,0,49.43,298v9.79a4.36,4.36,0,0,1-4.36,4.36H35.82a4.36,4.36,0,0,1-4.35-4.36V281.08a4.35,4.35,0,0,1,4.35-4.35h18A4.35,4.35,0,0,1,58.13,281.08Z"/><line class="cls-4" x1="125.65" y1="340.37" x2="125.65" y2="412.49"/><path class="cls-7" d="M112.56,485.68a5.37,5.37,0,0,1,10.73,0"/><path class="cls-7" d="M125.49,469.69a5.36,5.36,0,0,1,10.72,0"/><path class="cls-7" d="M140.45,489.6a5.37,5.37,0,0,1,10.73,0"/><path class="cls-7" d="M106.63,473.5a5.37,5.37,0,0,1,10.73,0"/><path class="cls-7" d="M277.67,131.58a5.94,5.94,0,0,1,11.88,0"/><path class="cls-7" d="M304.49,114.22a5.94,5.94,0,1,1,11.87,0"/><path class="cls-7" d="M276.08,110.54a5.94,5.94,0,0,1,11.87,0"/><path class="cls-7" d="M93.27,91a5.56,5.56,0,0,1,11.12,0"/><path class="cls-7" d="M132.07,84.05a5.56,5.56,0,1,1,11.11,0"/><path class="cls-7" d="M113,72.27a5.56,5.56,0,0,1,11.11,0"/><path class="cls-7" d="M81.25,65.75a5.56,5.56,0,1,1,11.11,0"/><path class="cls-7" d="M103.83,55.82a5.56,5.56,0,0,1,11.12,0"/><path class="cls-7" d="M126.23,239a5.6,5.6,0,1,1,11.19,0"/><path class="cls-7" d="M138.54,233a5.6,5.6,0,0,1,11.19,0"/><path class="cls-7" d="M124.15,228.88a5.6,5.6,0,1,1,11.19,0"/><path class="cls-7" d="M78.84,380.94a5.6,5.6,0,0,1,11.2,0"/><path class="cls-7" d="M91.15,374.94a5.6,5.6,0,0,1,11.2,0"/><path class="cls-7" d="M76.77,370.79a5.6,5.6,0,1,1,11.19,0"/><path class="cls-7" d="M256.47,204.18a4.81,4.81,0,1,1,9.62,0"/><path class="cls-7" d="M267.05,199a4.81,4.81,0,1,1,9.62,0"/><path class="cls-7" d="M254.68,195.45a4.81,4.81,0,1,1,9.62,0"/><circle class="cls-8" cx="61.53" cy="452.74" r="2.74"/><circle class="cls-9" cx="274.67" cy="474.09" r="2.74"/><circle class="cls-10" cx="35.86" cy="430.28" r="0.75"/><circle class="cls-9" cx="77.82" cy="427.86" r="0.75"/><circle class="cls-8" cx="317.68" cy="101.03" r="0.65"/><circle class="cls-8" cx="59.7" cy="82.63" r="0.75"/><circle class="cls-10" cx="308.71" cy="510.1" r="0.75"/><circle class="cls-9" cx="273.38" cy="96.17" r="0.65"/><circle class="cls-10" cx="301.77" cy="137.12" r="0.65"/><circle class="cls-10" cx="223.27" cy="488.79" r="0.75"/><circle class="cls-10" cx="238.89" cy="538.16" r="0.75"/><circle class="cls-10" cx="100.35" cy="21.28" r="0.75"/><rect class="cls-8" x="101.76" y="374.47" width="14.23" height="24.79" rx="7.12"/><line class="cls-11" x1="108.8" y1="383.8" x2="108.8" y2="413.19"/><line class="cls-11" x1="111.55" y1="386.56" x2="108.87" y2="389.24"/><line class="cls-11" x1="108.8" y1="392.38" x2="106.2" y2="389.77"/><line class="cls-11" x1="111.55" y1="394.67" x2="108.87" y2="397.35"/><rect class="cls-8" x="266.7" y="303" width="17.58" height="30.62" rx="8.79"/><line class="cls-11" x1="275.4" y1="314.53" x2="275.4" y2="350.82"/><line class="cls-11" x1="278.8" y1="317.93" x2="275.49" y2="321.24"/><line class="cls-11" x1="275.4" y1="325.11" x2="272.18" y2="321.9"/><line class="cls-11" x1="278.8" y1="327.95" x2="275.49" y2="331.26"/><rect class="cls-8" x="116.33" y="124.68" width="14.23" height="24.79" rx="7.12"/><line class="cls-11" x1="123.37" y1="134.01" x2="123.37" y2="163.4"/><line class="cls-11" x1="126.13" y1="136.77" x2="123.45" y2="139.44"/><line class="cls-11" x1="123.37" y1="142.58" x2="120.77" y2="139.98"/><line class="cls-11" x1="126.13" y1="144.88" x2="123.45" y2="147.56"/><rect class="cls-8" x="322.91" y="302.07" width="7.15" height="12.45" rx="3.57" transform="translate(330.36 -140.73) rotate(47.14)"/><rect class="cls-8" x="178.36" y="102.15" width="14.23" height="24.79" rx="7.12"/><line class="cls-12" x1="185.4" y1="111.49" x2="185.4" y2="140.87"/><line class="cls-12" x1="188.16" y1="114.24" x2="185.48" y2="116.92"/><line class="cls-12" x1="185.4" y1="120.06" x2="182.8" y2="117.46"/><line class="cls-12" x1="188.16" y1="122.36" x2="185.48" y2="125.03"/><rect class="cls-8" x="106.96" y="142.86" width="7.6" height="13.24" rx="3.8"/><line class="cls-11" x1="110.72" y1="147.85" x2="110.72" y2="163.54"/><line class="cls-11" x1="112.19" y1="149.32" x2="110.76" y2="150.75"/><line class="cls-11" x1="110.72" y1="152.42" x2="109.33" y2="151.03"/><line class="cls-11" x1="112.19" y1="153.65" x2="110.76" y2="155.08"/><rect class="cls-8" x="219.42" y="275" width="7.6" height="13.24" rx="3.8"/><line class="cls-11" x1="223.18" y1="279.99" x2="223.18" y2="295.68"/><line class="cls-11" x1="224.65" y1="281.46" x2="223.22" y2="282.89"/><line class="cls-11" x1="223.18" y1="284.56" x2="221.79" y2="283.17"/><line class="cls-11" x1="224.65" y1="285.79" x2="223.22" y2="287.22"/><path class="cls-13" d="M118.72,324.28a5.53,5.53,0,0,1-5.53,5.53H86.47a5.54,5.54,0,0,1,0-11.07h.69a8.53,8.53,0,0,1,8.43-7.17,8.43,8.43,0,0,1,3.91.95,8.54,8.54,0,0,1,14.56,6.07v.22a5.53,5.53,0,0,1,4.66,5.47Z"/><path class="cls-13" d="M306.91,180.36a5.52,5.52,0,0,1-5.53,5.53H274.67a5.53,5.53,0,1,1,0-11.06h.68a8.56,8.56,0,0,1,12.35-6.23,8.55,8.55,0,0,1,14.56,6.08,1.7,1.7,0,0,1,0,.22,5.51,5.51,0,0,1,4.66,5.46Z"/><path class="cls-13" d="M356.73,360.65a5.53,5.53,0,0,1-5.53,5.53H324.48a5.53,5.53,0,0,1,0-11.06h.69a8.53,8.53,0,0,1,12.34-6.23A8.55,8.55,0,0,1,352.07,355v.22a5.55,5.55,0,0,1,4.66,5.47Z"/><path class="cls-13" d="M60.2,213.57a5.53,5.53,0,0,1-5.53,5.54H28A5.54,5.54,0,1,1,28,208h.68A8.56,8.56,0,0,1,41,201.81a8.55,8.55,0,0,1,14.56,6.08,1.62,1.62,0,0,1,0,.22,5.51,5.51,0,0,1,4.66,5.46Z"/><rect class="cls-6" x="310.91" y="218.12" width="16.32" height="5.99" rx="2.99"/><line class="cls-14" x1="273.72" y1="26.26" x2="273.72" y2="48.28"/><line class="cls-14" x1="273.72" y1="69.18" x2="273.72" y2="91.2"/><line class="cls-14" x1="306.19" y1="57.6" x2="284.17" y2="57.6"/><line class="cls-14" x1="263.27" y1="57.6" x2="241.25" y2="57.6"/><line class="cls-14" x1="304.05" y1="45.19" x2="283.86" y2="53.99"/><line class="cls-14" x1="264.71" y1="62.34" x2="244.52" y2="71.14"/><line class="cls-14" x1="287.5" y1="29.63" x2="278.54" y2="49.75"/><line class="cls-14" x1="270.03" y1="68.84" x2="261.07" y2="88.95"/><line class="cls-14" x1="297.96" y1="37.07" x2="281.9" y2="52.14"/><line class="cls-14" x1="266.67" y1="66.44" x2="250.61" y2="81.52"/><line class="cls-14" x1="269.47" y1="45.55" x2="259.02" y2="26.16"/><line class="cls-14" x1="265.98" y1="49.06" x2="248.65" y2="35.46"/><line class="cls-14" x1="263.29" y1="52.73" x2="242.41" y2="45.74"/><line class="cls-14" x1="278.49" y1="68.48" x2="289.12" y2="87.77"/><line class="cls-14" x1="281.95" y1="64.94" x2="299.4" y2="78.37"/><line class="cls-14" x1="284.6" y1="61.24" x2="305.55" y2="68.03"/><line class="cls-14" x1="118.7" y1="547.67" x2="118.7" y2="569.7"/><line class="cls-14" x1="118.7" y1="590.59" x2="118.7" y2="612.61"/><line class="cls-14" x1="151.17" y1="579.01" x2="129.15" y2="579.01"/><line class="cls-14" x1="108.25" y1="579.01" x2="86.23" y2="579.01"/><line class="cls-14" x1="149.03" y1="566.6" x2="128.84" y2="575.4"/><line class="cls-14" x1="109.69" y1="583.75" x2="89.5" y2="592.55"/><line class="cls-14" x1="132.48" y1="551.05" x2="123.52" y2="571.16"/><line class="cls-14" x1="115.01" y1="590.25" x2="106.05" y2="610.37"/><line class="cls-14" x1="142.94" y1="558.48" x2="126.88" y2="573.56"/><line class="cls-14" x1="111.65" y1="587.86" x2="95.59" y2="602.93"/><line class="cls-14" x1="114.45" y1="566.96" x2="104.01" y2="547.57"/><line class="cls-14" x1="110.96" y1="570.47" x2="93.63" y2="556.87"/><line class="cls-14" x1="108.27" y1="574.14" x2="87.39" y2="567.16"/><line class="cls-14" x1="123.47" y1="589.9" x2="134.1" y2="609.18"/><line class="cls-14" x1="126.93" y1="586.35" x2="144.38" y2="599.78"/><line class="cls-14" x1="129.58" y1="582.65" x2="150.53" y2="589.44"/><line class="cls-15" x1="197.88" y1="28.87" x2="197.88" y2="44.75"/><line class="cls-15" x1="197.88" y1="59.82" x2="197.88" y2="75.7"/><line class="cls-15" x1="221.29" y1="51.47" x2="205.41" y2="51.47"/><line class="cls-15" x1="190.35" y1="51.47" x2="174.46" y2="51.47"/><line class="cls-15" x1="219.75" y1="42.52" x2="205.19" y2="48.87"/><line class="cls-15" x1="191.38" y1="54.89" x2="176.82" y2="61.24"/><line class="cls-15" x1="207.81" y1="31.31" x2="201.35" y2="45.81"/><line class="cls-15" x1="195.22" y1="59.57" x2="188.76" y2="74.08"/><line class="cls-15" x1="215.36" y1="36.67" x2="203.78" y2="47.54"/><line class="cls-15" x1="192.79" y1="57.85" x2="181.22" y2="68.72"/><line class="cls-15" x1="194.81" y1="42.78" x2="187.28" y2="28.8"/><line class="cls-15" x1="192.3" y1="45.31" x2="179.8" y2="35.51"/><line class="cls-15" x1="190.36" y1="47.96" x2="175.3" y2="42.92"/><line class="cls-15" x1="201.32" y1="59.32" x2="208.98" y2="73.23"/><line class="cls-15" x1="203.81" y1="56.76" x2="216.4" y2="66.45"/><line class="cls-15" x1="205.72" y1="54.1" x2="220.83" y2="58.99"/><line class="cls-8" x1="320.93" y1="323.02" x2="320.93" y2="298"/><path class="cls-16" d="M322.18,267.22a1.16,1.16,0,0,0-1.39,0,4.66,4.66,0,0,0-.93,6.52,4.83,4.83,0,0,1,1-1,1,1,0,0,1,1.25,0,4.83,4.83,0,0,1,1,1,4.66,4.66,0,0,0-.93-6.52Z"/><path class="cls-16" d="M316.13,276.28l0,0a4.64,4.64,0,0,1-1.32-3.95,1.17,1.17,0,0,1,1-1,4.64,4.64,0,0,1,3.22.72l.1.06a4.49,4.49,0,0,0,.23,4.37l0,0,0,.06,0,.06,0,.05a2.13,2.13,0,0,0-.23.42,2.4,2.4,0,0,0-.11.23s0,.09-.05.13v0a.16.16,0,0,0,0,.08h-.12"/><path class="cls-16" d="M323.4,277.58h-.13a2.34,2.34,0,0,0-.09-.24,2.29,2.29,0,0,0-.1-.23,4.16,4.16,0,0,0-.23-.42l0-.05,0-.06,0-.06,0,0a4.61,4.61,0,0,0,.68-2.4,4.43,4.43,0,0,0-.45-2l.1-.07a4.6,4.6,0,0,1,3.21-.72,1.16,1.16,0,0,1,1,1,4.66,4.66,0,0,1-1.31,3.95l0,0"/><path class="cls-16" d="M322.85,276.69l.07-.11a4.63,4.63,0,0,0,.72-2.5,4.52,4.52,0,0,0-.47-2,4.65,4.65,0,0,0-1.39-1.69,1.16,1.16,0,0,0-1.39,0,4.65,4.65,0,0,0-1.13,6.22l.06.11"/><path class="cls-16" d="M318.89,282.59l-.11,0"/><path class="cls-16" d="M319.33,281.47a4.49,4.49,0,0,1-.69-2.39,4.71,4.71,0,0,1,.25-1.49h0a.16.16,0,0,1,0-.08.06.06,0,0,1,0,0s0-.09.05-.13a2.4,2.4,0,0,1,.11-.23L319,277a4.68,4.68,0,0,0-2.87-.76l-.35,0a1.18,1.18,0,0,0-1,1,4.64,4.64,0,0,0,1.32,3.94l0,0"/><path class="cls-16" d="M323.4,282.57l-.12,0"/><path class="cls-16" d="M322.85,281.47a4.48,4.48,0,0,0,.68-2.39,4.71,4.71,0,0,0-.25-1.49h0a1.17,1.17,0,0,0-.09-.24c0-.08-.07-.15-.1-.23l.09-.07a4.71,4.71,0,0,1,2.87-.76l.35,0a1.16,1.16,0,0,1,1,1,4.63,4.63,0,0,1-1.31,3.94l0,0"/><path class="cls-16" d="M323.64,279.08a4.57,4.57,0,0,1-.66,2.38.75.75,0,0,1-.07.12l-.06.1h-3.52l-.07-.1-.07-.12a4.62,4.62,0,0,1-.41-3.88A3.6,3.6,0,0,1,319,277a3,3,0,0,1,.26-.46l.06-.11a4.69,4.69,0,0,1,1.07-1.11,1.16,1.16,0,0,1,1.39,0,4.55,4.55,0,0,1,1.07,1.12.61.61,0,0,0,.07.1,4.09,4.09,0,0,1,.25.46,3.65,3.65,0,0,1,.23.54A4.62,4.62,0,0,1,323.64,279.08Z"/><path class="cls-16" d="M319.39,286.57l0,.06,0,0v-.21l0,.05Z"/><path class="cls-16" d="M319.1,282.1l-.31.43h0l-2.65,3.74,0,0a4.67,4.67,0,0,1-1.32-3.95,1.19,1.19,0,0,1,1-1l.36,0A4.63,4.63,0,0,1,319,282Z"/><path class="cls-16" d="M319.33,286.67h0a4.49,4.49,0,0,0-.24.42h0c0,.07-.07.15-.1.23l-.06.17a.13.13,0,0,0,0,.08h-.12"/><path class="cls-16" d="M323.28,287.58h0a2.6,2.6,0,0,0-.1-.25,1.6,1.6,0,0,0-.1-.23h0c-.07-.14-.15-.28-.23-.42l0,0,0-.06,0-.06,0-.05.06.12.23.47.26.52Z"/><path class="cls-16" d="M326.07,286.25l0,0-2.66-3.74h0l-.3-.43.09-.06a4.56,4.56,0,0,1,1.7-.69,4.61,4.61,0,0,1,1.17-.07l.35,0a1.17,1.17,0,0,1,1,1A4.66,4.66,0,0,1,326.07,286.25Z"/><path class="cls-16" d="M323.53,284.07a4.46,4.46,0,0,1-.68,2.39,4.93,4.93,0,0,0-1.07-1.12,1.16,1.16,0,0,0-1.39,0,4.69,4.69,0,0,0-1.06,1.12,4.49,4.49,0,0,1-.69-2.39,4.6,4.6,0,0,1,.25-1.48h0a.16.16,0,0,1,0-.09.06.06,0,0,1,0,0s0-.08.05-.13l.11-.23a2.91,2.91,0,0,1,.23-.42h0l0,0,0-.07,0-.06,0,0a4.51,4.51,0,0,1,1.06-1.12,1.16,1.16,0,0,1,1.39,0,4.55,4.55,0,0,1,1.07,1.12l0,0,0,.07,0,.06,0,0c.08.13.16.28.23.42s0,0,0,0l0,0c0,.05.05.11.08.17l.09.25A4.6,4.6,0,0,1,323.53,284.07Z"/><path class="cls-16" d="M319.26,281.58a2.59,2.59,0,0,0-.26.46,4.49,4.49,0,0,0-1.7-.69l1.89.11Z"/><path class="cls-16" d="M319.35,286.51l0,.06,0,.06,0,0a.61.61,0,0,1-.07-.1,4.64,4.64,0,0,1-.48-4s0,0,0,0h0A4.25,4.25,0,0,1,319,282a2.59,2.59,0,0,1,.26-.46.41.41,0,0,1,.07-.11l0,0,0,.06,0,.07,0,0h0a2.91,2.91,0,0,0-.23.42l-.11.23c0,.05,0,.09-.05.13a.06.06,0,0,0,0,0,.16.16,0,0,0,0,.09h0a4.6,4.6,0,0,0-.25,1.48,4.49,4.49,0,0,0,.69,2.39Z"/><path class="cls-16" d="M324.87,281.35a4.56,4.56,0,0,0-1.7.69,2.59,2.59,0,0,0-.26-.46.75.75,0,0,0,.07-.12Z"/><path class="cls-16" d="M323.64,284.07a4.63,4.63,0,0,1-.72,2.5h0l-.06.09,0,0,0-.06,0-.06,0-.05a4.46,4.46,0,0,0,.68-2.39,4.6,4.6,0,0,0-.25-1.48l-.09-.25c0-.06-.05-.12-.08-.17l0,0s0,0,0,0-.15-.29-.23-.42l0,0,0-.06,0-.07,0,0,.06.11a2.59,2.59,0,0,1,.26.46,3.61,3.61,0,0,1,.21.49h0s0,0,0,0A4.67,4.67,0,0,1,323.64,284.07Z"/><path class="cls-16" d="M319.39,291.56l0,.06,0,.05a2.13,2.13,0,0,0-.23.42,1.63,1.63,0,0,0-.11.23h0s0,.09-.05.13a.06.06,0,0,0,0,0,.26.26,0,0,0,0,.08h-.12l-2.64-1.29,0,0a4.66,4.66,0,0,1-1.32-3.95,1.17,1.17,0,0,1,1-1l.36,0A4.67,4.67,0,0,1,319,287l.07.05h0a1.63,1.63,0,0,0-.11.23l-.06.17a.13.13,0,0,0,0,.08h0a4.66,4.66,0,0,0-.25,1.49,4.52,4.52,0,0,0,.69,2.39l0,0Z"/><path class="cls-16" d="M326.07,291.24l0,0a4.64,4.64,0,0,0-2.87.75c.09.18.16.36.23.54h-.13a1.17,1.17,0,0,0-.09-.24c0-.08-.07-.15-.1-.23a3.62,3.62,0,0,0-.24-.43s0,0,0,0l0-.06,0-.06a.08.08,0,0,0,0,0h0a4.51,4.51,0,0,0,.68-2.39,4.66,4.66,0,0,0-.25-1.49h0a2.6,2.6,0,0,0-.1-.25c0-.08-.07-.16-.1-.23h0l.06,0h0l0,0a4.71,4.71,0,0,1,2.87-.76l.35,0a1.15,1.15,0,0,1,1,1A4.65,4.65,0,0,1,326.07,291.24Z"/><path class="cls-16" d="M326,286.27a4.71,4.71,0,0,0-2.87.76,3.37,3.37,0,0,0-.25-.46,4.74,4.74,0,0,0,.48-4s0,0,0,0Z"/><path class="cls-16" d="M323.64,289.07a4.54,4.54,0,0,1-.73,2.49.36.36,0,0,1-.07.1v-5l0,0,0-.06,0-.06,0-.05.07.11a3.37,3.37,0,0,1,.25.46,3.25,3.25,0,0,1,.23.54A4.58,4.58,0,0,1,323.64,289.07Z"/><path class="cls-16" d="M319.26,286.57a2.59,2.59,0,0,0-.26.46,4.67,4.67,0,0,0-2.86-.76l2.65-3.74s0,0,0,0a4.64,4.64,0,0,0,.48,4Z"/><path class="cls-16" d="M319.39,286.57l0,.06,0,0v5l-.07-.11a4.62,4.62,0,0,1-.48-4A3.21,3.21,0,0,1,319,287a2.59,2.59,0,0,1,.26-.46l.07-.11,0,.05Z"/><path class="cls-16" d="M318.64,294.06a4.45,4.45,0,0,1,.46-2,4.67,4.67,0,0,0-3.32-.79,1.18,1.18,0,0,0-1,1,4.66,4.66,0,0,0,5.26,5.26l.19,0A4.5,4.5,0,0,1,318.64,294.06Z"/><path class="cls-16" d="M326.07,296.23a4.64,4.64,0,0,1-3.95,1.32h-.05l-.13,0a4.53,4.53,0,0,0,1.59-3.45,4.71,4.71,0,0,0-.25-1.49h0a1.17,1.17,0,0,0-.09-.24c0-.08-.07-.15-.1-.23l.09-.07c.09.18.16.36.23.54l2.64-1.29a2,2,0,0,1,.35,0,1.16,1.16,0,0,1,1,1A4.63,4.63,0,0,1,326.07,296.23Z"/><path class="cls-16" d="M322.82,286.63l0,0v4.78a4.46,4.46,0,0,0-1.06-1.11,1.16,1.16,0,0,0-1.39,0,4.34,4.34,0,0,0-1.06,1.12v-4.79l0,0,0-.06,0-.06,0-.05a4.69,4.69,0,0,1,1.06-1.12,1.16,1.16,0,0,1,1.39,0,4.93,4.93,0,0,1,1.07,1.12l0,.05,0,.06Z"/><path class="cls-16" d="M326,291.27l-2.64,1.29c-.07-.18-.14-.36-.23-.54A4.64,4.64,0,0,1,326,291.27Z"/><path class="cls-16" d="M323.64,294.06a4.61,4.61,0,0,1-1.57,3.48l-.29.24a1.16,1.16,0,0,1-1.39,0l-.29-.24a4.64,4.64,0,0,1-1.32-5A4.08,4.08,0,0,1,319,292h0a3,3,0,0,1,.26-.46.36.36,0,0,1,.07-.1,4.34,4.34,0,0,1,1.06-1.12,1.16,1.16,0,0,1,1.39,0,4.46,4.46,0,0,1,1.06,1.11h0l.06.1a3,3,0,0,1,.26.46c.09.18.16.36.23.54A4.62,4.62,0,0,1,323.64,294.06Z"/><path class="cls-16" d="M319.33,277.09a.36.36,0,0,1-.07-.1,4.63,4.63,0,0,1-.26-4.53,4.57,4.57,0,0,1,1.39-1.69,1.16,1.16,0,0,1,1.39,0,4.69,4.69,0,0,1,1.4,1.69,4.63,4.63,0,0,1-.26,4.53.86.86,0,0,1-.07.1"/><path class="cls-16" d="M319.33,282.09h0a.61.61,0,0,1-.07-.1,4.1,4.1,0,0,1-.73-2.33,4,4,0,0,1,.25-1.39,3.16,3.16,0,0,1,.22-.5,3.07,3.07,0,0,1,.26-.43.36.36,0,0,1,.07-.1,4.2,4.2,0,0,1,1.06-1,1.22,1.22,0,0,1,1.39,0,4.41,4.41,0,0,1,1.07,1,.86.86,0,0,1,.07.1,4.06,4.06,0,0,1,.48.93,4,4,0,0,1-.49,3.72.53.53,0,0,1-.06.1"/><path class="cls-16" d="M319.33,292h0a.61.61,0,0,1-.07-.1,4,4,0,0,1-.73-2.31,4,4,0,0,1,.25-1.38,3.16,3.16,0,0,1,.22-.5,3,3,0,0,1,.26-.42.36.36,0,0,1,.07-.1,4,4,0,0,1,1.06-1,1.22,1.22,0,0,1,1.39,0,4.2,4.2,0,0,1,1.07,1,.86.86,0,0,1,.07.1,4.28,4.28,0,0,1,.26.42,4.46,4.46,0,0,1,.22.5,4,4,0,0,1-.49,3.69.53.53,0,0,1-.06.1"/><path class="cls-16" d="M323.65,284.62a4.2,4.2,0,0,1-.73,2.36.86.86,0,0,1-.07.1l0,0,0-.06,0-.06,0,0a4.45,4.45,0,0,0-1.07-1.05,1.19,1.19,0,0,0-1.39,0,4.41,4.41,0,0,0-1.06,1.05s0,0,0,0l0,.06,0,.06s0,0,0,0a.36.36,0,0,1-.07-.1,4.17,4.17,0,0,1-.48-3.78,3.16,3.16,0,0,1,.22-.5,3.91,3.91,0,0,1,.26-.44.61.61,0,0,1,.07-.1,4.41,4.41,0,0,1,1.06-1.05,1.19,1.19,0,0,1,1.39,0,4.45,4.45,0,0,1,1.07,1.05s0,.07.06.1a4,4,0,0,1,.27.44,3.92,3.92,0,0,1,.22.51A4.1,4.1,0,0,1,323.65,284.62Z"/><path class="cls-16" d="M323.64,294.29a4,4,0,0,1-1.57,3.13,3.06,3.06,0,0,1-.29.21,1.26,1.26,0,0,1-1.39,0,3.06,3.06,0,0,1-.29-.21,4,4,0,0,1-1.57-3.13,3.81,3.81,0,0,1,.25-1.35,2.62,2.62,0,0,1,.22-.48,2.65,2.65,0,0,1,.26-.42l.07-.09a4.09,4.09,0,0,1,1.06-1,1.26,1.26,0,0,1,1.39,0,4.3,4.3,0,0,1,1.07,1l.06.09a2.65,2.65,0,0,1,.26.42,3.54,3.54,0,0,1,.23.48A3.8,3.8,0,0,1,323.64,294.29Z"/><rect class="cls-8" x="217.12" y="192.89" width="7.15" height="12.45" rx="3.57" transform="translate(216.51 -98.1) rotate(47.14)"/><line class="cls-8" x1="215.15" y1="213.84" x2="215.15" y2="188.82"/><path class="cls-16" d="M216.39,158a1.16,1.16,0,0,0-1.39,0,4.64,4.64,0,0,0-1.86,3.72,4.58,4.58,0,0,0,.94,2.8,4.77,4.77,0,0,1,1-1,1.08,1.08,0,0,1,.63-.21,1.11,1.11,0,0,1,.63.21,4.77,4.77,0,0,1,1,1,4.58,4.58,0,0,0,.94-2.8,4.65,4.65,0,0,0-1.87-3.72Z"/><path class="cls-16" d="M210.35,167.11l0,0a4.64,4.64,0,0,1-1.32-3.94,1.18,1.18,0,0,1,1-1,4.67,4.67,0,0,1,3.22.72l.1.07a4.45,4.45,0,0,0-.46,2,4.52,4.52,0,0,0,.69,2.39l0,0,0,.06,0,.06,0,0a4.36,4.36,0,0,0-.23.42c0,.08-.07.16-.11.23s0,.09,0,.13,0,0,0,0l0,.09h0l-.12,0"/><path class="cls-16" d="M217.61,168.4l-.12,0v0a2.44,2.44,0,0,0-.1-.24c0-.07-.06-.15-.1-.23s-.15-.28-.23-.42l0,0,0-.07,0-.06,0,0a4.54,4.54,0,0,0,.23-4.36l.1-.07a4.67,4.67,0,0,1,3.22-.72,1.16,1.16,0,0,1,1,1,4.63,4.63,0,0,1-1.31,3.94l0,0"/><path class="cls-16" d="M217.06,167.51l.07-.11a4.6,4.6,0,0,0,.73-2.49,4.67,4.67,0,0,0-.47-2,4.82,4.82,0,0,0-1.39-1.68,1.17,1.17,0,0,0-1.4,0,4.62,4.62,0,0,0-1.39,1.68,4.67,4.67,0,0,0-.47,2,4.6,4.6,0,0,0,.73,2.49.41.41,0,0,0,.07.11"/><path class="cls-16" d="M213.11,173.41H213"/><path class="cls-16" d="M213.54,172.29a4.48,4.48,0,0,1-.68-2.39,4.34,4.34,0,0,1,.25-1.48h0l0-.09s0,0,0,0a.61.61,0,0,0,0-.12,2.56,2.56,0,0,1,.11-.24l-.1-.06a4.61,4.61,0,0,0-2.87-.76l-.35,0a1.15,1.15,0,0,0-1,1,4.63,4.63,0,0,0,1.31,4l0,0"/><path class="cls-16" d="M217.61,173.4h-.12"/><path class="cls-16" d="M217.06,172.3a4.52,4.52,0,0,0,.68-2.4,4.34,4.34,0,0,0-.25-1.48v0l-.09-.23-.11-.24.1-.06a4.6,4.6,0,0,1,2.86-.76l.36,0a1.15,1.15,0,0,1,1,1,4.66,4.66,0,0,1-1.31,4l0,0"/><path class="cls-16" d="M217.86,169.9a4.55,4.55,0,0,1-.67,2.39l-.06.11a.86.86,0,0,1-.07.1h-3.52a.36.36,0,0,1-.07-.1l-.07-.12a4.57,4.57,0,0,1-.66-2.38,4.67,4.67,0,0,1,.25-1.5,3.49,3.49,0,0,1,.22-.53,4.31,4.31,0,0,1,.26-.47.61.61,0,0,1,.07-.1,4.7,4.7,0,0,1,1.06-1.12,1.17,1.17,0,0,1,1.4,0,4.7,4.7,0,0,1,1.06,1.12l.07.1c.09.15.18.31.26.47a4.93,4.93,0,0,1,.22.53A4.67,4.67,0,0,1,217.86,169.9Z"/><path class="cls-16" d="M213.61,177.39l-.05.06,0,.05v-.21l0,0Z"/><path class="cls-16" d="M213.31,172.93l-.31.42h0l-2.65,3.75,0,0a4.62,4.62,0,0,1-1.31-3.94,1.15,1.15,0,0,1,1-1l.36,0a5,5,0,0,1,1.16.07,4.49,4.49,0,0,1,1.7.69Z"/><path class="cls-16" d="M213.54,177.5h0a2.82,2.82,0,0,0-.23.42h0l-.11.23-.06.17,0,.08H213"/><path class="cls-16" d="M217.49,178.41h0l-.09-.25c0-.07-.07-.15-.11-.23h0a4.16,4.16,0,0,0-.23-.42l0-.05,0-.06,0-.06,0,0,.06.12.23.47.26.51Z"/><path class="cls-16" d="M220.28,177.07l0,0-2.65-3.74h0l-.3-.42.1-.07a4.68,4.68,0,0,1,1.69-.69,5.11,5.11,0,0,1,1.17-.07l.36,0a1.15,1.15,0,0,1,1,1A4.65,4.65,0,0,1,220.28,177.07Z"/><path class="cls-16" d="M217.74,174.9a4.51,4.51,0,0,1-.68,2.39,4.7,4.7,0,0,0-1.06-1.12,1.17,1.17,0,0,0-1.4,0,4.7,4.7,0,0,0-1.06,1.12,4.51,4.51,0,0,1-.68-2.39,4.4,4.4,0,0,1,.25-1.49h0l0-.08s0,0,0,0a1.12,1.12,0,0,0,0-.13,1.63,1.63,0,0,1,.11-.23,2.55,2.55,0,0,1,.23-.43h0l0,0,.05-.06-.05-.06,0-.05a4.66,4.66,0,0,1,1.06-1.11,1.14,1.14,0,0,1,1.4,0,4.7,4.7,0,0,1,1.06,1.12l0,0,0,.06,0,.06,0,0c.08.14.16.28.23.43l0,0s0,0,0,0,.05.12.08.17l.09.25A4.44,4.44,0,0,1,217.74,174.9Z"/><path class="cls-16" d="M213.47,172.4a4.17,4.17,0,0,0-.26.46,4.49,4.49,0,0,0-1.7-.69l1.89.11Z"/><path class="cls-16" d="M213.56,177.33l.05.06-.05.06,0,.05-.07-.11a4.62,4.62,0,0,1-.48-4s0,0,0-.05h0a4.25,4.25,0,0,1,.21-.49,4.17,4.17,0,0,1,.26-.46l.07-.11,0,.05.05.06-.05.06,0,0h0a2.55,2.55,0,0,0-.23.43,1.63,1.63,0,0,0-.11.23,1.12,1.12,0,0,1,0,.13s0,0,0,0l0,.08h0a4.4,4.4,0,0,0-.25,1.49,4.51,4.51,0,0,0,.68,2.39Z"/><path class="cls-16" d="M219.08,172.17a4.68,4.68,0,0,0-1.69.69c-.08-.16-.17-.31-.26-.46l.06-.11Z"/><path class="cls-16" d="M217.86,174.9a4.63,4.63,0,0,1-.73,2.49v0l-.06.09,0-.05,0-.06,0-.06,0,0a4.51,4.51,0,0,0,.68-2.39,4.44,4.44,0,0,0-.25-1.49l-.09-.25s-.05-.11-.08-.17,0,0,0,0l0,0c-.07-.15-.15-.29-.23-.43l0,0,0-.06,0-.06,0,0a.86.86,0,0,1,.07.1c.09.15.18.3.26.46a3,3,0,0,1,.2.49h0s0,0,0,0A4.63,4.63,0,0,1,217.86,174.9Z"/><path class="cls-16" d="M213.61,182.38l-.05.07,0,0a2.91,2.91,0,0,0-.23.42l-.11.23h0a.61.61,0,0,1,0,.12s0,0,0,0l0,.09h0l-.12,0-2.64-1.29,0,0a4.6,4.6,0,0,1-1.31-3.94,1.16,1.16,0,0,1,1-1l.36,0a4.59,4.59,0,0,1,2.86.75l.08.05,0,0h0l-.11.23-.06.17,0,.09h0a4.34,4.34,0,0,0-.25,1.48,4.48,4.48,0,0,0,.68,2.39l0,0Z"/><path class="cls-16" d="M220.28,182.06l0,0a4.6,4.6,0,0,0-2.86.76,4.93,4.93,0,0,1,.22.53l-.12,0v0l-.09-.24c0-.07-.07-.15-.11-.23s-.15-.28-.23-.42l0,0,0-.07,0-.06,0,0h0a4.48,4.48,0,0,0,.68-2.39,4.34,4.34,0,0,0-.25-1.48h0l-.09-.25c0-.07-.07-.15-.11-.23h0l.06,0h0l0,0a4.59,4.59,0,0,1,2.86-.75l.36,0a1.16,1.16,0,0,1,1,1A4.63,4.63,0,0,1,220.28,182.06Z"/><path class="cls-16" d="M220.25,177.1a4.59,4.59,0,0,0-2.86.75c-.08-.16-.17-.31-.26-.46a4.62,4.62,0,0,0,.48-4s0,0,0,0Z"/><path class="cls-16" d="M217.86,179.89a4.6,4.6,0,0,1-.73,2.49l-.07.11v-5l0-.05,0-.06,0-.06,0,0a.86.86,0,0,1,.07.1c.09.15.18.3.26.46a5.09,5.09,0,0,1,.22.54A4.63,4.63,0,0,1,217.86,179.89Z"/><path class="cls-16" d="M213.47,177.39a4.17,4.17,0,0,0-.26.46,4.59,4.59,0,0,0-2.86-.75l2.65-3.75s0,0,0,.05a4.62,4.62,0,0,0,.48,4Z"/><path class="cls-16" d="M213.61,177.39l-.05.06,0,.05v5a.41.41,0,0,1-.07-.11,4.62,4.62,0,0,1-.48-4,3.6,3.6,0,0,1,.22-.54,4.17,4.17,0,0,1,.26-.46.36.36,0,0,1,.07-.1l0,0Z"/><path class="cls-16" d="M212.85,184.88a4.49,4.49,0,0,1,.46-2,4.66,4.66,0,0,0-3.32-.78,1.15,1.15,0,0,0-1,1,4.64,4.64,0,0,0,5.26,5.26l.18,0A4.47,4.47,0,0,1,212.85,184.88Z"/><path class="cls-16" d="M220.28,187.06a4.66,4.66,0,0,1-3.95,1.31h0a.32.32,0,0,1-.14,0,4.46,4.46,0,0,0,1.59-3.45,4.34,4.34,0,0,0-.25-1.48v0l-.09-.24c0-.07-.07-.15-.11-.23l.1-.06a4.93,4.93,0,0,1,.22.53l2.64-1.29.36,0a1.15,1.15,0,0,1,1,1A4.66,4.66,0,0,1,220.28,187.06Z"/><path class="cls-16" d="M217,177.45l0,.05v4.78a4.7,4.7,0,0,0-1.06-1.12,1.17,1.17,0,0,0-1.4,0,4.7,4.7,0,0,0-1.06,1.12V177.5l0-.05.05-.06-.05-.06,0,0a4.7,4.7,0,0,1,1.06-1.12,1.17,1.17,0,0,1,1.4,0,4.7,4.7,0,0,1,1.06,1.12l0,0,0,.06Z"/><path class="cls-16" d="M220.25,182.09l-2.64,1.29a4.93,4.93,0,0,0-.22-.53A4.6,4.6,0,0,1,220.25,182.09Z"/><path class="cls-16" d="M217.86,184.88a4.63,4.63,0,0,1-1.57,3.48,3.07,3.07,0,0,1-.29.24,1.17,1.17,0,0,1-1.4,0,2.17,2.17,0,0,1-.29-.24,4.64,4.64,0,0,1-1.32-5,3.49,3.49,0,0,1,.22-.53h0a3.54,3.54,0,0,1,.26-.47l.07-.1a4.7,4.7,0,0,1,1.06-1.12,1.17,1.17,0,0,1,1.4,0,4.7,4.7,0,0,1,1.06,1.12h0a.86.86,0,0,0,.07.1c.09.15.18.31.26.47a4.93,4.93,0,0,1,.22.53A4.67,4.67,0,0,1,217.86,184.88Z"/><path class="cls-16" d="M213.54,167.92l-.07-.11a4.6,4.6,0,0,1-.73-2.49,4.67,4.67,0,0,1,.47-2,4.62,4.62,0,0,1,1.39-1.68,1.17,1.17,0,0,1,1.4,0,4.82,4.82,0,0,1,1.39,1.68,4.67,4.67,0,0,1,.47,2,4.6,4.6,0,0,1-.73,2.49l-.07.11"/><path class="cls-16" d="M213.54,172.91h0a.36.36,0,0,1-.07-.1,4,4,0,0,1-.48-3.72,3.16,3.16,0,0,1,.22-.5,3.78,3.78,0,0,1,.26-.43.61.61,0,0,1,.07-.1,4.55,4.55,0,0,1,1.06-1,1.24,1.24,0,0,1,1.4,0,4.55,4.55,0,0,1,1.06,1,.86.86,0,0,0,.07.1c.09.14.18.28.26.43a4.46,4.46,0,0,1,.22.5,4,4,0,0,1-.48,3.72.86.86,0,0,1-.07.1"/><path class="cls-16" d="M213.54,182.79h0l-.07-.09A4,4,0,0,1,213,179a3.06,3.06,0,0,1,.22-.49,3.78,3.78,0,0,1,.26-.43.61.61,0,0,1,.07-.1,4.72,4.72,0,0,1,1.06-1,1.24,1.24,0,0,1,1.4,0,4.72,4.72,0,0,1,1.06,1,.86.86,0,0,0,.07.1c.09.14.18.28.26.43a4.31,4.31,0,0,1,.22.49,4,4,0,0,1-.48,3.7l-.07.09"/><path class="cls-16" d="M217.86,175.45a4.22,4.22,0,0,1-.73,2.36l-.07.09,0,0,0-.05,0-.06,0,0a4.45,4.45,0,0,0-1.06-1.06,1.24,1.24,0,0,0-1.4,0,4.45,4.45,0,0,0-1.06,1.06l0,0,0,.06,0,.05,0,0-.07-.09a4.22,4.22,0,0,1-.73-2.36A4.16,4.16,0,0,1,213,174a2.91,2.91,0,0,1,.22-.51,3.07,3.07,0,0,1,.26-.43.36.36,0,0,1,.07-.1,4.45,4.45,0,0,1,1.06-1.06,1.24,1.24,0,0,1,1.4,0,4.45,4.45,0,0,1,1.06,1.06.86.86,0,0,1,.07.1,4.45,4.45,0,0,1,.26.43,3.92,3.92,0,0,1,.22.51A4.16,4.16,0,0,1,217.86,175.45Z"/><path class="cls-16" d="M217.86,185.11a4,4,0,0,1-1.57,3.13l-.29.22a1.27,1.27,0,0,1-1.4,0,3.15,3.15,0,0,1-.29-.22,4,4,0,0,1-1.57-3.13,3.85,3.85,0,0,1,.25-1.35,3.41,3.41,0,0,1,.22-.48,3.54,3.54,0,0,1,.26-.41.36.36,0,0,1,.07-.1,4.4,4.4,0,0,1,1.06-1,1.27,1.27,0,0,1,1.4,0,4.59,4.59,0,0,1,1.06,1,.33.33,0,0,1,.06.1,3.62,3.62,0,0,1,.27.41c.08.16.15.32.22.48A3.85,3.85,0,0,1,217.86,185.11Z"/><rect class="cls-8" x="138.64" y="297.81" width="7.15" height="12.45" rx="3.57" transform="translate(268.32 -7.03) rotate(47.14)"/><line class="cls-8" x1="136.67" y1="318.76" x2="136.67" y2="293.74"/><path class="cls-16" d="M137.91,263a1.16,1.16,0,0,0-1.39,0,4.65,4.65,0,0,0-.92,6.52,4.55,4.55,0,0,1,1-1,1,1,0,0,1,.63-.21,1,1,0,0,1,.63.21,4.78,4.78,0,0,1,1,1,4.66,4.66,0,0,0-.93-6.52Z"/><path class="cls-16" d="M131.86,272l0,0a4.67,4.67,0,0,1-1.32-3.95,1.17,1.17,0,0,1,1-1,4.64,4.64,0,0,1,3.22.72l.1.06a4.52,4.52,0,0,0-.46,2,4.47,4.47,0,0,0,.69,2.39l0,.05,0,.06,0,.06,0,.05a2.13,2.13,0,0,0-.23.42,2.4,2.4,0,0,0-.11.23s0,.09-.05.13,0,0,0,0l0,.08h-.12"/><path class="cls-16" d="M139.13,273.32H139a1.17,1.17,0,0,0-.09-.24,2.29,2.29,0,0,0-.1-.23,4.16,4.16,0,0,0-.23-.42l0-.05,0-.06,0-.06,0,0a4.52,4.52,0,0,0,.68-2.4,4.43,4.43,0,0,0-.45-2l.1-.07a4.6,4.6,0,0,1,3.21-.72,1.15,1.15,0,0,1,1,1A4.66,4.66,0,0,1,141.8,272l0,0"/><path class="cls-16" d="M138.58,272.42a.86.86,0,0,0,.07-.1,4.63,4.63,0,0,0,.26-4.53,4.78,4.78,0,0,0-1.4-1.69,1.16,1.16,0,0,0-1.39,0,4.65,4.65,0,0,0-1.39,1.69,4.63,4.63,0,0,0,.26,4.53.36.36,0,0,0,.07.1"/><path class="cls-16" d="M134.62,278.33l-.11,0"/><path class="cls-16" d="M135.06,277.21a4.52,4.52,0,0,1-.69-2.39,4.71,4.71,0,0,1,.25-1.49h0l0-.08s0,0,0,0,0-.09.05-.13a2.4,2.4,0,0,1,.11-.23l-.1-.07a4.68,4.68,0,0,0-2.87-.76l-.35,0a1.18,1.18,0,0,0-1,1,4.64,4.64,0,0,0,1.32,3.94l0,0"/><path class="cls-16" d="M139.13,278.31l-.12,0"/><path class="cls-16" d="M138.58,277.21a4.51,4.51,0,0,0,.68-2.39,4.44,4.44,0,0,0-.25-1.49h0a1.17,1.17,0,0,0-.09-.24,2.29,2.29,0,0,0-.1-.23l.1-.07a4.67,4.67,0,0,1,2.86-.76l.36,0a1.16,1.16,0,0,1,1,1A4.63,4.63,0,0,1,141.8,277l0,0"/><path class="cls-16" d="M139.38,274.82a4.58,4.58,0,0,1-.67,2.38.41.41,0,0,1-.07.11.6.6,0,0,1-.06.11h-3.52l-.07-.11-.07-.11a4.62,4.62,0,0,1-.41-3.88,3.21,3.21,0,0,1,.22-.54,4.17,4.17,0,0,1,.26-.46l.07-.11a4.3,4.3,0,0,1,1.06-1.11,1.16,1.16,0,0,1,1.39,0,4.55,4.55,0,0,1,1.07,1.12.86.86,0,0,1,.07.1c.09.15.18.3.26.46a4.35,4.35,0,0,1,.22.54A4.63,4.63,0,0,1,139.38,274.82Z"/><path class="cls-16" d="M135.12,282.31l0,.06,0,0v-.21l0,0Z"/><path class="cls-16" d="M134.83,277.84l-.31.43h0L131.87,282l0,0a4.67,4.67,0,0,1-1.32-3.95,1.19,1.19,0,0,1,1-1l.36,0a4.1,4.1,0,0,1,1.16.07,4.49,4.49,0,0,1,1.7.69Z"/><path class="cls-16" d="M135.06,282.41h0a4.49,4.49,0,0,0-.24.42h0l-.1.24-.06.17,0,.08h0l-.11,0"/><path class="cls-16" d="M139,283.32h0a1.86,1.86,0,0,0-.1-.25,1.6,1.6,0,0,0-.1-.23h0c-.07-.14-.15-.28-.23-.42l0,0,0-.06,0-.07,0,0,.06.12.23.47.26.52Z"/><path class="cls-16" d="M141.8,282l0,0-2.66-3.74h0l-.3-.43.1-.06a4.51,4.51,0,0,1,1.69-.69,4.61,4.61,0,0,1,1.17-.07l.36,0a1.17,1.17,0,0,1,1,1A4.66,4.66,0,0,1,141.8,282Z"/><path class="cls-16" d="M139.26,279.81a4.46,4.46,0,0,1-.68,2.39,4.55,4.55,0,0,0-1.07-1.12,1.16,1.16,0,0,0-1.39,0,4.51,4.51,0,0,0-1.06,1.12,4.49,4.49,0,0,1-.69-2.39,4.6,4.6,0,0,1,.25-1.48h0l0-.09v0s0-.08.05-.13l.11-.23a2.91,2.91,0,0,1,.23-.42h0l0-.05,0-.06,0-.06,0,0a4.51,4.51,0,0,1,1.06-1.12,1.16,1.16,0,0,1,1.39,0,4.55,4.55,0,0,1,1.07,1.12l0,0,0,.06,0,.06,0,.05c.08.13.16.28.23.42s0,0,0,0v0s0,.11.08.17l.09.25A4.34,4.34,0,0,1,139.26,279.81Z"/><path class="cls-16" d="M135,277.31a4.31,4.31,0,0,0-.26.47,4.49,4.49,0,0,0-1.7-.69l1.89.11Z"/><path class="cls-16" d="M135.08,282.24l0,.07,0,.06,0,0a.61.61,0,0,1-.07-.1,4.64,4.64,0,0,1-.48-4v0h0a4.25,4.25,0,0,1,.21-.49,4.31,4.31,0,0,1,.26-.47.61.61,0,0,1,.07-.1l0,0,0,.06,0,.06,0,.05h0a2.91,2.91,0,0,0-.23.42l-.11.23c0,.05,0,.09-.05.13v0l0,.09h0a4.6,4.6,0,0,0-.25,1.48,4.49,4.49,0,0,0,.69,2.39Z"/><path class="cls-16" d="M140.6,277.09a4.51,4.51,0,0,0-1.69.69,4.39,4.39,0,0,0-.27-.47.41.41,0,0,0,.07-.11Z"/><path class="cls-16" d="M139.38,279.81a4.64,4.64,0,0,1-.73,2.5h0l-.06.09,0,0,0-.06,0-.07,0,0a4.46,4.46,0,0,0,.68-2.39,4.34,4.34,0,0,0-.25-1.48l-.09-.25c0-.06,0-.12-.08-.17v0s0,0,0,0-.15-.29-.23-.42l0-.05,0-.06,0-.06,0,0s0,.07.06.1a4.39,4.39,0,0,1,.27.47,3.58,3.58,0,0,1,.2.49h0l0,0A4.67,4.67,0,0,1,139.38,279.81Z"/><path class="cls-16" d="M135.12,287.3l0,.06,0,.05a2.13,2.13,0,0,0-.23.42,1.63,1.63,0,0,0-.11.23h0s0,.08-.05.13v0l0,.08h-.12l-2.64-1.3,0,0a4.67,4.67,0,0,1-1.32-4,1.17,1.17,0,0,1,1-1l.36,0a4.67,4.67,0,0,1,2.86.76l.08.05h0a1.63,1.63,0,0,0-.11.23l-.06.17,0,.08h0a4.6,4.6,0,0,0-.25,1.48,4.53,4.53,0,0,0,.69,2.4l0,0Z"/><path class="cls-16" d="M141.8,287l0,0a4.67,4.67,0,0,0-2.86.76,5.09,5.09,0,0,1,.22.54H139a1.17,1.17,0,0,0-.09-.24,2.29,2.29,0,0,0-.1-.23c-.07-.15-.15-.29-.23-.43l0,0,0-.06,0-.06,0,0h0a4.52,4.52,0,0,0,.68-2.4,4.38,4.38,0,0,0-.25-1.48h0a1.86,1.86,0,0,0-.1-.25,1.6,1.6,0,0,0-.1-.23h0l.06,0h0a.05.05,0,0,1,0,0,4.6,4.6,0,0,1,2.86-.76l.36,0a1.15,1.15,0,0,1,1,1A4.66,4.66,0,0,1,141.8,287Z"/><path class="cls-16" d="M141.77,282a4.6,4.6,0,0,0-2.86.76,5,5,0,0,0-.26-.46,4.64,4.64,0,0,0,.48-4l0,0Z"/><path class="cls-16" d="M139.38,284.8a4.56,4.56,0,0,1-.74,2.5.33.33,0,0,1-.06.1v-5l0,0,0-.06,0-.07,0,0,.07.11a5,5,0,0,1,.26.46,4.35,4.35,0,0,1,.22.54A4.57,4.57,0,0,1,139.38,284.8Z"/><path class="cls-16" d="M135,282.31a3.42,3.42,0,0,0-.26.46,4.67,4.67,0,0,0-2.86-.76l2.65-3.74v0a4.64,4.64,0,0,0,.48,4Z"/><path class="cls-16" d="M135.12,282.31l0,.06,0,0v5l-.07-.11a4.64,4.64,0,0,1-.73-2.5,4.57,4.57,0,0,1,.25-1.49,3.21,3.21,0,0,1,.22-.54,3.42,3.42,0,0,1,.26-.46l.07-.11,0,0Z"/><path class="cls-16" d="M134.37,289.8a4.45,4.45,0,0,1,.46-2,4.67,4.67,0,0,0-3.32-.79,1.18,1.18,0,0,0-1,1,4.66,4.66,0,0,0,5.27,5.26l.18,0A4.5,4.5,0,0,1,134.37,289.8Z"/><path class="cls-16" d="M141.8,292a4.64,4.64,0,0,1-4,1.32h0l-.14,0a4.49,4.49,0,0,0,1.59-3.45,4.44,4.44,0,0,0-.25-1.49h0a1.17,1.17,0,0,0-.09-.24,2.29,2.29,0,0,0-.1-.23l.1-.07a5.09,5.09,0,0,1,.22.54l2.64-1.3.36,0a1.16,1.16,0,0,1,1,1A4.63,4.63,0,0,1,141.8,292Z"/><path class="cls-16" d="M138.55,282.37l0,0v4.78a4.51,4.51,0,0,0-1.07-1.11,1.16,1.16,0,0,0-1.39,0,4.34,4.34,0,0,0-1.06,1.12v-4.79l0,0,0-.06,0-.07,0,0a4.51,4.51,0,0,1,1.06-1.12,1.16,1.16,0,0,1,1.39,0,4.55,4.55,0,0,1,1.07,1.12l0,0,0,.07Z"/><path class="cls-16" d="M141.77,287l-2.64,1.3a5.09,5.09,0,0,0-.22-.54A4.67,4.67,0,0,1,141.77,287Z"/><path class="cls-16" d="M139.38,289.8a4.65,4.65,0,0,1-1.57,3.48l-.3.24a1.16,1.16,0,0,1-1.39,0l-.29-.24a4.64,4.64,0,0,1-1.32-5,3.6,3.6,0,0,1,.22-.54h0a4.17,4.17,0,0,1,.26-.46.36.36,0,0,1,.07-.1,4.34,4.34,0,0,1,1.06-1.12,1.16,1.16,0,0,1,1.39,0,4.51,4.51,0,0,1,1.07,1.11h0a.33.33,0,0,1,.06.1,4.25,4.25,0,0,1,.27.46,5.09,5.09,0,0,1,.22.54A4.63,4.63,0,0,1,139.38,289.8Z"/><path class="cls-16" d="M135.06,272.83a.61.61,0,0,1-.07-.1,4.63,4.63,0,0,1-.26-4.53,4.57,4.57,0,0,1,1.39-1.69,1.17,1.17,0,0,1,1.4,0,4.77,4.77,0,0,1,1.39,1.69,4.63,4.63,0,0,1-.26,4.53l-.07.1"/><path class="cls-16" d="M135.06,277.83h0a.61.61,0,0,1-.07-.1,4.1,4.1,0,0,1-.73-2.33,4,4,0,0,1,.25-1.39,3.16,3.16,0,0,1,.22-.5,3.07,3.07,0,0,1,.26-.43.36.36,0,0,1,.07-.1,4.55,4.55,0,0,1,1.06-1,1.24,1.24,0,0,1,1.4,0,4.55,4.55,0,0,1,1.06,1,.86.86,0,0,1,.07.1,4.06,4.06,0,0,1,.48.93,4,4,0,0,1,.25,1.39,4,4,0,0,1-.74,2.33.53.53,0,0,1-.06.1"/><path class="cls-16" d="M135.06,287.71h0a.61.61,0,0,1-.07-.1,4,4,0,0,1-.73-2.31,4,4,0,0,1,.25-1.38,3.16,3.16,0,0,1,.22-.5A3,3,0,0,1,135,283a.36.36,0,0,1,.07-.1,4.55,4.55,0,0,1,1.06-1,1.27,1.27,0,0,1,1.4,0,4.55,4.55,0,0,1,1.06,1,.86.86,0,0,1,.07.1,4.28,4.28,0,0,1,.26.42,4.46,4.46,0,0,1,.22.5,4,4,0,0,1-.49,3.69.53.53,0,0,1-.06.1"/><path class="cls-16" d="M139.38,280.36a4.2,4.2,0,0,1-.73,2.36l-.07.1,0,0,0-.06,0-.06,0,0a4.84,4.84,0,0,0-1.06-1.06,1.24,1.24,0,0,0-1.4,0,4.64,4.64,0,0,0-1.06,1.06l0,0,0,.06,0,.06,0,0a.61.61,0,0,1-.07-.1,4.17,4.17,0,0,1-.48-3.78,3.16,3.16,0,0,1,.22-.5A3.91,3.91,0,0,1,135,278a.61.61,0,0,1,.07-.1,4.64,4.64,0,0,1,1.06-1.06,1.24,1.24,0,0,1,1.4,0,4.84,4.84,0,0,1,1.06,1.06s0,.07.06.1a4,4,0,0,1,.27.44,4.46,4.46,0,0,1,.22.5A4.2,4.2,0,0,1,139.38,280.36Z"/><path class="cls-16" d="M139.37,290a4,4,0,0,1-1.57,3.13l-.29.21a1.26,1.26,0,0,1-1.39,0l-.29-.21a4,4,0,0,1-1.57-3.13,3.81,3.81,0,0,1,.25-1.35,2.62,2.62,0,0,1,.22-.48,2.26,2.26,0,0,1,.26-.42l.07-.09a4.09,4.09,0,0,1,1.06-1,1.26,1.26,0,0,1,1.39,0,4.3,4.3,0,0,1,1.07,1l.06.09a3,3,0,0,1,.27.42c.08.15.15.31.22.48A3.8,3.8,0,0,1,139.37,290Z"/><path class="cls-17" d="M135.06,272.83a.61.61,0,0,1-.07-.1,4.63,4.63,0,0,1-.26-4.53,4.57,4.57,0,0,1,1.39-1.69,1.17,1.17,0,0,1,1.4,0,4.77,4.77,0,0,1,1.39,1.69,4.63,4.63,0,0,1-.26,4.53l-.07.1"/><path class="cls-17" d="M135.06,277.83h0a.61.61,0,0,1-.07-.1,4.1,4.1,0,0,1-.73-2.33,4,4,0,0,1,.25-1.39,3.16,3.16,0,0,1,.22-.5,3.07,3.07,0,0,1,.26-.43.36.36,0,0,1,.07-.1,4.55,4.55,0,0,1,1.06-1,1.24,1.24,0,0,1,1.4,0,4.55,4.55,0,0,1,1.06,1,.86.86,0,0,1,.07.1,4.06,4.06,0,0,1,.48.93,4,4,0,0,1,.25,1.39,4,4,0,0,1-.74,2.33.53.53,0,0,1-.06.1"/><path class="cls-17" d="M135.06,287.71h0a.61.61,0,0,1-.07-.1,4,4,0,0,1-.73-2.31,4,4,0,0,1,.25-1.38,3.16,3.16,0,0,1,.22-.5A3,3,0,0,1,135,283a.36.36,0,0,1,.07-.1,4.55,4.55,0,0,1,1.06-1,1.27,1.27,0,0,1,1.4,0,4.55,4.55,0,0,1,1.06,1,.86.86,0,0,1,.07.1,4.28,4.28,0,0,1,.26.42,4.46,4.46,0,0,1,.22.5,4,4,0,0,1-.49,3.69.53.53,0,0,1-.06.1"/><path class="cls-17" d="M139.38,280.36a4.2,4.2,0,0,1-.73,2.36l-.07.1,0,0,0-.06,0-.06,0,0a4.84,4.84,0,0,0-1.06-1.06,1.24,1.24,0,0,0-1.4,0,4.64,4.64,0,0,0-1.06,1.06l0,0,0,.06,0,.06,0,0a.61.61,0,0,1-.07-.1,4.17,4.17,0,0,1-.48-3.78,3.16,3.16,0,0,1,.22-.5A3.91,3.91,0,0,1,135,278a.61.61,0,0,1,.07-.1,4.64,4.64,0,0,1,1.06-1.06,1.24,1.24,0,0,1,1.4,0,4.84,4.84,0,0,1,1.06,1.06s0,.07.06.1a4,4,0,0,1,.27.44,4.46,4.46,0,0,1,.22.5A4.2,4.2,0,0,1,139.38,280.36Z"/><path class="cls-17" d="M139.37,290a4,4,0,0,1-1.57,3.13l-.29.21a1.26,1.26,0,0,1-1.39,0l-.29-.21a4,4,0,0,1-1.57-3.13,3.81,3.81,0,0,1,.25-1.35,2.62,2.62,0,0,1,.22-.48,2.26,2.26,0,0,1,.26-.42l.07-.09a4.09,4.09,0,0,1,1.06-1,1.26,1.26,0,0,1,1.39,0,4.3,4.3,0,0,1,1.07,1l.06.09a3,3,0,0,1,.27.42c.08.15.15.31.22.48A3.8,3.8,0,0,1,139.37,290Z"/><path class="cls-17" d="M319.26,276.82l-.07-.1a4.63,4.63,0,0,1-.26-4.53,4.77,4.77,0,0,1,1.39-1.69,1.17,1.17,0,0,1,1.4,0,4.67,4.67,0,0,1,1.39,1.69,4.63,4.63,0,0,1-.26,4.53.61.61,0,0,1-.07.1"/><path class="cls-17" d="M319.26,281.82h0l-.07-.09a4.07,4.07,0,0,1-.48-3.73,4.46,4.46,0,0,1,.22-.5l.26-.43.07-.09a4.59,4.59,0,0,1,1.06-1.05,1.27,1.27,0,0,1,1.4,0,4.59,4.59,0,0,1,1.06,1.05l.07.09a4.92,4.92,0,0,1,.26.43,4.46,4.46,0,0,1,.22.5,4.07,4.07,0,0,1-.48,3.73l-.07.09"/><path class="cls-17" d="M319.26,291.7h0l-.07-.09a4,4,0,0,1-.48-3.7,5.27,5.27,0,0,1,.22-.49c.08-.15.17-.29.26-.43l.07-.09a4.55,4.55,0,0,1,1.06-1,1.27,1.27,0,0,1,1.4,0,4.55,4.55,0,0,1,1.06,1l.07.09a3.78,3.78,0,0,1,.26.43,5.27,5.27,0,0,1,.22.49,4,4,0,0,1-.48,3.7l-.07.09"/><path class="cls-17" d="M323.58,284.35a4.2,4.2,0,0,1-.73,2.36.61.61,0,0,1-.07.1l0,0,0-.06,0-.06,0,0a4.64,4.64,0,0,0-1.06-1.06,1.24,1.24,0,0,0-1.4,0,4.64,4.64,0,0,0-1.06,1.06l0,0,0,.06,0,.06,0,0-.07-.1a4.17,4.17,0,0,1-.48-3.78,4.46,4.46,0,0,1,.22-.5,4.64,4.64,0,0,1,.26-.44l.07-.1a4.64,4.64,0,0,1,1.06-1.06,1.24,1.24,0,0,1,1.4,0,4.64,4.64,0,0,1,1.06,1.06.61.61,0,0,1,.07.1,3.18,3.18,0,0,1,.26.44,4.46,4.46,0,0,1,.22.5A4.2,4.2,0,0,1,323.58,284.35Z"/><path class="cls-17" d="M323.58,294a4,4,0,0,1-1.57,3.13l-.29.21a1.27,1.27,0,0,1-1.4,0l-.29-.21a4,4,0,0,1-1.57-3.13,3.77,3.77,0,0,1,.25-1.35,3.51,3.51,0,0,1,.22-.48,3,3,0,0,1,.26-.42l.07-.09a4.43,4.43,0,0,1,1.06-1,1.27,1.27,0,0,1,1.4,0,4.43,4.43,0,0,1,1.06,1l.07.09a4.28,4.28,0,0,1,.26.42,3.51,3.51,0,0,1,.22.48A3.77,3.77,0,0,1,323.58,294Z"/><path class="cls-17" d="M213.36,168.55a.61.61,0,0,0-.07-.1,4.7,4.7,0,0,1-.26-4.53,4.69,4.69,0,0,1,1.4-1.69,1.16,1.16,0,0,1,1.39,0,4.68,4.68,0,0,1,1.86,3.72,4.64,4.64,0,0,1-.73,2.5.61.61,0,0,1-.07.1"/><path class="cls-17" d="M213.36,173.55h0l-.06-.09a4,4,0,0,1-.73-2.33,4.08,4.08,0,0,1,.24-1.4c.07-.17.14-.34.22-.5l.26-.43.07-.09a4.45,4.45,0,0,1,1.07-1,1.26,1.26,0,0,1,1.39,0,4.23,4.23,0,0,1,1.06,1l.07.09a3.28,3.28,0,0,1,.26.43,4.52,4.52,0,0,1,.23.5,4.13,4.13,0,0,1-.49,3.73l-.07.09"/><path class="cls-17" d="M213.36,183.43h0l-.06-.09a4,4,0,0,1-.73-2.31,4.06,4.06,0,0,1,.24-1.39c.07-.16.14-.33.22-.49s.17-.29.26-.43l.07-.09a4.41,4.41,0,0,1,1.07-1,1.26,1.26,0,0,1,1.39,0,4.2,4.2,0,0,1,1.06,1l.07.09a2.73,2.73,0,0,1,.26.43,5.4,5.4,0,0,1,.23.49,4.06,4.06,0,0,1-.49,3.7l-.07.09"/><path class="cls-17" d="M217.68,176.08a4.2,4.2,0,0,1-.73,2.36l-.07.1a.05.05,0,0,0,0,0l0-.06,0-.06,0,0a4.27,4.27,0,0,0-1.06-1.06,1.22,1.22,0,0,0-1.39,0,4.49,4.49,0,0,0-1.07,1.06l0,0,0,.06,0,.06,0,0a.36.36,0,0,0-.07-.1,4.26,4.26,0,0,1-.48-3.78c.07-.17.14-.34.22-.5a3.23,3.23,0,0,1,.27-.44l.06-.1a4.49,4.49,0,0,1,1.07-1.06,1.22,1.22,0,0,1,1.39,0,4.27,4.27,0,0,1,1.06,1.06.61.61,0,0,1,.07.1,2.43,2.43,0,0,1,.26.44,4.52,4.52,0,0,1,.23.5A4.19,4.19,0,0,1,217.68,176.08Z"/><path class="cls-17" d="M217.68,185.75a4,4,0,0,1-1.57,3.13l-.29.21a1.27,1.27,0,0,1-1.4,0l-.29-.21a4,4,0,0,1-1.56-3.13,3.76,3.76,0,0,1,.24-1.35,3.51,3.51,0,0,1,.22-.48,3,3,0,0,1,.27-.42.47.47,0,0,1,.06-.09,4.43,4.43,0,0,1,1.06-1,1.27,1.27,0,0,1,1.4,0,4.43,4.43,0,0,1,1.06,1l.07.09a3,3,0,0,1,.26.42,2.62,2.62,0,0,1,.22.48A3.77,3.77,0,0,1,217.68,185.75Z"/><rect class="cls-8" x="185.56" y="371.7" width="5.23" height="9.1" rx="2.61" transform="translate(335.95 -17.63) rotate(47.14)"/><line class="cls-8" x1="184.12" y1="387.02" x2="184.12" y2="368.72"/><path class="cls-16" d="M185,346.21a.84.84,0,0,0-1,0,3.4,3.4,0,0,0-.67,4.77,3.41,3.41,0,0,1,.72-.75.79.79,0,0,1,.46-.15.75.75,0,0,1,.46.15,3.24,3.24,0,0,1,.73.75,3.39,3.39,0,0,0-.68-4.77Z"/><path class="cls-16" d="M180.61,352.84l0,0a3.37,3.37,0,0,1-1-2.89.85.85,0,0,1,.72-.72,3.39,3.39,0,0,1,2.35.53l.08.05a3.24,3.24,0,0,0-.33,1.44,3.37,3.37,0,0,0,.49,1.75l0,0,0,0,0,.05,0,0a3,3,0,0,0-.16.31,1.3,1.3,0,0,0-.08.17l0,.09a0,0,0,0,1,0,0s0,0,0,.06h-.09"/><path class="cls-16" d="M185.92,353.78h-.09l-.06-.17-.08-.17a3.07,3.07,0,0,0-.17-.31l0,0,0-.05,0,0,0,0a3.29,3.29,0,0,0,.5-1.75,3.24,3.24,0,0,0-.33-1.44l.07-.05a3.43,3.43,0,0,1,2.36-.53.86.86,0,0,1,.72.72,3.44,3.44,0,0,1-1,2.89l0,0"/><path class="cls-16" d="M185.52,353.13a.22.22,0,0,0,0-.08,3.32,3.32,0,0,0,.53-1.82,3.37,3.37,0,0,0-1.36-2.72.84.84,0,0,0-1,0,3.39,3.39,0,0,0-1,1.23,3.5,3.5,0,0,0-.34,1.49,3.33,3.33,0,0,0,.54,1.82l0,.08"/><path class="cls-16" d="M182.63,357.45h-.09"/><path class="cls-16" d="M183,356.63a3.29,3.29,0,0,1-.5-1.75,3.37,3.37,0,0,1,.18-1.09h0s0,0,0-.06a0,0,0,0,0,0,0l0-.09a1.3,1.3,0,0,1,.08-.17l-.08-.05a3.33,3.33,0,0,0-2.09-.55l-.26,0a.86.86,0,0,0-.72.73,3.36,3.36,0,0,0,1,2.88l0,0"/><path class="cls-16" d="M185.92,357.44h-.08"/><path class="cls-16" d="M185.52,356.63a3.27,3.27,0,0,0,.5-1.75,3.37,3.37,0,0,0-.18-1.09h0l-.06-.17-.08-.17.07-.05a3.36,3.36,0,0,1,2.1-.55l.26,0a.87.87,0,0,1,.72.73,3.43,3.43,0,0,1-1,2.88l0,0"/><path class="cls-16" d="M186.1,354.88a3.35,3.35,0,0,1-.48,1.75.56.56,0,0,0-.05.08l0,.07H183l0-.07-.06-.09a3.41,3.41,0,0,1-.48-1.74,3.67,3.67,0,0,1,.18-1.1c.05-.13.1-.26.16-.39a2.33,2.33,0,0,1,.2-.34l0-.07a3.58,3.58,0,0,1,.78-.82.84.84,0,0,1,1,0,3.2,3.2,0,0,1,.78.82l0,.07a2.27,2.27,0,0,1,.19.34,3.2,3.2,0,0,1,.16.39A3.38,3.38,0,0,1,186.1,354.88Z"/><path class="cls-16" d="M183,360.36l0,0v-.09Z"/><path class="cls-16" d="M182.78,357.09l-.23.31h0l-1.94,2.73,0,0a3.36,3.36,0,0,1-1-2.88.84.84,0,0,1,.72-.72l.26,0a3.44,3.44,0,0,1,.85.05,3.34,3.34,0,0,1,1.24.5Z"/><path class="cls-16" d="M182.94,360.44h0a2.28,2.28,0,0,0-.17.3h0a.89.89,0,0,0-.08.17l0,.12s0,0,0,.06h-.09"/><path class="cls-16" d="M185.84,361.1h0c0-.06-.05-.12-.07-.19l-.08-.16h0l-.17-.31,0,0,0,0,0-.05,0,0,0,.09.18.34.18.38Z"/><path class="cls-16" d="M187.88,360.12l0,0-2-2.73h0l-.22-.31.07,0a3.34,3.34,0,0,1,1.24-.5,3.52,3.52,0,0,1,.86-.05l.26,0a.85.85,0,0,1,.72.72A3.42,3.42,0,0,1,187.88,360.12Z"/><path class="cls-16" d="M186,358.53a3.27,3.27,0,0,1-.5,1.75,3.37,3.37,0,0,0-.78-.82.87.87,0,0,0-1,0,3.53,3.53,0,0,0-.77.82,3.32,3.32,0,0,1-.32-2.83h0l0-.06a0,0,0,0,0,0,0,1,1,0,0,1,0-.1l.08-.17a3.27,3.27,0,0,1,.17-.31h0v0l0,0,0,0v0a3.53,3.53,0,0,1,.77-.82.84.84,0,0,1,1,0,3.37,3.37,0,0,1,.78.82l0,0,0,0,0,0,0,0,.17.31v.05l.06.13.07.18A3.31,3.31,0,0,1,186,358.53Z"/><path class="cls-16" d="M182.9,356.71a2.23,2.23,0,0,0-.2.33,3.34,3.34,0,0,0-1.24-.5l1.38.08Z"/><path class="cls-16" d="M183,360.31l0,.05,0,0v0a.18.18,0,0,1,0-.07,3.36,3.36,0,0,1-.54-1.83,3.56,3.56,0,0,1,.18-1.09v0h0l.15-.36a2.23,2.23,0,0,1,.2-.33.35.35,0,0,1,0-.08v0l0,0,0,0v0h0a3.27,3.27,0,0,0-.17.31l-.08.17a1,1,0,0,0,0,.1,0,0,0,0,1,0,0l0,.06h0a3.32,3.32,0,0,0,.32,2.83Z"/><path class="cls-16" d="M187,356.54a3.34,3.34,0,0,0-1.24.5,2.17,2.17,0,0,0-.19-.33.56.56,0,0,1,.05-.08Z"/><path class="cls-16" d="M186.1,358.53a3.35,3.35,0,0,1-.53,1.83h0l0,.06,0,0,0,0,0-.05,0,0a3.27,3.27,0,0,0,.5-1.75,3.31,3.31,0,0,0-.18-1.08l-.07-.18-.06-.13v-.05l-.17-.31,0,0,0,0,0,0,0,0a.35.35,0,0,1,0,.08,2.17,2.17,0,0,1,.19.33,2.75,2.75,0,0,1,.15.36h0a0,0,0,0,1,0,0A3.28,3.28,0,0,1,186.1,358.53Z"/><path class="cls-16" d="M183,364l0,.05v0a1.87,1.87,0,0,0-.17.31.89.89,0,0,0-.08.17h0l0,.09a0,0,0,0,1,0,0s0,0,0,.06h-.09l-1.93-.94,0,0a3.38,3.38,0,0,1-1-2.89.85.85,0,0,1,.72-.72l.26,0a3.41,3.41,0,0,1,2.09.56l.06,0h0l-.08.16s0,.09,0,.13,0,0,0,.06h0a3.34,3.34,0,0,0,.32,2.84v0Z"/><path class="cls-16" d="M187.88,363.78l0,0a3.36,3.36,0,0,0-2.1.55,3.2,3.2,0,0,1,.16.39h-.09l-.06-.17c0-.06-.05-.12-.08-.17a3.07,3.07,0,0,0-.17-.31l0,0,0-.05,0,0,0,0h0a3.34,3.34,0,0,0,.32-2.84h0c0-.06-.05-.12-.07-.19l-.08-.16h0l.05,0h0a3.37,3.37,0,0,1,2.1-.56l.26,0a.86.86,0,0,1,.72.72A3.45,3.45,0,0,1,187.88,363.78Z"/><path class="cls-16" d="M187.86,360.14a3.37,3.37,0,0,0-2.1.56,2.27,2.27,0,0,0-.19-.34,3.35,3.35,0,0,0,.53-1.83,3.28,3.28,0,0,0-.18-1.09,0,0,0,0,0,0,0Z"/><path class="cls-16" d="M186.1,362.19a3.34,3.34,0,0,1-.53,1.82.35.35,0,0,1,0,.08v-3.66l0,0,0,0,0-.05,0,0a.35.35,0,0,1,0,.08,3.37,3.37,0,0,1,.35.73A3.3,3.3,0,0,1,186.1,362.19Z"/><path class="cls-16" d="M182.9,360.36a2.33,2.33,0,0,0-.2.34,3.41,3.41,0,0,0-2.09-.56l1.94-2.73v0a3.56,3.56,0,0,0-.18,1.09A3.36,3.36,0,0,0,182.9,360.36Z"/><path class="cls-16" d="M183,360.36l0,0v3.69a.35.35,0,0,1,0-.08,3.35,3.35,0,0,1-.54-1.82,3.57,3.57,0,0,1,.18-1.1,3.52,3.52,0,0,1,.16-.39,2.33,2.33,0,0,1,.2-.34.35.35,0,0,1,0-.08v0Z"/><path class="cls-16" d="M182.45,365.84a3.27,3.27,0,0,1,.33-1.44,3.42,3.42,0,0,0-2.43-.58.86.86,0,0,0-.72.72,3.4,3.4,0,0,0,3.85,3.85.31.31,0,0,0,.13,0A3.29,3.29,0,0,1,182.45,365.84Z"/><path class="cls-16" d="M187.88,367.43a3.38,3.38,0,0,1-2.89,1h0l-.1,0a3.29,3.29,0,0,0,1.16-2.52,3.37,3.37,0,0,0-.18-1.09h0l-.06-.17c0-.06-.05-.12-.08-.17l.07,0a3.2,3.2,0,0,1,.16.39l1.94-.94.26,0a.86.86,0,0,1,.72.72A3.44,3.44,0,0,1,187.88,367.43Z"/><path class="cls-16" d="M185.5,360.4l0,0v3.5a3.33,3.33,0,0,0-.78-.81.84.84,0,0,0-1,0,3.34,3.34,0,0,0-.77.82V360.4l0,0,0-.05v0a3.53,3.53,0,0,1,.77-.82.87.87,0,0,1,1,0,3.37,3.37,0,0,1,.78.82l0,0,0,.05Z"/><path class="cls-16" d="M187.86,363.8l-1.94.94a3.2,3.2,0,0,0-.16-.39A3.36,3.36,0,0,1,187.86,363.8Z"/><path class="cls-16" d="M186.1,365.84a3.42,3.42,0,0,1-1.14,2.55l-.22.17a.84.84,0,0,1-1,0l-.21-.17a3.43,3.43,0,0,1-1.15-2.55,3.62,3.62,0,0,1,.18-1.1c.05-.13.1-.26.16-.39h0a2.33,2.33,0,0,1,.2-.34.18.18,0,0,1,0-.07,3.34,3.34,0,0,1,.77-.82.84.84,0,0,1,1,0,3.33,3.33,0,0,1,.78.81h0a.18.18,0,0,1,0,.07,2.27,2.27,0,0,1,.19.34,3.2,3.2,0,0,1,.16.39A3.34,3.34,0,0,1,186.1,365.84Z"/><path class="cls-16" d="M183,353.43a.22.22,0,0,1,0-.08,3.33,3.33,0,0,1-.54-1.82,3.37,3.37,0,0,1,.35-1.49,3.27,3.27,0,0,1,1-1.23.84.84,0,0,1,1,0,3.37,3.37,0,0,1,1.36,2.72,3.32,3.32,0,0,1-.53,1.82.22.22,0,0,1,0,.08"/><path class="cls-16" d="M183,357.08h0a.18.18,0,0,1,0-.07,3,3,0,0,1-.54-1.7,3.12,3.12,0,0,1,.18-1,2.48,2.48,0,0,1,.17-.37,2,2,0,0,1,.19-.31.18.18,0,0,1,0-.07,3.31,3.31,0,0,1,.77-.77.9.9,0,0,1,1,0,3.17,3.17,0,0,1,.78.77.18.18,0,0,1,0,.07,3.21,3.21,0,0,1,.19.31,2.43,2.43,0,0,1,.16.37,2.88,2.88,0,0,1,.18,1,3,3,0,0,1-.53,1.7.18.18,0,0,1,0,.07"/><path class="cls-16" d="M183,364.31h0l0-.07a3,3,0,0,1-.54-1.69,3.11,3.11,0,0,1,.18-1,2,2,0,0,1,.17-.36,2.07,2.07,0,0,1,.19-.32l0-.07a3.23,3.23,0,0,1,.77-.75.9.9,0,0,1,1,0,3.1,3.1,0,0,1,.78.75l0,.07a3.37,3.37,0,0,1,.19.32,2,2,0,0,1,.16.36,2.87,2.87,0,0,1,.18,1,3,3,0,0,1-.53,1.69l0,.07"/><path class="cls-16" d="M186.1,358.94a3,3,0,0,1-.53,1.72.18.18,0,0,1,0,.07l0,0,0,0,0,0,0,0a3,3,0,0,0-.78-.77.87.87,0,0,0-1,0,3.13,3.13,0,0,0-.77.77s0,0,0,0l0,0,0,0,0,0a.18.18,0,0,1,0-.07,3,3,0,0,1-.54-1.72,3.2,3.2,0,0,1,.18-1,2.48,2.48,0,0,1,.17-.37,2.07,2.07,0,0,1,.19-.32.18.18,0,0,1,0-.07,3.35,3.35,0,0,1,.77-.78.9.9,0,0,1,1,0,3.21,3.21,0,0,1,.78.78.18.18,0,0,1,0,.07,3.37,3.37,0,0,1,.19.32,2.43,2.43,0,0,1,.16.37A3,3,0,0,1,186.1,358.94Z"/><path class="cls-16" d="M186.1,366A2.91,2.91,0,0,1,185,368.3l-.21.15a.9.9,0,0,1-1,0l-.21-.15a2.91,2.91,0,0,1-1.15-2.29,3,3,0,0,1,.18-1,3.73,3.73,0,0,1,.16-.35,2,2,0,0,1,.2-.31l0-.07a3.15,3.15,0,0,1,.77-.73.9.9,0,0,1,1,0,3,3,0,0,1,.78.73l0,.07a3.21,3.21,0,0,1,.19.31,2.21,2.21,0,0,1,.16.35A2.72,2.72,0,0,1,186.1,366Z"/><rect class="cls-8" x="69.5" y="239.68" width="5.23" height="9.1" rx="2.61" transform="translate(202.07 25.23) rotate(47.14)"/><line class="cls-8" x1="68.06" y1="255.01" x2="68.06" y2="236.7"/><path class="cls-16" d="M69,214.19a.84.84,0,0,0-1,0,3.39,3.39,0,0,0-1.36,2.72,3.33,3.33,0,0,0,.69,2.05,3.4,3.4,0,0,1,.72-.75.78.78,0,0,1,.92,0,3.45,3.45,0,0,1,.73.75,3.41,3.41,0,0,0-.68-4.77Z"/><path class="cls-16" d="M64.55,220.82l0,0a3.36,3.36,0,0,1-1-2.88.85.85,0,0,1,.72-.73,3.4,3.4,0,0,1,2.35.53l.07.05a3.41,3.41,0,0,0-.33,1.44,3.29,3.29,0,0,0,.5,1.75l0,0,0,0,0,0,0,0-.17.31c0,.06,0,.12-.07.17a.42.42,0,0,0,0,.1v0a.14.14,0,0,0,0,.06h-.09"/><path class="cls-16" d="M69.86,221.77h-.09a1.34,1.34,0,0,0-.07-.18c0-.05,0-.11-.07-.17l-.17-.31,0,0,0,0,0,0s0,0,0,0a3.31,3.31,0,0,0,.17-3.19l.07-.05a3.39,3.39,0,0,1,2.35-.53.86.86,0,0,1,.72.73,3.36,3.36,0,0,1-1,2.88l0,0"/><path class="cls-16" d="M69.46,221.11l.05-.07a3.47,3.47,0,0,0,.53-1.83,3.37,3.37,0,0,0-1.36-2.72.84.84,0,0,0-1,0,3.41,3.41,0,0,0-.83,4.55l0,.07"/><path class="cls-16" d="M66.56,225.43h-.08"/><path class="cls-16" d="M66.88,224.61a3.32,3.32,0,0,1-.32-2.83h0a.14.14,0,0,1,0-.06,0,0,0,0,1,0,0,.3.3,0,0,1,0-.1c0-.05,0-.11.07-.17l-.07,0a3.42,3.42,0,0,0-2.09-.55,2.06,2.06,0,0,0-.26,0,.84.84,0,0,0-.72.72,3.36,3.36,0,0,0,1,2.88,0,0,0,0,0,0,0"/><path class="cls-16" d="M69.86,225.42h-.09"/><path class="cls-16" d="M69.46,224.61a3.36,3.36,0,0,0,.5-1.75,3.27,3.27,0,0,0-.19-1.08h0a1.34,1.34,0,0,0-.07-.18c0-.05,0-.11-.07-.17l.07,0a3.42,3.42,0,0,1,2.09-.55,2.06,2.06,0,0,1,.26,0,.84.84,0,0,1,.72.72,3.36,3.36,0,0,1-1,2.88l0,0"/><path class="cls-16" d="M70,222.86a3.45,3.45,0,0,1-.48,1.75.22.22,0,0,0,0,.08l-.05.08H66.88l0-.08a.22.22,0,0,0,0-.08,3.35,3.35,0,0,1-.48-1.75,3.28,3.28,0,0,1,.18-1.09c0-.14.1-.27.16-.4a3.54,3.54,0,0,1,.19-.33.56.56,0,0,1,0-.08,3.38,3.38,0,0,1,.78-.82.87.87,0,0,1,1,0,3.57,3.57,0,0,1,.78.82l.05.08a3.54,3.54,0,0,1,.19.33c.06.13.11.26.16.4A3.28,3.28,0,0,1,70,222.86Z"/><path class="cls-16" d="M66.93,228.34l0,0,0,0v-.16l0,0Z"/><path class="cls-16" d="M66.71,225.07l-.22.32h0l-1.94,2.74,0,0a3.38,3.38,0,0,1-1-2.89.84.84,0,0,1,.72-.72l.26,0a3.47,3.47,0,0,1,.85.05,3.36,3.36,0,0,1,1.24.51Z"/><path class="cls-16" d="M66.88,228.42h0a3.07,3.07,0,0,0-.17.31h0a.87.87,0,0,0-.07.17.61.61,0,0,0,0,.12.14.14,0,0,0,0,.06h-.09"/><path class="cls-16" d="M69.77,229.08h0a1.34,1.34,0,0,0-.07-.18c0-.06,0-.12-.07-.17h0a3.07,3.07,0,0,0-.17-.31s0,0,0,0l0,0,0,0,0,0,0,.08.17.35.19.37Z"/><path class="cls-16" d="M71.81,228.11l0,0-1.94-2.74h0l-.22-.32.07,0a3.18,3.18,0,0,1,1.24-.5,3,3,0,0,1,.85-.06l.26,0a.84.84,0,0,1,.72.72A3.38,3.38,0,0,1,71.81,228.11Z"/><path class="cls-16" d="M70,226.52a3.41,3.41,0,0,1-.5,1.75,3.21,3.21,0,0,0-.78-.82.84.84,0,0,0-1,0,3.34,3.34,0,0,0-.78.81,3.26,3.26,0,0,1-.5-1.74,3.32,3.32,0,0,1,.18-1.09h0a.14.14,0,0,1,0-.06,0,0,0,0,1,0,0l0-.1c0-.05,0-.11.07-.17s.11-.2.17-.3h0l0,0,0,0,0-.05,0,0a3.34,3.34,0,0,1,.78-.81.84.84,0,0,1,1,0,3.34,3.34,0,0,1,.78.81l0,0,0,.05,0,0s0,0,0,0a2.91,2.91,0,0,1,.17.3v.05l.06.13.06.18A3.33,3.33,0,0,1,70,226.52Z"/><path class="cls-16" d="M66.83,224.69a3.72,3.72,0,0,0-.19.34,3.36,3.36,0,0,0-1.24-.51l1.38.09A.22.22,0,0,1,66.83,224.69Z"/><path class="cls-16" d="M66.9,228.3l0,0,0,0,0,0,0-.08a3.34,3.34,0,0,1-.53-1.82,3.3,3.3,0,0,1,.18-1.1s0,0,0,0h0a1.94,1.94,0,0,1,.15-.36,3.72,3.72,0,0,1,.19-.34l0-.08,0,0,0,.05,0,0,0,0h0c-.06.1-.12.2-.17.3s0,.12-.07.17l0,.1a0,0,0,0,0,0,0,.14.14,0,0,0,0,.06h0a3.32,3.32,0,0,0-.18,1.09,3.26,3.26,0,0,0,.5,1.74Z"/><path class="cls-16" d="M70.94,224.53a3.18,3.18,0,0,0-1.24.5,3.72,3.72,0,0,0-.19-.34.22.22,0,0,1,0-.08Z"/><path class="cls-16" d="M70,226.52a3.43,3.43,0,0,1-.53,1.82h0l0,.07s0,0,0,0l0,0,0,0,0,0a3.41,3.41,0,0,0,.5-1.75,3.33,3.33,0,0,0-.19-1.09l-.06-.18-.06-.13v-.05a2.91,2.91,0,0,0-.17-.3s0,0,0,0l0,0,0-.05,0,0,.05.08a3.72,3.72,0,0,1,.19.34,3,3,0,0,1,.15.36h0s0,0,0,0A3.3,3.3,0,0,1,70,226.52Z"/><path class="cls-16" d="M66.93,232l0,0,0,0a3.07,3.07,0,0,0-.17.31,1.22,1.22,0,0,0-.07.17h0a.36.36,0,0,0,0,.09,0,0,0,0,0,0,0,.14.14,0,0,0,0,.06h-.09l-1.93-.94s0,0,0,0a3.37,3.37,0,0,1-1-2.89.84.84,0,0,1,.72-.72l.26,0a3.35,3.35,0,0,1,2.09.55l.06,0h0a.87.87,0,0,0-.07.17.61.61,0,0,0,0,.12.14.14,0,0,0,0,.06h0a3.34,3.34,0,0,0,.32,2.84l0,0Z"/><path class="cls-16" d="M71.81,231.76l0,0a3.35,3.35,0,0,0-2.09.55c.06.13.11.26.16.39h-.09c0-.05,0-.11-.07-.17s0-.11-.07-.17a1.92,1.92,0,0,0-.18-.31s0,0,0,0l0,0,0,0s0,0,0,0h0a3.38,3.38,0,0,0,.5-1.75,3.33,3.33,0,0,0-.19-1.09h0a1.34,1.34,0,0,0-.07-.18c0-.06,0-.12-.07-.17h0l0,0h0l0,0a3.35,3.35,0,0,1,2.09-.55l.26,0a.84.84,0,0,1,.72.72A3.37,3.37,0,0,1,71.81,231.76Z"/><path class="cls-16" d="M71.79,228.13a3.35,3.35,0,0,0-2.09.55,3.72,3.72,0,0,0-.19-.34,3.43,3.43,0,0,0,.53-1.82,3.3,3.3,0,0,0-.18-1.1s0,0,0,0Z"/><path class="cls-16" d="M70,230.17a3.4,3.4,0,0,1-.53,1.82l-.06.08v-3.65s0,0,0,0l0,0,0,0,0,0,.05.07a3.72,3.72,0,0,1,.19.34c.06.13.11.26.16.39A3.3,3.3,0,0,1,70,230.17Z"/><path class="cls-16" d="M66.83,228.34a3.72,3.72,0,0,0-.19.34,3.35,3.35,0,0,0-2.09-.55l1.94-2.74s0,0,0,0a3.3,3.3,0,0,0-.18,1.1A3.34,3.34,0,0,0,66.83,228.34Z"/><path class="cls-16" d="M66.93,228.34l0,0,0,0v3.65a.56.56,0,0,1,0-.08,3.41,3.41,0,0,1-.35-2.92c0-.13.1-.26.16-.39a3.72,3.72,0,0,1,.19-.34l0-.08,0,0Z"/><path class="cls-16" d="M66.38,233.82a3.41,3.41,0,0,1,.33-1.44,3.45,3.45,0,0,0-2.42-.58.85.85,0,0,0-.72.73,3.39,3.39,0,0,0,3.84,3.84.35.35,0,0,0,.14,0A3.26,3.26,0,0,1,66.38,233.82Z"/><path class="cls-16" d="M71.81,235.41a3.37,3.37,0,0,1-2.89,1h0l-.1,0A3.25,3.25,0,0,0,70,233.82a3.38,3.38,0,0,0-.19-1.09h0c0-.05,0-.11-.07-.17s0-.11-.07-.17l.07,0c.06.13.11.26.16.39l1.93-.94.26,0a.85.85,0,0,1,.72.73A3.36,3.36,0,0,1,71.81,235.41Z"/><path class="cls-16" d="M69.44,228.39s0,0,0,0v3.5a3.16,3.16,0,0,0-.77-.82.84.84,0,0,0-1,0,3.38,3.38,0,0,0-.78.82v-3.5l0,0,0,0,0,0,0,0a3.34,3.34,0,0,1,.78-.81.84.84,0,0,1,1,0,3.21,3.21,0,0,1,.78.82l0,0,0,0Z"/><path class="cls-16" d="M71.79,231.78l-1.93.94c0-.13-.1-.26-.16-.39A3.35,3.35,0,0,1,71.79,231.78Z"/><path class="cls-16" d="M70,233.82a3.36,3.36,0,0,1-1.15,2.55l-.21.17a.84.84,0,0,1-1,0,1.73,1.73,0,0,1-.21-.17,3.42,3.42,0,0,1-1-3.65c0-.13.1-.26.16-.39h0a3.72,3.72,0,0,1,.19-.34l0-.07a3.38,3.38,0,0,1,.78-.82.84.84,0,0,1,1,0,3.16,3.16,0,0,1,.77.82h0l.05.07a3.72,3.72,0,0,1,.19.34c.06.13.11.26.16.39A3.38,3.38,0,0,1,70,233.82Z"/><path class="cls-16" d="M66.88,221.41l0-.07a3.39,3.39,0,0,1,.83-4.55.84.84,0,0,1,1,0A3.37,3.37,0,0,1,70,219.51a3.47,3.47,0,0,1-.53,1.83l-.05.07"/><path class="cls-16" d="M66.88,225.07h0l0-.07a3,3,0,0,1-.53-1.7,2.88,2.88,0,0,1,.18-1c0-.13.1-.25.16-.37s.12-.21.19-.31l0-.07a3.13,3.13,0,0,1,.78-.76.87.87,0,0,1,1,0,3.31,3.31,0,0,1,.78.76l.05.07c.07.1.13.21.19.31s.11.24.16.37a2.88,2.88,0,0,1,.18,1,3,3,0,0,1-.53,1.7l-.05.07"/><path class="cls-16" d="M66.88,232.29h0l0-.07a3,3,0,0,1-.53-1.69,2.87,2.87,0,0,1,.18-1,3.92,3.92,0,0,1,.16-.36,2.32,2.32,0,0,1,.19-.31l0-.08a3.27,3.27,0,0,1,.78-.75.9.9,0,0,1,1,0,3.13,3.13,0,0,1,.78.76l.05.07a2.32,2.32,0,0,1,.19.31,3.92,3.92,0,0,1,.16.36,2.87,2.87,0,0,1,.18,1,3,3,0,0,1-.53,1.69l-.05.07"/><path class="cls-16" d="M70,226.92a3.09,3.09,0,0,1-.53,1.72l-.05.08,0,0,0-.05,0,0,0,0a3.35,3.35,0,0,0-.78-.77.87.87,0,0,0-1,0,3.17,3.17,0,0,0-.78.77l0,0,0,0,0,.05,0,0,0-.08a3.07,3.07,0,0,1-.35-2.76c0-.13.1-.25.16-.37a3.37,3.37,0,0,1,.19-.32l0-.07a3.17,3.17,0,0,1,.78-.77.87.87,0,0,1,1,0,3.17,3.17,0,0,1,.78.77l.05.07a3.37,3.37,0,0,1,.19.32c.06.12.11.24.16.37A3,3,0,0,1,70,226.92Z"/><path class="cls-16" d="M70,234a2.91,2.91,0,0,1-1.15,2.29l-.21.16a.94.94,0,0,1-1,0,1.92,1.92,0,0,1-.21-.16A2.91,2.91,0,0,1,66.3,234a2.72,2.72,0,0,1,.18-1,2.73,2.73,0,0,1,.35-.65l0-.07a3.06,3.06,0,0,1,.78-.74.94.94,0,0,1,1,0,3.23,3.23,0,0,1,.78.74.43.43,0,0,1,0,.07,1.57,1.57,0,0,1,.2.3,3.73,3.73,0,0,1,.16.35A2.72,2.72,0,0,1,70,234Z"/><path class="cls-18" d="M212.45,261.44c.06-1.22.2-3.13.51-5.31a.64.64,0,0,0-.75-.71c-2.14.43-4,.67-5.21.8a.64.64,0,0,0-.37,1.1c1.32,1.23,3.47,3.31,4.74,4.54A.64.64,0,0,0,212.45,261.44Z"/><path class="cls-18" d="M221.27,252.55l.74-.38h0c.3-.16.59-.32.87-.49s.8-.51,1.18-.79l0,0a9.53,9.53,0,0,0,1.51-1.38,10.49,10.49,0,0,0,1.49-2.13l.19-.38.09-.17.07-.15c.14-.3.26-.59.37-.89l.11-.3.12-.35.09-.28,0-.11c0-.08.05-.16.07-.25s.09-.31.12-.46.08-.29.11-.43v0a23.7,23.7,0,0,0,.46-3.13c0-.16,0-.32,0-.47s0-.41,0-.6,0-.15,0-.22h0a.63.63,0,0,0-.7-.67A19.21,19.21,0,0,0,220,241a10.19,10.19,0,0,0-3.12,3.05c-1.88,2.85-3,6.76-3.58,10.27a.63.63,0,0,0,.77.73,39,39,0,0,0,5.23-1.59C219.94,253.16,220.62,252.87,221.27,252.55ZM223.93,241a.6.6,0,1,1,.14.83A.59.59,0,0,1,223.93,241Z"/><path class="cls-18" d="M214.43,267.93c0-.66.11-1.7.28-2.88a.35.35,0,0,0-.41-.39c-1.16.23-2.18.37-2.83.44a.34.34,0,0,0-.2.59c.71.67,1.88,1.8,2.57,2.47A.35.35,0,0,0,214.43,267.93Z"/><path class="cls-18" d="M219.22,263.1c.14-.06.27-.13.4-.2h0l.47-.27c.23-.14.44-.28.64-.43h0a5.89,5.89,0,0,0,.82-.75,6.38,6.38,0,0,0,.81-1.16l.1-.21,0-.09a.2.2,0,0,1,0-.08c.07-.16.14-.32.2-.49l.06-.16.06-.19,0-.15,0-.06a.5.5,0,0,1,0-.13l.06-.25.06-.24h0a11.65,11.65,0,0,0,.25-1.7,2.29,2.29,0,0,0,0-.25c0-.12,0-.23,0-.33a.49.49,0,0,0,0-.12h0a.35.35,0,0,0-.38-.36,10.44,10.44,0,0,0-4.55,1.36,5.92,5.92,0,0,0-1,.78,5.2,5.2,0,0,0-.72.88,15.45,15.45,0,0,0-1.95,5.58.35.35,0,0,0,.42.4,22,22,0,0,0,2.84-.87C218.5,263.43,218.87,263.28,219.22,263.1Zm1.45-6.27a.32.32,0,0,1,.45-.08.33.33,0,0,1,.07.45.32.32,0,0,1-.45.08A.31.31,0,0,1,220.67,256.83Z"/><path class="cls-18" d="M197.77,261.72c0-.66.11-1.7.28-2.88a.35.35,0,0,0-.41-.39c-1.16.23-2.17.37-2.83.44a.34.34,0,0,0-.2.59l2.58,2.47A.34.34,0,0,0,197.77,261.72Z"/><path class="cls-18" d="M202.56,256.89c.14-.07.27-.13.4-.21h0c.17-.08.32-.17.48-.26s.43-.28.63-.43l0,0a5.32,5.32,0,0,0,.82-.74,6.75,6.75,0,0,0,.81-1.16l.1-.21,0-.09a.59.59,0,0,1,0-.08c.07-.16.14-.33.2-.49l.06-.16.06-.19,0-.15s0,0,0-.06a.74.74,0,0,1,0-.14l.06-.25.06-.23h0a11.85,11.85,0,0,0,.25-1.7,2.28,2.28,0,0,0,0-.26c0-.11,0-.22,0-.33a.45.45,0,0,0,0-.11h0a.34.34,0,0,0-.38-.36,10.44,10.44,0,0,0-4.55,1.36,5.92,5.92,0,0,0-1,.78,5.2,5.2,0,0,0-.72.88,15.25,15.25,0,0,0-1.94,5.58.33.33,0,0,0,.41.39,21.93,21.93,0,0,0,2.84-.86C201.84,257.22,202.21,257.06,202.56,256.89Zm1.45-6.27a.32.32,0,1,1,.07.45A.32.32,0,0,1,204,250.62Z"/><path class="cls-7" d="M209.44,270.16a3.16,3.16,0,0,0-6.31,0"/><path class="cls-7" d="M231,266.68a3.16,3.16,0,0,0-6.31,0"/><path class="cls-7" d="M233.44,259.06a3.16,3.16,0,0,0-6.31,0"/><path class="cls-7" d="M211.41,240.89a3.15,3.15,0,0,0-6.3,0"/><path class="cls-7" d="M218.1,235.81a3.16,3.16,0,0,0-6.31,0"/><path class="cls-7" d="M201.44,268.28a3.16,3.16,0,0,0-6.31,0"/><path class="cls-7" d="M202,276.12a3.15,3.15,0,1,0-6.3,0"/><circle class="cls-19" cx="125.77" cy="378.92" r="13.55"/><circle class="cls-1" cx="125.77" cy="378.92" r="8.73"/><circle class="cls-19" cx="157.95" cy="353.51" r="13.55"/><circle class="cls-1" cx="157.95" cy="353.51" r="8.73"/><text class="cls-20" transform="translate(121.57 384.05)">1</text><text class="cls-20" transform="translate(153.76 358.07)">2</text><circle class="cls-19" cx="171.79" cy="299.29" r="13.55"/><circle class="cls-1" cx="171.79" cy="299.29" r="8.73"/><text class="cls-20" transform="translate(167.6 303.86)">4</text><circle class="cls-19" cx="202.85" cy="324.14" r="13.55"/><circle class="cls-1" cx="202.85" cy="324.14" r="8.73"/><text class="cls-20" transform="translate(198.65 328.71)">3</text><circle class="cls-19" cx="155.98" cy="267.39" r="13.55"/><circle class="cls-1" cx="155.98" cy="267.39" r="8.73"/><text class="cls-20" transform="translate(151.78 271.96)">5</text><circle class="cls-19" cx="224.87" cy="300.14" r="13.55"/><circle class="cls-1" cx="224.87" cy="300.14" r="8.73"/><text class="cls-20" transform="translate(220.68 304.71)">6</text><path class="cls-18" d="M91.77,261.2c4-11.09,11.12-8,15.81-7.76,1.92.12,13.58-3.12,15.57,7.76,1.55,8.52-7.67,17.93-16.33,17.93S88.84,269.36,91.77,261.2Z"/><line class="cls-8" x1="108.61" y1="258.4" x2="108.61" y2="249.02"/><path class="cls-17" d="M106.33,256.24s.6,2.52,2.4,2.4,4.21-2.28,4.21-2.28"/><path class="cls-8" d="M112.17,249.24c-1,.66-4,3.67-3.32,4.72s4.64-.25,5.69-.91a2.24,2.24,0,1,0-2.37-3.81Z"/><rect class="cls-8" x="264.89" y="374.96" width="3.96" height="39.23" rx="1.98"/><rect class="cls-8" x="260.57" y="374.96" width="3.96" height="39.23" rx="1.98"/><rect class="cls-8" x="256.26" y="374.96" width="3.96" height="39.23" rx="1.98"/><rect class="cls-8" x="251.94" y="374.96" width="3.96" height="39.23" rx="1.98"/><rect class="cls-8" x="247.62" y="374.96" width="3.96" height="39.23" rx="1.98"/><rect class="cls-8" x="243.3" y="374.96" width="3.96" height="39.23" rx="1.98"/><rect class="cls-8" x="238.98" y="374.96" width="3.96" height="39.23" rx="1.98"/><rect class="cls-8" x="234.66" y="374.96" width="3.96" height="39.23" rx="1.98"/><rect class="cls-8" x="230.34" y="374.96" width="3.96" height="39.23" rx="1.98"/><rect class="cls-21" x="229.26" y="398" width="41.03" height="5.76"/><rect class="cls-13" x="224.58" y="412.39" width="50.39" height="3.24" rx="1.62"/><line class="cls-13" x1="262.14" y1="396.42" x2="262.14" y2="383.15"/><line class="cls-13" x1="255.37" y1="396.14" x2="255.37" y2="376.94"/><line class="cls-13" x1="249.44" y1="390.21" x2="249.44" y2="396.42"/><line class="cls-13" x1="240.68" y1="396.71" x2="240.68" y2="381.74"/><line class="cls-22" x1="81.15" y1="188.05" x2="42.19" y2="188.05"/><line class="cls-22" x1="196.35" y1="210.63" x2="196.35" y2="140.61"/><path class="cls-22" d="M100.35,100v18.79A17.35,17.35,0,0,1,83,136.09H60.82"/><line class="cls-22" x1="240.97" y1="240" x2="284.52" y2="240"/><line class="cls-22" x1="120.68" y1="351.25" x2="65.34" y2="351.25"/><path class="cls-22" d="M234.75,324.14v15.74a11.37,11.37,0,0,1-11.37,11.37h-6.06A11.37,11.37,0,0,0,206,362.62v24.23"/><circle class="cls-19" cx="244.35" cy="260.61" r="13.55"/><circle class="cls-1" cx="244.35" cy="260.61" r="8.73"/><text class="cls-20" transform="translate(240.16 265.18)">7</text><circle class="cls-19" cx="240.68" cy="225.03" r="13.55"/><circle class="cls-1" cx="240.68" cy="225.03" r="8.73"/><text class="cls-20" transform="translate(236.49 229.6)">8</text><circle class="cls-19" cx="204.26" cy="217.98" r="13.55"/><circle class="cls-1" cx="204.26" cy="217.98" r="8.73"/><text class="cls-20" transform="translate(200.07 222.54)">9 </text><circle class="cls-19" cx="166.99" cy="196.52" r="13.55"/><circle class="cls-1" cx="166.99" cy="196.52" r="8.73"/><text class="cls-20" transform="translate(158.8 201.08)">10</text><circle class="cls-19" cx="135.37" cy="189.46" r="13.55"/><circle class="cls-1" cx="135.37" cy="189.46" r="8.73"/><text class="cls-20" transform="translate(128.17 194.03)">11</text><circle class="cls-19" cx="96.97" cy="212.05" r="13.55"/><circle class="cls-1" cx="96.97" cy="212.05" r="8.73"/><text class="cls-20" transform="translate(88.77 216.61)">12</text><circle class="cls-19" cx="104.02" cy="168.85" r="13.55"/><circle class="cls-1" cx="104.02" cy="168.85" r="8.73"/><text class="cls-20" transform="translate(95.83 173.41)">13</text><circle class="cls-19" cx="153.44" cy="150.49" r="13.55"/><circle class="cls-1" cx="153.44" cy="150.49" r="8.73"/><text class="cls-20" transform="translate(146.24 155.06)">14</text><circle class="cls-19" cx="152.87" cy="114.64" r="13.55"/><circle class="cls-1" cx="152.87" cy="114.64" r="8.73"/><text class="cls-20" transform="translate(145.68 119.2)">15</text><path class="cls-17" d="M67,222.62a.43.43,0,0,0,0-.07,3.06,3.06,0,0,1,.75-4.1.75.75,0,0,1,.92,0,3.07,3.07,0,0,1,.91,1.11,3.06,3.06,0,0,1-.17,3,.43.43,0,0,0,0,.07"/><path class="cls-17" d="M67,225.91h0a.18.18,0,0,1,0-.07,2.72,2.72,0,0,1-.48-1.53,2.82,2.82,0,0,1,.16-.92,2,2,0,0,1,.15-.33c0-.1.11-.19.17-.29l0-.06a2.91,2.91,0,0,1,.71-.69.81.81,0,0,1,.92,0,3.06,3.06,0,0,1,.7.69l0,.06a2.19,2.19,0,0,1,.17.29,2,2,0,0,1,.15.33,2.58,2.58,0,0,1,.16.92,2.65,2.65,0,0,1-.48,1.53.43.43,0,0,1,0,.07"/><path class="cls-17" d="M67,232.42h0l0-.06a2.69,2.69,0,0,1-.48-1.52,2.82,2.82,0,0,1,.16-.92,1.87,1.87,0,0,1,.15-.32,2.61,2.61,0,0,1,.17-.28.43.43,0,0,1,0-.07,2.88,2.88,0,0,1,.71-.68.81.81,0,0,1,.92,0,3,3,0,0,1,.7.68.43.43,0,0,1,0,.07,1.61,1.61,0,0,1,.17.28,1.87,1.87,0,0,1,.15.32,2.58,2.58,0,0,1,.16.92,2.61,2.61,0,0,1-.48,1.52l0,.06"/><path class="cls-17" d="M69.84,227.58a2.74,2.74,0,0,1-.48,1.56l0,.06,0,0,0,0,0,0,0,0a3.1,3.1,0,0,0-.7-.7.81.81,0,0,0-.92,0,2.91,2.91,0,0,0-.7.7s0,0,0,0l0,0,0,0s0,0,0,0l0-.06a2.74,2.74,0,0,1-.48-1.56,2.94,2.94,0,0,1,.16-.94,2.41,2.41,0,0,1,.15-.33A2.75,2.75,0,0,1,67,226l0-.06a2.74,2.74,0,0,1,.7-.7.81.81,0,0,1,.92,0,2.91,2.91,0,0,1,.7.7l0,.06a1.69,1.69,0,0,1,.17.29,2.41,2.41,0,0,1,.15.33A2.69,2.69,0,0,1,69.84,227.58Z"/><path class="cls-17" d="M69.84,234a2.65,2.65,0,0,1-1,2.07l-.2.14a.85.85,0,0,1-.92,0L67.5,236a2.58,2.58,0,0,1-.87-3,2.2,2.2,0,0,1,.15-.31,2.61,2.61,0,0,1,.17-.28l0-.06a2.94,2.94,0,0,1,.7-.66.81.81,0,0,1,.92,0,2.8,2.8,0,0,1,.71.66l0,.06a2.61,2.61,0,0,1,.17.28,2.2,2.2,0,0,1,.15.31A2.65,2.65,0,0,1,69.84,234Z"/><path class="cls-17" d="M183.06,354.34a.43.43,0,0,0,0-.07,3.06,3.06,0,0,1-.17-3,3.07,3.07,0,0,1,.91-1.11.75.75,0,0,1,.92,0,3.06,3.06,0,0,1,1.23,2.45,3.09,3.09,0,0,1-.48,1.65l-.05.07"/><path class="cls-17" d="M183.06,357.63h0a.43.43,0,0,1,0-.07,2.62,2.62,0,0,1-.48-1.53,2.58,2.58,0,0,1,.16-.92,2.41,2.41,0,0,1,.15-.33,1.61,1.61,0,0,1,.17-.28.43.43,0,0,1,0-.07,3.27,3.27,0,0,1,.7-.69.81.81,0,0,1,.92,0,3.06,3.06,0,0,1,.7.69.18.18,0,0,1,.05.07,2.61,2.61,0,0,1,.17.28,2.41,2.41,0,0,1,.15.33,2.82,2.82,0,0,1,.16.92,2.7,2.7,0,0,1-.48,1.53.18.18,0,0,1-.05.07"/><path class="cls-17" d="M183.06,364.15h0l0-.06a2.61,2.61,0,0,1-.48-1.52,2.58,2.58,0,0,1,.16-.92,1.87,1.87,0,0,1,.15-.32A1.61,1.61,0,0,1,183,361l0-.07a3,3,0,0,1,.7-.68.81.81,0,0,1,.92,0,2.83,2.83,0,0,1,.7.68l.05.07a2.61,2.61,0,0,1,.17.28,1.87,1.87,0,0,1,.15.32,2.82,2.82,0,0,1,.16.92,2.69,2.69,0,0,1-.48,1.52l-.05.06"/><path class="cls-17" d="M185.91,359.3a2.82,2.82,0,0,1-.48,1.56l-.05.06v0l0,0,0,0v0a2.91,2.91,0,0,0-.7-.7.81.81,0,0,0-.92,0,3.1,3.1,0,0,0-.7.7l0,0,0,0,0,0,0,0,0-.06a2.74,2.74,0,0,1-.48-1.56,2.69,2.69,0,0,1,.16-.94,2.41,2.41,0,0,1,.15-.33,2.19,2.19,0,0,1,.17-.29l0-.06a2.91,2.91,0,0,1,.7-.7.81.81,0,0,1,.92,0,2.74,2.74,0,0,1,.7.7l.05.06c.06.1.12.19.17.29a2.07,2.07,0,0,1,.15.34A2.84,2.84,0,0,1,185.91,359.3Z"/><path class="cls-17" d="M185.91,365.67a2.63,2.63,0,0,1-1,2.07,1.33,1.33,0,0,1-.19.14.85.85,0,0,1-.92,0l-.19-.14a2.65,2.65,0,0,1-1-2.07,2.42,2.42,0,0,1,.16-.89c0-.1.09-.21.14-.31a2.68,2.68,0,0,1,.18-.28.21.21,0,0,1,0-.06,2.94,2.94,0,0,1,.7-.66.81.81,0,0,1,.92,0,2.76,2.76,0,0,1,.7.66l.05.06a2.61,2.61,0,0,1,.17.28c.06.1.1.21.15.31A2.65,2.65,0,0,1,185.91,365.67Z"/></svg>