<?xml version="1.0" encoding="utf-8"?>
<!-- Generator: Adobe Illustrator 25.0.0, SVG Export Plug-In . SVG Version: 6.00 Build 0)  -->
<svg version="1.1" id="Layer_1" xmlns="http://www.w3.org/2000/svg" xmlns:xlink="http://www.w3.org/1999/xlink" x="0px" y="0px"
	 viewBox="0 0 343.1 288" style="enable-background:new 0 0 343.1 288;" xml:space="preserve">
<style type="text/css">
	.st0{fill:transparent;}
	.st1{fill:#8DD696;}
	.st2{opacity:0.59;fill:#31A064;enable-background:new    ;}
	.st3{fill:#31A064;}
	.st4{fill:#5D8BF4;}
	.st5{opacity:0.15;fill:#CDDEFF;enable-background:new    ;}
	.st6{fill:none;stroke:#CDDEFF;stroke-width:2;stroke-linecap:round;stroke-linejoin:round;}
	.st7{opacity:0.32;fill:#CDDEFF;enable-background:new    ;}
	.st8{opacity:0.17;fill:#31A064;enable-background:new    ;}
	.st9{opacity:0.59;}
	.st10{fill:#FFFFFF;}
	.st11{fill:#FF7272;stroke:#FF5A62;stroke-width:0.25;stroke-linecap:round;stroke-linejoin:round;}
	.st12{stroke:#000000;stroke-width:0.25;stroke-linecap:round;stroke-linejoin:round;}
	.st13{fill:#66BF8C;}
	.st14{fill:#FF8243;stroke:#FF8243;stroke-linecap:round;stroke-linejoin:round;}
	.st15{opacity:0.55;fill:#CDDEFF;enable-background:new    ;}
	.st16{fill:none;stroke:#31A064;stroke-width:4;stroke-linecap:round;stroke-linejoin:round;}
	.st17{fill:none;stroke:#0E7038;stroke-width:0.75;stroke-linecap:round;stroke-linejoin:round;}
	.st18{fill:none;stroke:#FF7272;stroke-width:5;stroke-linecap:round;stroke-linejoin:round;}
	.st19{fill:none;stroke:#FFFFFF;stroke-linecap:round;stroke-linejoin:round;}
	.st20{fill:none;stroke:#FFFFFF;stroke-width:3;stroke-linecap:round;stroke-linejoin:round;}
	.st21{fill:#DCDFF9;}
	.st22{fill:none;stroke:#FFFFFF;stroke-width:2;stroke-linecap:round;stroke-linejoin:round;}
	.st23{fill:none;stroke:#DCDFF9;stroke-linecap:round;stroke-linejoin:round;}
	.st24{fill:none;stroke:#31A064;stroke-linecap:round;stroke-linejoin:round;}
	
		.st25{opacity:0.32;fill:none;stroke:#CDDEFF;stroke-width:2;stroke-linecap:round;stroke-linejoin:round;enable-background:new    ;}
	.st26{fill:none;stroke:#FFFFFF;stroke-width:7;stroke-linecap:round;stroke-linejoin:round;}
	.st27{opacity:0.44;fill:#CDDEFF;enable-background:new    ;}
	.st28{fill:#D84403;}
	.st29{fill:#FFBC97;stroke:#FFBC97;stroke-linecap:round;stroke-linejoin:round;}
	.st30{fill:#D84403;stroke:#D84403;stroke-linecap:round;stroke-linejoin:round;}
	.st31{opacity:0.4;fill:#FF8243;stroke:#FF8243;stroke-linecap:round;stroke-linejoin:round;enable-background:new    ;}
	.st32{fill:none;stroke:#FFBC97;stroke-linecap:round;stroke-linejoin:round;}
	.st33{fill:#5EA4F7;stroke:#5EA4F7;stroke-linecap:round;stroke-linejoin:round;}
	.st34{fill:#2473FF;stroke:#2473FF;stroke-linecap:round;stroke-linejoin:round;}
	.st35{fill:#BFC7F7;}
	.st36{fill:#FFBD35;}
	.st37{fill:#FC997C;stroke:#FC997C;stroke-linecap:round;stroke-linejoin:round;}
	.st38{fill:#5463FF;}
</style>
<rect x="1" y="-1" class="st0" width="341" height="289"/>
<path class="st1" d="M330.3,223.5l-0.1,0.4l0,0l-3.6,14.9c-0.6,2.3-2.3,4.1-4.5,4.8l-6.4,1.9c-1.8,0.6-3.3,1.9-4.1,3.7l-6.4,14.9
	c-1,2.3-3.2,3.8-5.7,4l-53.8,2.6c-1.9,0.1-3.8-0.6-5.1-2l-13.8-14.3c-2.4-2.5-6.4-2.7-9-0.4l-16.3,13.6c-1.7,1.5-4.1,1.9-6.2,1.2
	l-13.2-4.2l-30.2-9.6c-1.3-0.4-2.5-1.3-3.3-2.5l-20.6-28.9c-1.6-2.3-4.5-3.3-7.2-2.6l-18.4,5.2c-2.6,0.7-5.4-0.2-7-2.4l-19.4-25.2
	c-0.9-1.1-1.3-2.5-1.4-3.9L73.9,175c-0.1-2.1-1.1-4-2.7-5.2l-19.1-13.7c-1.4-1-2.3-2.5-2.6-4.1l-3.9-18.6c-0.1-0.6-0.2-1.1-0.2-1.7
	c0-0.3,0-0.5,0.1-0.8c0.3-1.7,1.2-3.3,2.6-4.3l2.6-1.9L53,123c1.8-1.3,2.8-3.5,2.7-5.7l-0.3-6c-0.1-2.8-2-5.2-4.7-6l-8.1-2.5
	c-1.5-0.5-2.8-1.5-3.7-2.8L24.8,77.8c-0.6-0.8-0.9-1.8-1-2.8l-0.4-3.3l-3-26.7c-0.2-1.3,0.1-2.6,0.7-3.7L27,29.9
	c0.2-0.4,0.4-0.8,0.8-1.1c2.3-2.9,6.5-3.3,9.4-1c0,0,0,0,0,0c0.2,0.1,0.3,0.3,0.5,0.4l4.7,4.6c1.2,1.3,2.9,2,4.7,2h14.4
	c0.3,0,0.6,0,0.9-0.1c0.9-1.2,1.3-2.6,1.3-4v-0.2c0-3.5,2.6-6.4,6.1-6.8l0,0c0.3,0,0.5-0.1,0.9-0.1c2.5,0,4.8,1.3,6,3.4l11.8,20.2
	c0.1,0.2,0.2,0.4,0.3,0.6l3.6-2.9l3.3,7.3c1.3,2.9,3.9,5,6.9,5.7l11.9,2.7c1.2,0.3,2.2,0.9,3.1,1.7l5.6,5.4c1.3,1.3,3,1.9,4.8,1.8
	l48.3-1.7c3-0.1,5.5-2.2,6.2-5.1c0.1-0.5,0.2-1,0.2-1.5v-4.9c0-3.3,1.6-6.3,4.2-8.3c0.7-0.5,1.4-0.9,2.2-1.2l12.7-5
	c1-0.4,2-0.6,3-0.7c0.8-0.1,1.6,0,2.5,0.1l36,6.2l6.2,1c1.8,0.3,3.5,1.4,4.5,3l1.1,1.8c0.5,0.4,1,0.9,1.3,1.5l15.5,24.9
	c0.9,1.3,1.3,2.9,1,4.5l-0.3,1.8c-0.1,0.8-0.3,1.6-0.7,2.3l-0.5,1l-6,11.3c-0.1,0.2-0.2,0.5-0.3,0.7c-0.5,1.4-0.6,2.9-0.3,4.3l9,34
	l0,0c0.5,0.4,1,0.7,1.6,0.9c0.5,0.2,1,0.3,1.6,0.4l14.8,2.2c0.7,0.1,1.5,0.3,2.1,0.7h0.1c2.1,1.1,3.4,3.2,3.4,5.5l0,0l0.1,1l0.3,5.4
	c0.1,1.5-0.3,2.9-1.2,4.1l-3.3,4.7l-2.4,3.4l-1.8,2.6c-0.7,1-1.1,2.1-1.1,3.2l-0.6,7.8c-0.2,2.3,0.8,4.5,2.6,5.8l1.1,0.9l14.1,10.7
	l5.3,4l17.3,13C330,218.1,330.9,220.8,330.3,223.5z"/>
<path class="st2" d="M298,149.2L298,149.2c-1,0.7-2.2,1.3-3.3,1.7l-6.9,2.2c-1.2,0.4-2.5,0.6-3.8,0.6h-9.2c-2.2,0-4.3,0.6-6.1,1.6
	c-6.1,3.4-13.8,1.1-17.1-4.9c-0.6-1.1-1.1-2.3-1.3-3.6l-3.5-17.4l-4-20.4c-1.1-5.6,1.6-11.2,6.7-13.7l2-1c0.8-0.4,1.7-0.7,2.6-1
	l14.2-3.5c1.2-0.3,2.5-0.4,3.8-0.3l-6,11.6l0,0c-0.8,1.5-1,3.3-0.5,4.9l9,34l0,0c0.9,0.7,2,1.2,3.1,1.3l7.5,1.1l7.3,1
	C295.3,144,297.5,146.3,298,149.2z"/>
<path class="st3" d="M277.6,141.4l7.6,1.1c-0.6,0.5-1.4,0.7-2.1,0.6L257,141c-1.1-0.1-2.1-0.9-2.5-1.9c-0.6-1.5,0.2-3.2,1.7-3.8
	c0.3-0.1,0.6-0.2,0.8-0.2l11.1-0.9c1.6-0.2,2.8-1.6,2.7-3.2c0-0.3-0.1-0.5-0.2-0.8l-0.6-1.7c-0.4-1-1.2-1.7-2.3-1.9l-4.7-0.9
	c-1-0.2-1.8-0.8-2.2-1.8l-3.5-8c-0.7-1.5,0-3.3,1.5-4c0,0,0,0,0,0l0,0c1.9-0.9,3.8-2.3,2.6-4.6c-1.8-3.4,2.9-5.7,4.1-6.2
	c0.1,0,0.2-0.1,0.3-0.1c-0.8,1.5-1,3.3-0.5,4.9l9,34l0,0C275.3,140.7,276.4,141.2,277.6,141.4z"/>
<path class="st4" d="M186.7,48.5c-2.7,1.9-4.3,5-4.2,8.3v1.6c-0.1,0.6-0.2,1.3-0.2,1.9v2.9c-0.7,2.9-3.3,5-6.2,5.1L127.7,70
	c-1.8,0.1-3.5-0.6-4.8-1.8l-5.6-5.4c-0.9-0.8-1.9-1.4-3.1-1.7l-11.9-2.7c-3.1-0.7-5.6-2.8-6.9-5.7l-3.3-7.3l0,0l2.2-1.8
	c0.3-0.2,0.6-0.5,0.8-0.9l2.6-2c0.8-0.6,1.2-1.5,1.3-2.5l1.3-22.2c0-0.7,0.2-1.4,0.7-1.9l2.4-3l0,0l0.3-0.4c1.2-1.5,3.3-1.8,4.8-0.7
	l8.4,6c1.3,0.9,3,0.9,4.2-0.1l0.1-0.1l4.4-3.7h0.1l0.1-0.1l1.9-1.6c1.5-1.3,3.7-1.1,5,0.4c0,0,0,0,0,0l0.1,0.1l2.3,3
	c1.2,1.5,3.4,1.8,4.9,0.7c0,0,0,0,0,0l0.3-0.2l3.3-3.1c1.3-1.3,3.3-1.3,4.7-0.1l4.5,3.8c1.4,1.1,3.4,1.1,4.8-0.2l1.4-1.5
	c0.7-0.7,1.5-1,2.5-1.1c1.4,0,2.7,0.8,3.2,2.1c0.5,1.3,1.8,2.1,3.2,2.1h10.8c1.9,0,3.5,1.6,3.5,3.5v16.8c-0.6,0.1-1.2,0.4-1.7,0.9
	c-0.6,0.6-0.9,1.3-0.9,2.1c0,1.6-1.3,3-2.9,3h-3.4c-1.7,0-3,1.3-3,3c0,1.6,1.3,3,2.9,3h13.4V48.5z"/>
<path class="st2" d="M333.6,226.3l-3.4-2.5l0,0l-3.6,14.9c-0.6,2.3-2.3,4.1-4.5,4.8l-6.4,1.9c-1.8,0.6-3.3,1.9-4.1,3.7l-6.4,15
	c-1,2.3-3.2,3.8-5.7,4l-53.8,2.6c-1.9,0.1-3.8-0.6-5.1-2l-13.8-14.2c-2.4-2.5-6.4-2.7-9-0.4l-16.3,13.6c-1.7,1.5-4.1,1.9-6.2,1.2
	l-13.2-4.2l-30.2-9.6c-1.3-0.4-2.5-1.3-3.3-2.5l-20.6-28.9c-1.6-2.3-4.5-3.3-7.2-2.6l-18.4,5.2c-2.6,0.7-5.4-0.2-7-2.4l-19.4-25.2
	c-0.9-1.1-1.3-2.5-1.4-3.9L73.9,175c-0.1-2.1-1.1-4-2.7-5.2l-19.1-13.7c-1.4-1-2.3-2.5-2.6-4.1l-3.9-18.6c-0.1-0.6-0.2-1.1-0.2-1.7
	l-1.8,1.4c-2.2,1.6-3.2,4.3-2.6,6.9l4,19.3c0.4,1.7,1.3,3.2,2.7,4.2l19.8,14.2c1.8,1.2,2.8,3.2,2.8,5.4l0.6,20.6
	c0.1,1.4,0.5,2.8,1.4,4L92.4,234c1.7,2.2,4.6,3.2,7.3,2.5l19-5.4c2.8-0.8,5.8,0.3,7.5,2.6l21.3,29.9c0.9,1.2,2.1,2.1,3.5,2.5
	l29.2,9.2l15.8,5c2.2,0.7,4.7,0.2,6.5-1.2l17-14.1c2.8-2.3,6.8-2.1,9.3,0.5l14.3,14.8c1.4,1.4,3.3,2.2,5.3,2.1l55.7-2.7
	c2.6-0.1,5-1.7,6-4.1l6.7-15.5c0.8-1.8,2.4-3.3,4.3-3.9l6.6-2c2.3-0.7,4.1-2.6,4.7-4.9l3.9-15.8C336.7,230.8,335.8,228,333.6,226.3z
	"/>
<path class="st2" d="M42.8,37.6l-12.6,0.6c-1.5,0-2.6,1.3-2.6,2.7c0,0,0,0,0,0c0,0,0,0.1,0,0.1l0.3,4.4c0.1,1.3,1.1,2.4,2.5,2.5
	l2.2,0.2c0.9,0.1,1.8-0.3,2.3-1l3.1-3.7c0.6-0.8,1.6-1.2,2.5-1l2,0.3c1.1,0.2,2.2-0.3,2.8-1.3l0,0c0.7-1.3,0.3-2.9-1-3.6
	c0,0,0,0,0,0C43.8,37.7,43.3,37.6,42.8,37.6z"/>
<path class="st4" d="M76.2,48.3l1.8,5c0.3,0.8,0.7,1.5,1.3,2l1.6,1.4c1.2,1.1,1.8,2.8,1.6,4.4l0,0c-0.3,2.3-2.2,4-4.5,4.1h-0.1
	c-1.6,0.1-3.1-0.5-4.1-1.8l-2-2.5c-0.6-0.7-0.9-1.5-1.1-2.4v-0.2c-0.2-1.2-0.9-2.4-1.8-3.2L64,51.6c-1.3-1-2-2.5-1.9-4.1l0.2-2.4
	c0.1-2.1,1.5-3.9,3.5-4.4l0.5-0.2c1.9-0.5,3.9,0.1,5.1,1.6l3.9,4.8C75.7,47.2,76.1,47.7,76.2,48.3z"/>
<path class="st5" d="M115.6,20.9l8.3-1.5c0.8-0.1,1.6,0.3,2,1l0.7,1.4c0.4,0.9,1.4,1.3,2.3,1l3.7-1.2c0.9-0.3,1.8,0.1,2.3,0.9
	l2.5,4.5c0.5,0.9,0.3,2-0.5,2.5l-7,4.9c-0.3,0.2-0.5,0.5-0.6,0.8l-2.6,5.6c-0.4,1,0.1,2.2,1.1,2.6c0.3,0.1,0.5,0.1,0.8,0.1l0,0
	c1-0.1,2,0.6,2.1,1.6c0,0.2,0,0.4,0,0.6v0.2c-0.5,2.9-3.3,4.9-6.2,4.4c-0.5-0.1-1.1-0.3-1.6-0.5l-6.8-3.5c-3.3-1.7-5.1-5.4-4.4-9
	l0.8-3.9c0.1-0.3,0-0.7-0.1-1l-1.1-3c-1.2-3.2,0.4-6.7,3.5-7.9c0,0,0,0,0,0c0.2-0.1,0.5-0.2,0.8-0.2h0.1
	C115.5,20.9,115.6,20.9,115.6,20.9z"/>
<line class="st6" x1="169.1" y1="-4.7" x2="169.1" y2="6.6"/>
<path class="st7" d="M151,266.1c-1.4-0.4-2.6-1.3-3.5-2.5l-21.3-29.9c-1.7-2.4-4.7-3.4-7.5-2.6l-19.1,5.4c-2.7,0.8-5.6-0.2-7.3-2.5
	l-19.9-26.1c-0.9-1.1-1.4-2.5-1.4-4l-0.6-20.6c-0.1-2.1-1.1-4.1-2.8-5.4l-19.7-14.2c-1.4-1-2.4-2.5-2.7-4.2l-4-19.3
	c-0.5-2.6,0.5-5.3,2.6-6.9l1.8-1.4c0,0.6,0,1.1,0.2,1.7l3.9,18.6c0.3,1.6,1.3,3.1,2.6,4.1l19.1,13.7c1.7,1.2,2.7,3.2,2.7,5.2
	l0.6,19.9c0.1,1.4,0.6,2.7,1.4,3.9l6.9,9.1l12.4,16.2c1.7,2.1,4.4,3,7,2.4l18.4-5.2c2.7-0.8,5.6,0.3,7.2,2.6l20.5,28.8
	c0.8,1.1,2,2,3.3,2.5l30.1,9.6c-1.1,2.7-1.7,5.6-1.7,8.5v2.3L151,266.1z"/>
<path class="st8" d="M238.6,194.6l0.8-14c0.3-5.5-3.7-10.3-9.2-10.9l-14.5-1.8c-0.4-0.1-0.9-0.1-1.3-0.1c-3,0-14.5,0.5-15.2,1
	c-4,2.6-2.1,7.9-4.1,14.9c-1.6,5.5,1.6,11.3,7.1,12.9c0.8,0.2,1.7,0.4,2.6,0.4l3.1,0.1c1.3,0.1,2.6,0.4,3.9,0.9l12.4,5.4
	c5.3,2.3,11.4,0,13.8-5.3c0,0,0,0,0,0c0.3-0.7,0.6-1.5,0.7-2.2l0,0C238.6,195.6,238.6,195.1,238.6,194.6z"/>
<g class="st9">
	<path class="st10" d="M205.9,103.8c-0.1-1.7,1.2-3.1,2.9-3.2c1.7-0.1,3.1,1.2,3.2,2.9v0.3H205.9z"/>
	<path class="st10" d="M205.1,95.5c0-1.7,1.4-3,3-3s3,1.4,3,3H205.1z"/>
	<path class="st10" d="M197.2,98.3c-0.1-1.7,1.2-3.1,2.9-3.2c1.7-0.1,3.1,1.2,3.2,2.9v0.3H197.2z"/>
</g>
<g class="st9">
	<path class="st10" d="M137.7,86.9c0-1.1,0.9-1.9,1.9-1.9c1,0,1.8,0.8,1.9,1.7v0.2H137.7z"/>
	<path class="st10" d="M137.1,81.7c0.1-1.1,1-1.8,2-1.8c0.9,0.1,1.7,0.8,1.8,1.8H137.1z"/>
	<path class="st10" d="M132.1,83.4c-0.1-1,0.7-2,1.7-2.1s2,0.7,2.1,1.7c0,0.1,0,0.1,0,0.2v0.2H132.1z"/>
</g>
<path class="st10" d="M96.1,77.1c0-0.9,0.6-1.6,1.5-1.6s1.6,0.6,1.6,1.5v0.1L96.1,77.1z"/>
<path class="st10" d="M95.7,72.9c0-0.8,0.7-1.5,1.6-1.5c0.8,0,1.5,0.7,1.5,1.5c0,0,0,0,0,0H95.7z"/>
<path class="st10" d="M91.6,74.3c0-0.9,0.6-1.6,1.5-1.6c0.9,0,1.6,0.6,1.6,1.5v0.1H91.6z"/>
<path class="st1" d="M45.5,58.2c-0.1-1.7,1.2-3.1,2.9-3.2c1.7-0.1,3.1,1.2,3.2,2.9l0,0v0.3H45.5z"/>
<path class="st1" d="M44.6,49.9c0-1.7,1.4-3,3-3s3,1.4,3,3H44.6z"/>
<path class="st1" d="M36.7,52.7c-0.1-1.7,1.2-3.1,2.9-3.2s3.1,1.2,3.2,2.9v0.3H36.7z"/>
<path class="st10" d="M66.9,146.5c-0.1-1.2,0.8-2.3,2-2.4c1.2-0.1,2.3,0.8,2.4,2c0,0.1,0,0.2,0,0.2v0.2H66.9z"/>
<path class="st10" d="M66.3,140.5c-0.1-1.2,0.8-2.3,2.1-2.4c1.2-0.1,2.3,0.8,2.4,2.1c0,0.1,0,0.2,0,0.3H66.3z"/>
<path class="st10" d="M60.5,142.5c-0.1-1.2,0.9-2.2,2.1-2.3c1.2-0.1,2.2,0.9,2.3,2.1l0,0v0.2H60.5z"/>
<path class="st11" d="M153.9,43.1c0,0-0.5-6.5,4.7-8.2s8,1.2,8,1.2s0.6,7.1-4.8,8S153.9,43.1,153.9,43.1z"/>
<circle class="st12" cx="162.4" cy="37.1" r="0.6"/>
<path class="st11" d="M159.6,33.9c0,0-1.8-4-3.6-3.1S159.6,33.9,159.6,33.9z"/>
<path class="st11" d="M163.7,42.5c0,0-2.2,3.2-0.6,4.1S163.7,42.5,163.7,42.5z"/>
<path class="st11" d="M153.6,41.9c0,0-6.2-3.2-7.6-0.2S153.6,41.9,153.6,41.9z"/>
<path class="st11" d="M153.4,42.4c0,0-6.8,1.8-5.8,5S153.4,42.4,153.4,42.4z"/>
<path class="st11" d="M154.4,42.4c0,0-4.9,4.9-2.6,7.2S154.4,42.4,154.4,42.4z"/>
<path class="st3" d="M247.1,244.2c0,0,0.4-9.9,6-9.9s6.9,9.6,6.9,9.6L247.1,244.2z"/>
<path class="st2" d="M255.8,244c0,0-1.3-19.2,6-19.6c8.6-0.4,6.9,19.2,6.9,19.2L255.8,244z"/>
<path class="st3" d="M236,232.4c0,0-1.8-19.3,8.2-19.8c11.8-0.5,9.5,19.3,9.5,19.3L236,232.4z"/>
<path class="st2" d="M198.8,228.3c0,0-1.8-19.3,8.2-19.8c11.8-0.5,9.5,19.3,9.5,19.3L198.8,228.3z"/>
<path class="st13" d="M261.6,210.6c-0.1-1.7,1.2-3.1,2.9-3.2c1.7-0.1,3.1,1.2,3.2,2.9v0.3H261.6z"/>
<path class="st13" d="M260.7,202.3c0-1.7,1.4-3,3-3s3,1.4,3,3H260.7z"/>
<path class="st14" d="M198.7,232.8h49.6c0,0-6.3-9.5-24.8-9C202.3,224.5,198.7,232.8,198.7,232.8z"/>
<path class="st3" d="M155.2,248.2h17.8c0,0-2-9-8.3-9.6S155.2,248.2,155.2,248.2z"/>
<path class="st2" d="M168.8,248.3h9.8c0,0-1.1-4.9-4.6-5.3S168.8,248.3,168.8,248.3z"/>
<path class="st3" d="M186.2,246.2h14.8c0,0-1.7-7.4-6.9-7.9S186.2,246.2,186.2,246.2z"/>
<path class="st15" d="M136.3,48.3c0.1-2.6,2.3-4.6,5-4.5c2.5,0.1,4.4,2.1,4.5,4.5"/>
<path class="st15" d="M142.8,55.5c0.1-2.6,2.3-4.6,4.9-4.5c2.4,0.1,4.4,2.1,4.5,4.5"/>
<path class="st15" d="M128.8,54.9c0.2-2.6,2.4-4.6,5-4.4c2.4,0.2,4.2,2,4.4,4.4"/>
<path class="st16" d="M297.4,233.4c-0.2-2.2,0.1-4.4,0.7-6.5c1.7-6,5.1-6.7,5.1-6.7"/>
<path class="st16" d="M295.8,233.4c-0.3-3.4-0.1-6.8,0.5-10.1c0.9-4.5,3.4-5.6,3.4-5.6"/>
<line class="st16" x1="294.4" y1="233.4" x2="294.3" y2="216.9"/>
<path class="st16" d="M289.5,218c0,0,2.2,1.7,3.2,9.1c0.4,3,0.5,5,0.6,6.2"/>
<path class="st16" d="M285.5,220.2c0,0,3.7,1.1,5.3,6.7c0.7,2.1,0.9,4.3,0.7,6.5"/>
<path class="st17" d="M297.4,233.4c-0.2-2.2,0.1-4.4,0.7-6.5c1.7-6,5.1-6.7,5.1-6.7"/>
<path class="st17" d="M295.8,233.4c-0.3-3.4-0.1-6.8,0.5-10.1c0.9-4.5,3.4-5.6,3.4-5.6"/>
<line class="st17" x1="294.4" y1="233.4" x2="294.3" y2="216.9"/>
<path class="st17" d="M289.5,218c0,0,2.2,1.7,3.2,9.1c0.4,3,0.5,5,0.6,6.2"/>
<path class="st17" d="M285.5,220.2c0,0,3.7,1.1,5.3,6.7c0.7,2.1,0.9,4.3,0.7,6.5"/>
<line class="st18" x1="300.9" y1="233.4" x2="288.5" y2="233.4"/>
<line class="st19" x1="300.5" y1="233.4" x2="297.1" y2="233.4"/>
<path class="st19" d="M259.1,178h0.3c1,0,1.8,0.8,1.8,1.7c0,0,0,0,0,0v0.1l0,0"/>
<line class="st20" x1="106.9" y1="22.3" x2="106.6" y2="33.9"/>
<line class="st20" x1="106.3" y1="38.8" x2="106.3" y2="40.4"/>
<path class="st21" d="M35.9,112.2h-3.2c-3.2,0-5.8-2.6-5.8-5.8v-0.6c0-4.1,3.3-7.4,7.4-7.4h3.5c4.4,0,8.7-1.8,11.9-4.9l1.5-1.5
	c0.8-0.8,1.9-1.2,3-1.2h8.8c2.3,0,4.2,1.9,4.2,4.2l0,0v5.5c0,2.8-2.2,5-5,5l0,0c-1.1,0-1.9,0.9-1.9,1.9l0,0c0,2.2-1.8,4-4,4
	C49.5,111.8,36.3,112.2,35.9,112.2z"/>
<path class="st10" d="M35.9,110h-3.2c-3.2,0-5.8-2.6-5.8-5.8l0,0v-0.6c0-4.1,3.3-7.4,7.4-7.4h3.5c4.4,0,8.7-1.8,11.9-4.9l1.5-1.5
	c0.8-0.8,1.9-1.2,3-1.2h8.8c2.3,0,4.2,1.9,4.2,4.2l0,0v5.5c0,2.8-2.2,5-5,5l0,0c-1.1,0-1.9,0.9-1.9,1.9l0,0c0,2.2-1.8,4-4,4
	C49.5,109.5,36.3,110,35.9,110z"/>
<path class="st21" d="M311.4,203.9h4.3c4.3,0,7.8-3.5,7.8-7.8v-0.9c0-5.5-4.4-9.9-9.9-9.9c0,0,0,0,0,0h-4.8c-6,0-11.7-2.4-16-6.6
	l-1.9-1.9c-1.1-1.1-2.5-1.7-4-1.7H275c-3.1,0-5.7,2.5-5.7,5.7c0,0,0,0,0,0v7.5c0,3.7,3,6.8,6.8,6.8l0,0l0,0c1.4,0,2.5,1.1,2.5,2.6
	l0,0c0,2.9,2.3,5.4,5.3,5.4C293.1,203.4,310.9,203.9,311.4,203.9z"/>
<path class="st10" d="M311.4,200.8h4.3c4.3,0,7.8-3.5,7.8-7.8v-0.9c0-5.5-4.4-9.9-9.9-9.9c0,0,0,0,0,0h-4.8c-6,0-11.7-2.4-16-6.6
	l-1.9-1.9c-1.1-1.1-2.5-1.6-4-1.7H275c-3.1,0-5.7,2.5-5.7,5.7v0v7.5c0,3.7,3,6.8,6.8,6.8l0,0c1.4,0,2.5,1.1,2.5,2.6l0,0
	c0,2.9,2.3,5.4,5.3,5.4C293.1,200.2,310.9,200.8,311.4,200.8z"/>
<path class="st10" d="M203.8,43.7v1.6c0,1.6-1.2,2.9-2.7,3c-1.7,0.2-3.6,0.3-4.5,0.3l-3.2-0.2h-21.7c-1.6,0-3-1.3-3-2.9l0,0
	c0-1.7,1.3-3,3-3h3.3c1.6,0,3-1.3,3-2.9l0,0c0-1.5,1.1-2.7,2.6-3h9.5c0.8,0,1.5,0.3,2.1,0.9l2.6,2.5c0.6,0.5,1.3,0.9,2.1,0.9h4
	c0.7,0,1.4,0.3,1.9,0.7C203.4,42.1,203.8,42.9,203.8,43.7z"/>
<path class="st10" d="M98.4,189.7v1.7c0,1.7-1.3,3-2.9,3.2c-1.8,0.2-3.9,0.3-4.7,0.3l-3.3-0.2h-23c-1.7,0-3.2-1.4-3.2-3.1
	c0,0,0,0,0,0l0,0c0-0.8,0.4-1.6,1-2.2c0.6-0.6,1.4-0.9,2.2-1h3.5c1.7,0,3.1-1.4,3.2-3.1c0,0,0,0,0,0l0,0c0-0.8,0.4-1.6,1-2.2
	c0.5-0.5,1.1-0.8,1.8-0.9h10c0.8,0,1.6,0.4,2.2,1l2.7,2.7c0.6,0.6,1.4,1,2.2,1h4.3c0.7,0,1.4,0.2,2,0.7
	C98,188,98.4,188.9,98.4,189.7z"/>
<path class="st10" d="M271.8,51.1L271.8,51.1c0,3.9-3.1,7.1-7,7.1c0,0,0,0,0,0l0,0l-22.2,0.1c-3.1,0-5.6-2.5-5.6-5.6c0,0,0,0,0,0
	l0,0l0,0c0-3.1,2.5-5.6,5.6-5.7l7.2,0.7c2.5,0.2,4.9-0.3,7-1.7l1.4-1c1.1-0.7,2.5-1,3.8-1h2.8C268.6,44,271.8,47.1,271.8,51.1
	L271.8,51.1z"/>
<path class="st2" d="M149.7,154.7l-5.3,0.2c-0.8,0-1.6-0.3-2.1-0.9l-3.5-4c-0.5-0.5-1.2-0.8-1.9-0.9l-4.2-0.2c-0.7,0-1.5,0.3-2,0.8
	l-6,6c-0.8,0.8-1,1.9-0.6,2.9l0.6,1.6c0.5,1.4,2.1,2.1,3.5,1.6c0,0,0,0,0,0c0.2,0,0.3-0.1,0.4-0.2l0,0c1.2-0.7,2.7-0.4,3.5,0.6
	l1.5,1.8c0.5,0.6,1.2,1,2,1.1l6.9,0.4c1.2,0.1,2.3-0.6,2.7-1.8l0,0c0.4-1.1,1.5-1.8,2.6-1.8l2.1,0.1c1.4,0.1,2.7-1,2.8-2.4
	c0-0.2,0-0.4,0-0.6l-0.2-1.8C152.5,155.8,151.2,154.6,149.7,154.7z"/>
<path class="st3" d="M141.7,157.5h-1.1c-0.5,0-1-0.3-1.2-0.8l-0.7-1.7c-0.2-0.5-0.6-0.8-1.1-0.8l-4.1-0.3c-0.6,0-1.1,0.3-1.3,0.8
	l-0.4,0.8c-0.3,0.7,0,1.4,0.6,1.8l4.6,2.4c0.1,0,0.1,0.1,0.2,0.1l4,1.3c0.6,0.2,1.2,0,1.6-0.5l0,0c0.1-0.2,0.2-0.3,0.2-0.5l0.2-1.1
	C143.1,158.2,142.5,157.5,141.7,157.5C141.8,157.5,141.8,157.5,141.7,157.5L141.7,157.5z"/>
<path class="st13" d="M75.4,135.8c0.1-2.1,1.9-3.8,4-3.7c2,0.1,3.6,1.7,3.7,3.7H75.4z"/>
<path class="st22" d="M88.7,110.2c-2.1,1.2-3.9,2.9-5.3,4.9"/>
<ellipse class="st22" cx="82.8" cy="118.3" rx="0.2" ry="0.5"/>
<polygon class="st10" points="117.8,88.6 111.6,88.6 112.3,56.4 117.3,56.4 "/>
<path class="st10" d="M109.8,47.7h-2.6c-0.4,0-0.7,0.3-0.7,0.7c0,0.1,0,0.3,0.1,0.4l5.2,7.1c0.3,0.3,0.6,0.5,1,0.5h3.9
	c0.4,0,0.8-0.2,1-0.5l4.2-6.3c0.4-0.5,0.2-1.3-0.3-1.6c-0.2-0.1-0.4-0.2-0.7-0.2h-13.2"/>
<path class="st10" d="M108.9,48.3h10.9c0.6,0,1.2-0.5,1.2-1.1l0,0c0-0.6-0.5-1.1-1.1-1.2H109c-0.6,0-1.1,0.5-1.1,1.2l0,0
	C107.8,47.8,108.3,48.3,108.9,48.3z"/>
<path class="st10" d="M110.8,46.5h7.3c0.6,0,1.1-0.5,1.2-1.1l0,0c0-0.6-0.5-1.1-1.2-1.1h-7.3c-0.6,0-1.1,0.5-1.1,1.1l0,0
	C109.6,46,110.2,46.5,110.8,46.5z"/>
<line class="st19" x1="114.9" y1="31.2" x2="114.9" y2="41.2"/>
<path class="st13" d="M108.4,88.9c0-3.9,3.1-7,7-7s7,3.1,7,7H108.4z"/>
<path class="st3" d="M118.9,88.9c0.1-2.8,2.5-5,5.3-4.8c2.6,0.1,4.7,2.2,4.8,4.8H118.9z"/>
<path class="st21" d="M111.5,57.2h6.3c0.5,0,0.9-0.4,0.9-0.9l0,0c0-0.5-0.4-0.9-0.9-0.9h-6.3c-0.5,0-0.9,0.4-0.9,0.9l0,0
	c0,0.5,0.3,0.8,0.8,0.9H111.5z"/>
<path class="st21" d="M118.2,44.2c0.2-1.9-1.2-3.7-3.1-3.9c-1.9-0.2-3.7,1.2-3.9,3.1c0,0.2,0,0.5,0,0.7"/>
<line class="st23" x1="107.8" y1="47.7" x2="117.6" y2="47.7"/>
<line class="st23" x1="118.9" y1="46" x2="115.7" y2="46"/>
<path class="st24" d="M179,110.9c0,0-2-6.5-0.8-8.8"/>
<path class="st24" d="M175.7,103.1c0,0,0.6,0.4,1.5,3.7c0.4,1.5,0.8,3,1,4.6"/>
<path class="st10" d="M187.8,118.1c-0.2,3.3-4,4.9-4,4.9c-0.6,0.9-1.6,1.4-2.7,1.3c-1.2-0.1-2.3-0.3-3.4-0.6c0,0-5.2,1.1-5.4-2.7
	s3.5-7,4.6-8.8c0.4-0.4,0.7-0.9,0.8-1.5c0-0.6,0.6,0.4,0.7,0.6l0,0l-0.1-1.3l0,0l0.7,0.9l0,0l0.2-1.8l0,0c0,0.1,0.1,0.2,0.2,0.3
	c0.3,0.4,0.7,0.8,1.1,1C182.7,111.7,188,115.4,187.8,118.1z"/>
<path class="st25" d="M178.8,113.7c-1,1.8-1.5,3.8-1.8,5.8c-0.3,3.2,0.5,4.2,0.5,4.2"/>
<path class="st25" d="M181.5,114.6c1,1.5,1.7,3.2,2.1,5c0.3,2.3,0.1,2.6,0.1,2.6"/>
<path class="st13" d="M163.9,125.1c0.2-4.1,3.7-7.2,7.7-7l0,0c3.8,0.1,6.9,3.2,7,7H163.9z"/>
<path class="st3" d="M176.6,125.1c0-2,1.6-3.6,3.6-3.6c2,0,3.6,1.6,3.6,3.6H176.6z"/>
<path class="st24" d="M174.8,105.9c0,0,2.6,1.8,3.2,3.4"/>
<path class="st22" d="M212.1,234.9c-1.2,0.1-2.4,0.5-3.4,1.1"/>
<g id="road">
	<circle class="st10" cx="215.8" cy="186.4" r="9.9"/>
	<path class="st20" d="M276,183.8l-71.7,3.2c-5,0.3-10.9,0.2-15.3-2.3l-12.6-6l0,0"/>
	<path class="st26" d="M19,71.8l4.6-0.2l27.6-0.9c10-0.3,19.7,4,26.2,11.6l24.2,28.2c4.3,5,10.4,8.1,17,8.6l8.3,0.6
		c8.4,0.6,16.1-4.5,18.9-12.4l4-11.5c2.3-6.8,8.4-11.7,15.6-12.4l20.4-2c5.1-0.5,9.4-4.1,10.9-9l0.4-1.4c1.6-5.2,6.3-8.8,11.8-9
		l14.9-0.4c5.5-0.2,10.4,3.7,11.5,9.1l1.6,8c1.1,5.7-2.1,11.3-7.6,13.1l-4.6,1.5c-1.7,0.5-3.3,1.6-4.4,3c-1.2,1.4-1.9,3-2.1,4.8
		c-0.7,4.6,2.1,9,6.5,10.4l1.1,0.4c3.9,1.2,6.5,5,6.2,9.1l-0.1,1.6c-0.1,2-0.9,3.8-2.2,5.3c-1.3,1.5-3,2.5-4.9,2.9
		c-2.7,0.6-4.4,3.2-4,5.9l0.9,6.2c0.9,6.6-3.7,12.7-10.2,13.6l-0.7,0.1l-9.6,0.7c-6.9,0.5-13.8-1.7-19.1-6.1l-2.3-1.9
		c-7.3-6.1-16.5-9.6-26-9.8c-13.5-0.3-33.7-0.6-47.5-0.9h-0.3c-9.4-0.1-17.1,7.4-17.3,16.7s7.4,17.1,16.7,17.3l60.5,1.9
		c4,0.1,7.8,1.6,10.7,4.3l0,0l0.5,0.5c6.7,6.5,6.8,17.3,0.3,24c-1.5,1.6-3.4,2.8-5.4,3.7l-8.8,1.5c-6.6,1.2-11.4,6.9-11.4,13.6v0.8
		c0.5,7.3,6.5,13,13.8,13h48.2c3,0,5.5,2.4,5.5,5.4c0,0,0,0,0,0l0,0v0.5c-0.3,2.3-2,4.2-4.2,4.8l-27.8,14.7"/>
	<path class="st20" d="M181.2,189.4H127c-5.9,0-10.6,4.7-10.7,10.5c0,0,0,0.1,0,0.1l0,0l0,0c0,5.9,4.7,10.6,10.6,10.6c0,0,0,0,0,0
		h30.8"/>
	<circle class="st10" cx="89.1" cy="155.4" r="9.9"/>
	<circle class="st27" cx="89.1" cy="155.4" r="6"/>
	<circle class="st10" cx="154.2" cy="226.8" r="9.9"/>
	<circle class="st27" cx="154.2" cy="226.8" r="6"/>
	<circle class="st10" cx="183.7" cy="266.2" r="9.9"/>
	<circle class="st27" cx="183.7" cy="266.2" r="6"/>
	<circle class="st10" cx="208.2" cy="62" r="9.9"/>
	<circle class="st27" cx="208.2" cy="62" r="6"/>
	<circle class="st10" cx="81.4" cy="85.2" r="9.9"/>
	<circle class="st27" cx="81.4" cy="85.2" r="6"/>
	<circle class="st10" cx="51.6" cy="70.8" r="9.9"/>
	<circle class="st27" cx="51.6" cy="70.8" r="6"/>
	<circle class="st10" cx="147.6" cy="103.1" r="9.9"/>
	<circle class="st27" cx="147.6" cy="103.1" r="6"/>
	<circle class="st10" cx="227" cy="113" r="9.9"/>
	<circle class="st27" cx="227" cy="113" r="6"/>
	<circle class="st10" cx="168.2" cy="142.5" r="9.9"/>
	<circle class="st27" cx="168.2" cy="142.5" r="6"/>
	<circle class="st10" cx="177.7" cy="82.3" r="9.9"/>
	<circle class="st27" cx="177.7" cy="82.3" r="6"/>
	<circle class="st10" cx="191.9" cy="155.2" r="9.9"/>
	<circle class="st27" cx="191.9" cy="155.2" r="6"/>
	<circle class="st10" cx="119.7" cy="206.2" r="9.9"/>
	<circle class="st27" cx="119.7" cy="206.2" r="6"/>
	<circle class="st10" cx="128.6" cy="173.6" r="9.9"/>
	<circle class="st27" cx="128.6" cy="173.6" r="6"/>
	<circle class="st10" cx="174.8" cy="175.1" r="9.9"/>
	<circle class="st27" cx="174.8" cy="175.1" r="6"/>
	<circle class="st10" cx="198" cy="229.1" r="9.9"/>
	<circle class="st27" cx="198" cy="229.1" r="6"/>
</g>
<path class="st28" d="M225,90.1v-5.6c-0.3-1.9,0.9-3.7,2.8-4.1c0.6-0.1,1.2-0.1,1.7,0.1c-1.6,0.6-2.6,2.2-2.6,3.9v5.4"/>
<rect x="224.4" y="70.5" class="st14" width="18" height="5.4"/>
<path class="st29" d="M242.6,70.9h-18.4c0,0-3.4-5.3-2.6-10.3C223,53.2,232,49.6,233.4,49c1.3,0.5,2.6,1.1,3.9,1.8
	c3.2,1.8,7.1,5,7.9,9.8C246,65.7,242.6,70.9,242.6,70.9z"/>
<path class="st14" d="M247.8,75.4v15h-11.6v-4c0-3.3-2.5-6-5.8-6.2c-3.3-0.1-6,2.5-6.1,5.8c0,0,0,0,0,0v3.7
	c-2.5,1.1-5.3,2.6-6.8,4.2l-0.4,0.4l-0.1-19L247.8,75.4z"/>
<rect x="247.5" y="75.4" class="st30" width="9.8" height="15.1"/>
<path class="st22" d="M229.8,55.5c0,0-2.5,1.8-3.2,3.5"/>
<line class="st19" x1="244" y1="75.2" x2="229.8" y2="75.2"/>
<line class="st19" x1="228.4" y1="75.1" x2="227.5" y2="75.1"/>
<path class="st31" d="M228.6,72.5l4-0.3C231.3,72.6,229.9,72.7,228.6,72.5z"/>
<path class="st31" d="M242.4,70.9h-6.8c1.9-1.3,3.5-3.6,4-7.6c0.5-4.7-1.2-9.7-2.6-12.5c3.2,1.8,7.1,5,7.9,9.8
	C245.8,65.7,242.4,70.9,242.4,70.9z"/>
<path class="st28" d="M209.7,153.4l0.1-2c0.1-2.1,2.3-3.6,4.4-3.4c0.2,0,0.4,0,0.6,0.1c-1.5,0.5-2.6,1.9-2.6,3.5l-0.1,1.5"/>
<polygon class="st30" points="208.3,114 208.3,133.9 204.1,133.9 204.1,140.8 200.4,140.8 200.4,114 "/>
<line class="st32" x1="202.6" y1="116.6" x2="202.6" y2="120.1"/>
<line class="st32" x1="204.4" y1="116.6" x2="204.4" y2="120.1"/>
<line class="st32" x1="206.1" y1="116.6" x2="206.1" y2="120.1"/>
<path class="st33" d="M229.9,129.9c-2,0.6-3.5,2.1-4.3,4h-13.8c0.4-5.3,5-9.3,10.3-9C225.4,125.1,228.3,127,229.9,129.9z"/>
<path class="st34" d="M237.9,133.9h-12.3c0.7-2,2.3-3.5,4.3-4c0.6-0.2,1.2-0.3,1.9-0.3C234.5,129.6,237,131.3,237.9,133.9z"/>
<rect x="225.7" y="133.9" class="st14" width="14.5" height="26.5"/>
<path class="st14" d="M204.1,140.8v13c-0.7,0-1.4,0.1-2.2,0.1h-3.7v-13L204.1,140.8L204.1,140.8z"/>
<path class="st29" d="M225.7,133.9v26.5h-7.5V152c0-2.5-2-4.5-4.5-4.5s-4.5,2-4.5,4.5v1.1c-1.4,0.3-3.2,0.4-5.2,0.6v-20L225.7,133.9
	L225.7,133.9z"/>
<path class="st13" d="M222.3,161.1c0-1.7,1.4-3,3-3s3,1.4,3,3H222.3z"/>
<path class="st19" d="M219,127.6c-1.1,0.1-2.1,0.7-2.7,1.6"/>
<line class="st19" x1="225.7" y1="139.8" x2="222" y2="139.8"/>
<line class="st19" x1="226.5" y1="147.2" x2="228.1" y2="147.2"/>
<line class="st19" x1="206.2" y1="144" x2="209" y2="144"/>
<path class="st3" d="M241.7,154.2c-2.2,0-4.2,1.1-5.4,2.8c-0.6-0.2-1.2-0.4-1.8-0.4c-2.3,0-4.2,1.9-4.2,4.2l0,0h18.1
	C248.4,157.2,245.4,154.2,241.7,154.2L241.7,154.2z"/>
<g id="dokme">
	<circle class="st35" cx="16.6" cy="72.3" r="9.9"/>
	<circle class="st19" cx="17.1" cy="69.8" r="9.9"/>
	<circle class="st36" cx="17.1" cy="69.8" r="9.9"/>
	<path class="st20" d="M16,64.9c3-0.9,6.1,0.9,6.9,3.8c0,0,0,0,0,0l0,0"/>
	<line class="st20" x1="12.4" y1="66" x2="12.1" y2="66.4"/>
</g>
<path class="st28" d="M151.3,136.4c0-1.7-0.9-1.4-2.3-1.8c0.3-0.1,0.6-0.2,0.9-0.2c1.9,0,3.5-0.2,3.5,1.8"/>
<path class="st28" d="M102.1,136.1c0-3.2,2.4-4.1,5.4-4.1c0.5,0,0.9,0.1,1.4,0.2c-2.2,0.7-3.6,1-3.6,3.6"/>
<path class="st30" d="M111.6,109.5l-13.7-0.4l-4.3-6.6c2.7-4.7,7.6-15.2,17-8.6c3.3,2.3,4.2,6.5,4.8,10.6L111.6,109.5z"/>
<path class="st37" d="M157.2,136.2l-3.4-0.3c-1.3-2.1-4-2.8-6.2-1.6c-1.4,0.8-2.2,2.3-2.2,3.9v8l-31.6-0.7c0,0,2.6-13.4-5.3-14.2
	c-6-0.7-7,4.3-7,4.3L80,135l-0.7-2.6c0,0-4.9-19.2,2.7-23.5s7.6-3,9.9-4.7c0.6-0.5,1.1-1.2,1.4-2c1-0.1,2.1,0,3.1,0.3
	c1.7,0.7-0.3,3.5,3.5,4.8c3,1,2.3-4.5,6.2-4.9c4.1-0.5,3,3.3,6.3,3.3c1.1,0,2.2-0.5,2.9-1.4c0.6,4.9,0.5,8.7,3.2,10.1
	c0.6,0.3,1.1,0.7,1.6,1.2c1.1,0.8,2.4,1.3,3.8,1.3c1.8,0.1,5.4-1,10.6-0.1s8,7.6,9.2,8.8c3.8,3.3,8.9,1.8,11.2,4.8
	C156.2,131.8,156.8,133.9,157.2,136.2z"/>
<path class="st3" d="M90.6,129.5c2.2,0,4.2,1.1,5.4,2.8c0.5-0.2,1.1-0.4,1.8-0.4c2.3,0,4.2,1.9,4.2,4.2l0,0H83.9
	C83.9,132.5,86.9,129.5,90.6,129.5L90.6,129.5z"/>
<path class="st3" d="M138.4,139.7c2.4,0,4.7,1.2,6.1,3.2c0.6-0.3,1.3-0.4,1.9-0.4c2.6,0,4.7,2.1,4.7,4.7c0,0,0,0,0,0l0,0h-20.2
	C130.9,143.1,134.2,139.7,138.4,139.7L138.4,139.7z"/>
<path class="st38" d="M258.9,175.4h-1c-0.3,0-0.5,0-0.8,0.1c-1.6-2.8-5.1-3.9-8-2.3c-1.9,1-3,3-3,5.2v7.4c0,2.9,2.1,5.3,4.9,5.8
	l-0.1,0.1h8c3,0,5.4-2.4,5.4-5.4v-5.4C264.3,177.9,261.9,175.5,258.9,175.4z"/>
<polyline class="st19" points="255.1,180.5 255.1,187.4 255.1,204.1 "/>
<path class="st19" d="M259.2,184.5v1.5c0,1.1-0.9,2-2,2h-2.1"/>
<path class="st19" d="M255.1,184.5h-1.3c-1.7,0-3-1.3-3.1-3v-4.7"/>
<path class="st38" d="M127.4,97.4h-0.7c-0.2,0-0.4,0-0.6,0.1c-1.1-2-3.6-2.7-5.6-1.6c-1.3,0.7-2.1,2.1-2.1,3.6v5.1
	c0,2,1.5,3.6,3.4,4h5.5c2.1,0,3.8-1.7,3.8-3.7v-3.7c0.1-2-1.5-3.7-3.6-3.8L127.4,97.4z"/>
<polyline class="st19" points="124.8,101 124.8,105.7 124.8,116.7 "/>
<path class="st19" d="M127.6,103.7v1.1c0,0.8-0.6,1.4-1.4,1.4c0,0,0,0,0,0h-1.4"/>
<path class="st19" d="M124.8,103.7h-1c-1.2,0-2.1-1-2.1-2.1v-3.2"/>
<path class="st38" d="M117.1,140.2h-1c-0.3,0-0.6,0-0.9,0.1c-1.1-1.9-3.1-3.1-5.4-3.2c-3.4,0-6.2,2.8-6.2,6.1v7.8
	c0,3,2.2,5.5,5.1,6.1l-0.1,0.1h8.3c3.1,0,5.6-2.5,5.6-5.6V146c0.2-3-2.1-5.6-5.1-5.8c0,0,0,0,0,0L117.1,140.2z"/>
<polyline class="st19" points="113.2,145.5 113.2,152.8 113.2,170.1 "/>
<path class="st19" d="M117.4,149.6v1.6c0,1.2-1,2.1-2.1,2.1h-2.1"/>
<path class="st19" d="M113.2,149.6h-1.4c-1.7,0-3.2-1.4-3.2-3.1c0,0,0,0,0,0v-4.9"/>
<path class="st29" d="M198.2,239.6h49.7c0,0-6.3-9.5-24.8-9C201.9,231.3,198.2,239.6,198.2,239.6z"/>
<path class="st13" d="M252.8,205c-0.1-1.7,1.2-3.1,2.9-3.2c1.7-0.1,3.1,1.2,3.2,2.9v0.3H252.8z"/>
</svg>
