<?xml version="1.0" encoding="utf-8"?>
<!-- Generator: Adobe Illustrator 25.0.0, SVG Export Plug-In . SVG Version: 6.00 Build 0)  -->
<svg version="1.1" id="Layer_1" xmlns="http://www.w3.org/2000/svg" xmlns:xlink="http://www.w3.org/1999/xlink" x="0px" y="0px"
	 viewBox="0 0 451 700" style="enable-background:new 0 0 451 700;" xml:space="preserve">
<style type="text/css">
	.st0{fill:transparent;}
	.st1{fill:#8DD696;}
	.st2{opacity:0.59;fill:#31A064;enable-background:new    ;}
	.st3{fill:#31A064;}
	.st4{fill:#5D8BF4;}
	.st5{opacity:0.15;fill:#CDDEFF;enable-background:new    ;}
	.st6{opacity:0.32;fill:#B9D3F9;enable-background:new    ;}
	.st7{fill:#FFFFFF;}
	.st8{fill:none;stroke:#CDDEFF;stroke-width:2;stroke-miterlimit:10;}
	.st9{opacity:0.32;fill:#CDDEFF;enable-background:new    ;}
	.st10{opacity:0.17;fill:#31A064;enable-background:new    ;}
	.st11{opacity:0.59;}
	.st12{fill:none;stroke:#010431;stroke-miterlimit:10;}
	.st13{fill:#FF7272;stroke:#FF5A62;stroke-width:0.25;stroke-miterlimit:10;}
	.st14{stroke:#000000;stroke-width:0.25;stroke-miterlimit:10;}
	.st15{fill:none;stroke:#FFFFFF;stroke-width:7;stroke-linecap:round;stroke-linejoin:round;}
	.st16{fill:#66BF8C;}
	.st17{fill:#FF8243;stroke:#FF8243;stroke-miterlimit:10;}
	.st18{opacity:0.55;fill:#CDDEFF;enable-background:new    ;}
	.st19{fill:none;stroke:#31A064;stroke-width:4;stroke-linecap:round;stroke-linejoin:round;}
	.st20{fill:none;stroke:#0E7038;stroke-width:0.75;stroke-linecap:round;stroke-linejoin:round;}
	.st21{fill:none;stroke:#FF7272;stroke-width:5;stroke-linecap:round;stroke-linejoin:round;}
	.st22{fill:none;stroke:#FFFFFF;stroke-linecap:round;stroke-linejoin:round;}
	.st23{fill:none;stroke:#FFFFFF;stroke-width:3;stroke-linecap:round;stroke-linejoin:round;}
	.st24{fill:#DCDFF9;}
	.st25{fill:none;stroke:#FFFFFF;stroke-width:2;stroke-linecap:round;stroke-linejoin:round;}
	.st26{fill:none;stroke:#DCDFF9;stroke-linecap:round;stroke-linejoin:round;}
	.st27{fill:none;stroke:#31A064;stroke-linecap:round;stroke-linejoin:round;}
	
		.st28{opacity:0.32;fill:none;stroke:#CDDEFF;stroke-width:2;stroke-linecap:round;stroke-linejoin:round;enable-background:new    ;}
	.st29{fill:#FFBC97;stroke:#FFBC97;stroke-miterlimit:10;}
	.st30{fill:none;stroke:#FFFFFF;stroke-width:3;stroke-miterlimit:10;}
	.st31{opacity:0.44;fill:#CDDEFF;enable-background:new    ;}
	.st32{fill:#D84403;stroke:#D84403;stroke-miterlimit:10;}
	.st33{opacity:0.4;fill:#FF8243;stroke:#FF8243;stroke-miterlimit:10;enable-background:new    ;}
	.st34{fill:none;stroke:#FFBC97;stroke-miterlimit:10;}
	.st35{fill:#5EA4F7;stroke:#5EA4F7;stroke-miterlimit:10;}
	.st36{fill:#2473FF;stroke:#2473FF;stroke-miterlimit:10;}
	.st37{fill:#BFC7F7;}
	.st38{fill:none;stroke:#FFFFFF;stroke-miterlimit:10;}
	.st39{fill:#FFBD35;}
	.st40{fill:#FC997C;stroke:#FC997C;stroke-miterlimit:10;}
	.st41{fill:#5463FF;}
</style>
<rect x="-1.4" y="-0.8" class="st0" width="454.3" height="698"/>
<path class="st1" d="M410,389.8l-0.1,0.5l0,0l-4.1,16.9c-0.6,2.6-2.6,4.6-5.1,5.4l-7.3,2.2c-2.1,0.7-3.8,2.2-4.7,4.2l-7.3,17
	c-1.1,2.6-3.7,4.4-6.5,4.5l-61.2,3c-2.2,0.1-4.3-0.7-5.8-2.3L292.2,425c-2.7-2.8-7.2-3.1-10.2-0.5L263.4,440c-2,1.7-4.7,2.2-7.1,1.4
	l-15.1-4.8l-34.3-10.9c-1.5-0.5-2.9-1.5-3.8-2.8L179.7,390c-1.9-2.6-5.1-3.7-8.2-2.9l-20.9,5.9c-3,0.8-6.1-0.2-8-2.7l-22.1-28.7
	c-1-1.3-1.5-2.8-1.6-4.4l-0.7-22.6c-0.1-2.3-1.2-4.5-3.1-5.9l-21.7-15.6c-1.5-1.1-2.6-2.7-3-4.6L86,287.3c-0.1-0.6-0.2-1.3-0.2-1.9
	c0-0.3,0-0.6,0.1-0.9c0.3-2,1.4-3.7,3-4.9l3-2.2l2.6-1.9c2-1.5,3.2-4,3.1-6.5l-0.3-6.8c-0.2-3.2-2.3-5.9-5.3-6.8l-9.2-2.8
	c-1.7-0.5-3.2-1.7-4.2-3.2L62.4,224c-0.6-1-1-2.1-1.1-3.2l-0.4-3.8l-3.4-30.4c-0.2-1.4,0.1-2.9,0.8-4.2l6.6-12.9
	c0.2-0.5,0.5-0.9,0.9-1.3c2.6-3.2,7.4-3.7,10.6-1.1c0.2,0.2,0.4,0.3,0.6,0.5l5.3,5.3c1.4,1.4,3.3,2.2,5.3,2.2H104c0.3,0,0.7,0,1-0.1
	c1-1.3,1.5-2.9,1.5-4.6v-0.2c0-3.9,3-7.3,6.9-7.7l0,0c0.3,0,0.6-0.1,1-0.1c2.8,0,5.4,1.5,6.8,3.9l13.4,23c0.1,0.2,0.2,0.5,0.3,0.7
	l4.1-3.3l3.8,8.3c1.5,3.3,4.4,5.7,7.9,6.5l13.5,3.1c1.3,0.3,2.5,1,3.5,1.9l6.4,6.1c1.5,1.4,3.5,2.2,5.5,2.1l55-1.9
	c3.4-0.1,6.3-2.5,7.1-5.8c0.1-0.6,0.2-1.1,0.2-1.7v-5.6c0-3.7,1.8-7.2,4.8-9.4c0.8-0.6,1.6-1,2.5-1.4l14.5-5.7
	c1.1-0.4,2.2-0.7,3.4-0.8c0.9-0.1,1.9,0,2.8,0.1l41,7.1l7.1,1.2c2.1,0.4,4,1.6,5.1,3.4l1.3,2.1c0.6,0.5,1.1,1,1.5,1.7l17.7,28.3
	c1,1.5,1.4,3.3,1.1,5.1l-0.3,2.1c-0.1,0.9-0.4,1.8-0.8,2.6l-0.6,1.1l-6.8,12.9c-0.1,0.3-0.2,0.5-0.3,0.8c-0.6,1.6-0.7,3.3-0.3,4.9
	l10.3,38.7l0,0c0.5,0.4,1.1,0.8,1.8,1c0.6,0.2,1.2,0.4,1.8,0.5l16.8,2.5c0.8,0.1,1.7,0.4,2.4,0.8h0.1c2.3,1.2,3.8,3.7,3.9,6.3l0,0
	l0.1,1.2l0.3,6.2c0.1,1.7-0.4,3.3-1.4,4.7l-3.8,5.4l-2.7,3.9l-2.1,3c-0.8,1.1-1.2,2.4-1.3,3.7l-0.7,8.9c-0.2,2.6,0.9,5.1,3,6.6
	l1.3,1l16.1,12.2l6,4.6l19.7,14.8C409.6,383.7,410.7,386.8,410,389.8z"/>
<path class="st2" d="M373.3,305.3L373.3,305.3c-1.2,0.8-2.4,1.5-3.8,1.9l-7.8,2.5c-1.4,0.4-2.8,0.7-4.3,0.7h-10.5
	c-2.4,0-4.9,0.6-7,1.8c-6.9,3.8-15.7,1.3-19.5-5.6c-0.7-1.3-1.2-2.6-1.5-4.1l-4-19.8l-4.6-23.2c-1.3-6.3,1.9-12.7,7.6-15.6l2.3-1.2
	c1-0.5,2-0.8,3-1.1l16.2-4c1.4-0.3,2.9-0.5,4.3-0.4l-6.9,13.2l0,0c-0.9,1.7-1.1,3.7-0.6,5.6l10.3,38.7l0,0c1,0.8,2.2,1.3,3.5,1.5
	l8.6,1.3l8.3,1.2C370.2,299.4,372.7,302,373.3,305.3z"/>
<path class="st3" d="M350.1,296.4l8.6,1.3c-0.7,0.5-1.5,0.8-2.4,0.7l-29.7-2.5c-1.3-0.1-2.4-1-2.9-2.2c-0.7-1.7,0.2-3.6,1.9-4.3
	c0.3-0.1,0.6-0.2,1-0.2l12.6-1c1.9-0.1,3.2-1.8,3.1-3.6c0-0.3-0.1-0.6-0.2-0.9l-0.7-1.9c-0.4-1.1-1.4-2-2.6-2.2l-5.4-1
	c-1.1-0.2-2.1-1-2.5-2l-4-9.1c-0.8-1.7,0-3.7,1.7-4.5c0,0,0,0,0,0c2.1-1,4.3-2.6,3-5.2c-2-3.9,3.3-6.5,4.7-7.1
	c0.1,0,0.2-0.1,0.3-0.1c-0.9,1.7-1.1,3.7-0.6,5.6l10.3,38.7l0,0C347.5,295.7,348.7,296.2,350.1,296.4z"/>
<path class="st4" d="M246.6,190.7c-3,2.2-4.8,5.7-4.8,9.4v1.8c-0.1,0.7-0.2,1.5-0.2,2.2v3.3c-0.8,3.3-3.7,5.7-7.1,5.8l-55,1.9
	c-2,0.1-4-0.7-5.5-2.1l-6.4-6.1c-1-0.9-2.2-1.6-3.5-1.9l-13.5-3.1c-3.5-0.8-6.4-3.2-7.9-6.5l-3.8-8.3l0,0l2.5-2
	c0.4-0.3,0.7-0.6,0.9-1l2.9-2.3c0.9-0.7,1.4-1.8,1.5-2.9l1.5-25.2c0-0.8,0.3-1.6,0.8-2.2l2.7-3.4l0,0l0.4-0.5c1.3-1.7,3.7-2,5.5-0.8
	l9.6,6.8c1.4,1,3.4,1,4.8-0.1l0.1-0.1l5-4.2h0.1l0.1-0.1l2.2-1.8c1.7-1.4,4.2-1.2,5.6,0.5c0,0,0,0.1,0.1,0.1l2.6,3.4
	c1.3,1.8,3.9,2.1,5.6,0.7c0.1-0.1,0.2-0.2,0.3-0.2l3.8-3.5c1.5-1.4,3.8-1.5,5.3-0.1l5.2,4.3c1.6,1.3,3.9,1.2,5.4-0.2l1.6-1.7
	c0.7-0.8,1.7-1.2,2.8-1.2c1.6,0,3,1,3.7,2.4c0.6,1.5,2.1,2.4,3.7,2.4h12.3c2.2,0,4,1.8,4,4v19.2c-0.7,0.1-1.4,0.5-1.9,1
	c-0.6,0.6-1,1.5-1,2.4c0,1.9-1.5,3.4-3.3,3.4c0,0,0,0-0.1,0h-3.8c-1.9,0-3.4,1.5-3.4,3.4c0,1.9,1.5,3.4,3.3,3.4c0,0,0,0,0.1,0h15.2
	L246.6,190.7z"/>
<path class="st2" d="M413.8,393l-3.9-2.8l0,0l-4.1,16.9c-0.6,2.6-2.6,4.6-5.1,5.4l-7.3,2.2c-2.1,0.7-3.8,2.2-4.7,4.2l-7.3,17
	c-1.1,2.6-3.7,4.4-6.5,4.5l-61.2,3c-2.2,0.1-4.3-0.7-5.8-2.3L292.2,425c-2.7-2.8-7.2-3.1-10.2-0.5L263.4,440c-2,1.7-4.7,2.2-7.1,1.4
	l-15.1-4.8l-34.3-10.9c-1.5-0.5-2.9-1.5-3.8-2.8L179.7,390c-1.9-2.6-5.1-3.7-8.2-2.9l-20.9,5.9c-3,0.8-6.1-0.2-8-2.7l-22.1-28.7
	c-1-1.3-1.5-2.8-1.6-4.4l-0.7-22.6c-0.1-2.3-1.2-4.5-3.1-5.9l-21.7-15.6c-1.5-1.1-2.6-2.7-3-4.6L86,287.3c-0.1-0.6-0.2-1.3-0.2-1.9
	l-2.1,1.6c-2.5,1.8-3.6,4.9-3,7.9l4.5,22c0.4,1.9,1.5,3.6,3.1,4.8l22.5,16.2c2,1.4,3.2,3.7,3.2,6.1l0.7,23.5
	c0.1,1.6,0.6,3.2,1.6,4.5l22.9,29.7c2,2.5,5.2,3.6,8.3,2.8l21.7-6.1c3.2-0.9,6.6,0.3,8.5,3l24.2,34c1,1.4,2.4,2.4,4,2.9l33.2,10.5
	l18,5.7c2.5,0.8,5.3,0.3,7.4-1.4l19.3-16c3.1-2.6,7.8-2.4,10.6,0.6l16.3,16.8c1.6,1.6,3.7,2.5,6,2.4l63.4-3.1c3-0.1,5.6-2,6.8-4.7
	l7.6-17.6c0.9-2.1,2.7-3.7,4.9-4.4l7.5-2.3c2.6-0.8,4.6-2.9,5.3-5.6l4.4-18C417.4,398.2,416.3,394.9,413.8,393z"/>
<path class="st2" d="M82.8,178.3L68.4,179c-1.7,0.1-3,1.4-2.9,3.1c0,0,0,0.1,0,0.1l0.3,5c0.1,1.5,1.3,2.8,2.8,2.9l2.5,0.2
	c1,0.1,2-0.3,2.6-1.1l3.5-4.2c0.7-0.9,1.8-1.3,2.9-1.1l2.3,0.4c1.3,0.2,2.6-0.4,3.2-1.5l0,0c0.8-1.4,0.3-3.3-1.1-4.1
	C84,178.4,83.4,178.3,82.8,178.3z"/>
<path class="st4" d="M120.9,190.4l2,5.7c0.3,0.9,0.8,1.7,1.5,2.3l1.8,1.6c1.4,1.3,2.1,3.1,1.8,5l0,0c-0.4,2.6-2.5,4.5-5.1,4.7h-0.1
	c-1.8,0.1-3.5-0.6-4.7-2l-2.3-2.8c-0.6-0.8-1.1-1.7-1.2-2.7V202c-0.2-1.4-1-2.7-2.1-3.6l-5.5-4.2c-1.5-1.1-2.3-2.9-2.2-4.7l0.2-2.7
	c0.1-2.4,1.7-4.4,4-5l0.6-0.2c2.1-0.6,4.4,0.1,5.8,1.8l4.4,5.5C120.3,189.3,120.7,189.8,120.9,190.4z"/>
<path class="st5" d="M165.7,159.3l9.4-1.7c0.9-0.2,1.9,0.3,2.3,1.1l0.8,1.6c0.5,1,1.6,1.4,2.6,1.1l4.2-1.4c1-0.3,2.1,0.1,2.6,1
	l2.9,5.1c0.6,1,0.3,2.2-0.6,2.9l-8,5.6c-0.3,0.2-0.6,0.5-0.7,0.9l-2.9,6.4c-0.5,1.1,0,2.4,1.1,2.9c0.3,0.1,0.7,0.2,1.1,0.2l0,0
	c1.2-0.2,2.3,0.7,2.4,1.8c0,0.2,0,0.4,0,0.7v0.2c-0.6,3.3-3.7,5.6-7,5c-0.6-0.1-1.2-0.3-1.8-0.6l-7.8-4c-3.8-1.9-5.8-6.1-5-10.3
	l0.9-4.4c0.1-0.4,0-0.8-0.1-1.2l-1.3-3.4c-1.4-3.6,0.4-7.7,4-9c0.3-0.1,0.6-0.2,0.9-0.3h0.1C165.6,159.3,165.7,159.3,165.7,159.3z"
	/>
<path class="st6" d="M422.5,349.9l-6.9-3.8l-11.7-6.4c-1.1-0.6-1.9-1.5-2.3-2.6c-0.9-2-0.5-4.3,0.9-5.9l4.3-4.8
	c0.8-0.9,1.3-2,1.4-3.2l0.3-3.9c0.4-4.9-1.7-9.6-5.7-12.5l-13.2-9.7c-1.2-0.9-2-2.3-2.2-3.8l-3-28.2c-0.1-0.7-0.2-1.3-0.5-1.9
	l-2.5-5c-0.4-0.7-0.6-1.6-0.6-2.4c0-2.3,1.4-4.3,3.5-5.1c11.3-4.3,17-16.9,12.7-28.2c-0.7-1.9-1.7-3.6-2.9-5.3L355,164.7l-3.8-5
	c-8.4-11.2-21.5-17.7-35.5-17.7c-7.6,0-15.1,1.9-21.7,5.7c-1.4,0.8-3.2,0.9-4.7,0.3l-53.5-21c-1.1-0.4-2-1.2-2.6-2.2l-11.6-18.3
	c-0.7-1.1-1.7-1.9-2.9-2.3l-7.2-2.4c-0.9-0.3-1.9-0.5-2.9-0.5c-4.8,0-8.8,3.8-9.1,8.6c-0.2,2.9-2.5,5.1-5.4,5.1h-17.3
	c-1.1,0-2.1-0.3-3-0.9c-0.9-0.6-1.6-1.4-2-2.4c-1.9-4.3-5.9-7.4-10.5-8.3h-0.2c-5.8-1.1-11.3,2.7-12.5,8.4l-3,14.9
	c-0.4,1.8-1.6,3.4-3.4,4l-7.8,2.9c-4.9,1.8-9.6,4.3-13.8,7.4l-0.4,0.3c-2.5,1.8-5.9,1.2-7.7-1.3c-0.2-0.3-0.4-0.7-0.6-1l-1.2-3
	c-3.8-9.1-13.1-14.7-22.9-13.7L77,123.4c-2.5,0.3-4.5,2.2-4.8,4.7l-2.5,18.8c-0.2,1.8-1.3,3.4-3,4.2l-6.9,3.5
	c-11,5.5-18.6,16.1-20.3,28.3l-8,57.5c-1.6,11.3,6,21.8,17.2,23.8l13.8,2.5c2.1,0.4,3.8,2,4.3,4l1.8,7.4c0.4,1.7,0,3.6-1.2,4.9
	l-6,6.9c-5.1,5.8-7.7,13.4-7.3,21.1l0.5,10.3c0.5,11.8,9.9,21.2,21.7,21.9l10.8,0.7c2.2,0.1,4.1,1.5,4.8,3.6l1.1,3.1
	c1,2.8-0.5,6-3.3,7c-0.3,0.1-0.5,0.2-0.8,0.2l-12.7,2.5c-2.2,0.4-3.9,2.2-4.3,4.4l-4.7,23.4c-0.5,2.9,1.3,5.6,4.1,6.3l3.6,0.8
	c0.4,0.1,0.8,0.1,1.2,0.1c2.8,0,5.1-2.1,5.4-4.9c0.3-2.9,1.1,5.7,4,5.9l16,0.7c3,0.1,5.4,2.6,5.2,5.7c0,0.1,0,0.3,0,0.4l-3,24.6
	c-0.1,0.9-0.2,1.8-0.2,2.7c0,12.2,10,22.1,22.2,22.1c3,0,5.5-2.4,5.5-5.5c0,0,0,0,0,0v-5.1c0-3,2.3-5.4,5.3-5.5l28.1-0.9
	c2.3-0.1,4.4,1.3,5.3,3.5l10.5,28.1c5.1,13.6,17.9,22.8,32.4,23.3l60.6,2.1c8.6,0.3,16.9-3.4,22.4-10.1l3.9-4.7c1.8-2.2,5-2.6,7.4-1
	l6.3,4.5c8.5,6.1,19,8.8,29.4,7.7l45.7-5c6-0.7,10.6-5.6,11-11.6l0.2-4c0.2-2.7,2.4-4.9,5.1-5.1l4.5-0.3c12.9-0.9,23.2-11.1,24.4-24
	l5.2-58.4C440,368,433.5,356,422.5,349.9z"/>
<path class="st7" d="M175.4,532.9c0.2-3,2.7-5.2,5.7-5c2.7,0.2,4.9,2.3,5,5"/>
<path class="st7" d="M197.4,513c0-3,2.4-5.4,5.4-5.4c3,0,5.4,2.4,5.4,5.4"/>
<path class="st7" d="M200.3,531.2c0.2-3,2.7-5.2,5.7-5c2.7,0.2,4.9,2.3,5,5"/>
<path class="st7" d="M221.7,539.1c0.2-3,2.7-5.2,5.7-5c2.7,0.2,4.9,2.3,5,5"/>
<path class="st7" d="M178.5,516.8c0.2-3,2.7-5.2,5.7-5c2.7,0.2,4.9,2.3,5,5"/>
<path class="st7" d="M317.7,124.6c0.2-3,2.7-5.2,5.7-5c2.7,0.2,4.9,2.3,5,5"/>
<path class="st7" d="M365.7,104.1c0-3,2.4-5.4,5.4-5.4c3,0,5.4,2.4,5.4,5.4c0,0,0,0,0,0"/>
<path class="st7" d="M380.6,124c0.2-3,2.7-5.2,5.7-5c2.7,0.2,4.9,2.3,5,5"/>
<path class="st7" d="M346.8,107.9c0.2-3,2.7-5.2,5.7-5c2.7,0.2,4.9,2.3,5,5"/>
<path class="st7" d="M87.3,96.4c0.2-3,2.7-5.2,5.7-5c2.7,0.2,4.9,2.3,5,5"/>
<path class="st7" d="M101.7,66.8c0.2-3,2.7-5.2,5.7-5c2.7,0.2,4.9,2.3,5,5"/>
<path class="st7" d="M81.4,84.2c0.2-3,2.7-5.2,5.7-5c2.7,0.2,4.9,2.3,5,5"/>
<path class="st7" d="M120.1,73c0.2-3,2.7-5.2,5.7-5c2.7,0.2,4.9,2.3,5,5"/>
<line class="st8" x1="226.6" y1="130.1" x2="226.6" y2="143"/>
<path class="st9" d="M510.8,943.5l-6.9-3.8l-11.7-6.4c-1.1-0.6-1.9-1.5-2.3-2.6c-0.9-2-0.5-4.3,0.9-5.9l4.3-4.8
	c0.8-0.9,1.3-2,1.4-3.2l0.3-3.9c0.4-4.9-1.7-9.6-5.7-12.5l-13.2-9.7c-1.2-0.9-2-2.3-2.2-3.8l-3-28.2c-0.1-0.7-0.2-1.3-0.5-1.9
	l-2.5-5c-0.4-0.7-0.6-1.6-0.6-2.4c0-2.3,1.4-4.3,3.5-5.1c11.3-4.3,17-16.9,12.7-28.2c-0.7-1.9-1.7-3.6-2.9-5.3l-39.1-52.4l-3.8-5
	c-8.4-11.2-21.5-17.7-35.5-17.7c-7.6,0-15.1,1.9-21.7,5.7c-1.4,0.8-3.2,0.9-4.7,0.3l-53.5-21c-1.1-0.4-2-1.2-2.6-2.2L309.9,700
	c-0.7-1.1-1.7-1.9-2.9-2.3l-7.2-2.4c-0.9-0.3-1.9-0.5-2.9-0.5c-4.8,0-8.8,3.8-9.1,8.6c-0.2,2.9-2.5,5.1-5.4,5.1H265
	c-1.1,0-2.1-0.3-3-0.9c-0.9-0.6-1.6-1.4-2-2.4c-1.9-4.3-5.9-7.4-10.5-8.3h-0.2c-5.8-1.1-11.3,2.7-12.5,8.4l-3,14.9
	c-0.4,1.8-1.6,3.4-3.4,4l-7.8,2.9c-4.9,1.8-9.6,4.3-13.8,7.4l-0.4,0.3c-2.5,1.8-5.9,1.2-7.7-1.3c-0.2-0.3-0.4-0.7-0.6-1l-1.2-3
	c-3.8-9.1-13.1-14.7-22.9-13.7l-10.8,1.1c-2.5,0.3-4.5,2.2-4.8,4.7l-2.5,18.8c-0.2,1.8-1.3,3.4-3,4.2l-6.9,3.5
	c-11,5.5-18.6,16.1-20.3,28.3l-8,57.5c-1.6,11.3,6,21.8,17.2,23.8l13.8,2.5c2.1,0.4,3.8,2,4.3,4l1.8,7.4c0.4,1.7,0,3.6-1.2,4.9
	l-6,6.9c-5.1,5.8-7.7,13.4-7.3,21.1l0.5,10.3c0.5,11.8,9.9,21.2,21.7,21.9l10.8,0.7c2.2,0.1,4.1,1.5,4.8,3.6l1.1,3.1
	c1,2.8-0.5,6-3.3,7c-0.3,0.1-0.5,0.2-0.8,0.2l-12.7,2.5c-2.2,0.4-3.9,2.2-4.3,4.4l-4.7,23.4c-0.5,2.9,1.3,5.6,4.1,6.3l3.6,0.8
	c0.4,0.1,0.8,0.1,1.2,0.1c2.8,0,5.1-2.1,5.4-4.9c0.3-2.9,1.1,5.7,4,5.9l16,0.7c3,0.1,5.4,2.6,5.2,5.7c0,0.1,0,0.3,0,0.4l-3,24.6
	c-0.1,0.9-0.2,1.8-0.2,2.7c0,12.2,10,22.1,22.2,22.1c3,0,5.5-2.4,5.5-5.5c0,0,0,0,0,0v-5.1c0-3,2.3-5.4,5.3-5.5l28.1-0.8
	c2.3-0.1,4.5,1.3,5.3,3.5l10.5,28.1c5.1,13.6,17.9,22.8,32.4,23.3l60.6,2.1c8.6,0.3,16.9-3.4,22.4-10.1l3.9-4.7c1.8-2.2,5-2.6,7.4-1
	l6.3,4.5c8.5,6.1,19,8.8,29.4,7.7l45.7-5c6-0.7,10.6-5.6,11-11.6l0.2-4c0.2-2.7,2.4-4.9,5.1-5.1l4.5-0.3c12.9-0.9,23.2-11.1,24.4-24
	l5.2-58.4C528.3,961.6,521.9,949.5,510.8,943.5z M294.3,1031.8c-1.6-0.5-3-1.5-4-2.9l-24.2-34c-1.9-2.7-5.3-3.9-8.5-3L236,998
	c-3.1,0.9-6.4-0.2-8.3-2.8l-22.9-29.7c-1-1.3-1.6-2.9-1.6-4.5l-0.7-23.5c-0.1-2.4-1.3-4.6-3.2-6.1l-22.5-16.2
	c-1.6-1.2-2.7-2.9-3.1-4.8l-4.5-22c-0.6-3,0.6-6.1,3-7.9l2.1-1.6c0,0.6,0,1.3,0.2,1.9l4.4,21.2c0.4,1.9,1.5,3.5,3,4.6l21.7,15.6
	c1.9,1.4,3.1,3.5,3.1,5.9l0.7,22.6c0.1,1.6,0.6,3.1,1.6,4.4l7.9,10.3l14.1,18.4c1.9,2.4,5,3.5,8,2.7l20.9-5.9
	c3.1-0.9,6.4,0.3,8.2,2.9l23.3,32.8c0.9,1.3,2.3,2.3,3.8,2.8l34.3,10.9c-1.2,3.1-1.9,6.4-1.9,9.7v2.6L294.3,1031.8z"/>
<path class="st9" d="M206,438.3c-1.6-0.5-3-1.5-4-2.9l-24.2-34c-1.9-2.7-5.3-3.9-8.5-3l-21.7,6.1c-3.1,0.9-6.4-0.2-8.3-2.8
	L116.6,372c-1-1.3-1.6-2.9-1.6-4.5l-0.7-23.5c-0.1-2.4-1.3-4.6-3.2-6.1l-22.5-16.2c-1.6-1.2-2.7-2.9-3.1-4.8l-4.5-22
	c-0.6-3,0.6-6.1,3-7.9l2.1-1.6c0,0.6,0,1.3,0.2,1.9l4.4,21.2c0.4,1.9,1.5,3.5,3,4.6l21.7,15.6c1.9,1.4,3.1,3.5,3.1,5.9l0.7,22.6
	c0.1,1.6,0.6,3.1,1.6,4.4l7.9,10.3l14.1,18.4c1.9,2.4,5,3.5,8,2.7l20.9-5.9c3.1-0.9,6.4,0.3,8.2,2.9l23.3,32.8
	c0.9,1.3,2.3,2.3,3.8,2.8l34.3,10.9c-1.2,3.1-1.9,6.4-1.9,9.7v2.6L206,438.3z"/>
<path class="st10" d="M305.7,357l0.9-15.9c0.4-6.3-4.3-11.7-10.5-12.4l-16.5-2c-0.5-0.1-1-0.1-1.5-0.1c-3.4,0-16.5,0.6-17.3,1.1
	c-4.5,3-2.4,9-4.7,17c-1.8,6.3,1.8,12.9,8.1,14.7c1,0.3,1.9,0.4,2.9,0.5l3.5,0.1c1.5,0.1,3,0.4,4.4,1l14,6.2c6,2.7,13-0.1,15.7-6.1
	c0.4-0.8,0.6-1.7,0.8-2.5l0,0C305.6,358.1,305.7,357.5,305.7,357z"/>
<g class="st11">
	<path class="st7" d="M268.5,253.6c-0.1-1.9,1.4-3.5,3.3-3.6c1.9-0.1,3.5,1.4,3.6,3.3v0.3H268.5z"/>
	<path class="st7" d="M267.5,244.2c0-1.9,1.5-3.4,3.5-3.4c1.9,0,3.4,1.5,3.4,3.4H267.5z"/>
	<path class="st7" d="M258.5,247.3c-0.1-1.9,1.4-3.5,3.3-3.6c1.9-0.1,3.5,1.4,3.6,3.3v0.3H258.5z"/>
</g>
<g class="st11">
	<path class="st7" d="M186.8,242.5c-0.1-1.9,1.4-3.5,3.3-3.6c1.9-0.1,3.5,1.4,3.6,3.3v0.3H186.8z"/>
	<path class="st7" d="M185.8,233.1c0-1.9,1.5-3.4,3.5-3.4c1.9,0,3.4,1.5,3.4,3.4H185.8z"/>
	<path class="st7" d="M176.8,236.2c-0.1-1.9,1.4-3.5,3.3-3.6c1.9-0.1,3.5,1.4,3.6,3.3v0.3H176.8z"/>
</g>
<path class="st7" d="M140.1,223.2c-0.1-1.9,1.4-3.5,3.3-3.6c1.9-0.1,3.5,1.4,3.6,3.3v0.3H140.1z"/>
<path class="st7" d="M139.1,213.8c0-1.9,1.5-3.4,3.5-3.4c1.9,0,3.4,1.5,3.4,3.4H139.1z"/>
<path class="st7" d="M130.1,216.9c-0.1-1.9,1.4-3.5,3.3-3.6c1.9-0.1,3.5,1.4,3.6,3.3v0.3H130.1z"/>
<path class="st1" d="M85.9,201.7c-0.1-1.9,1.4-3.5,3.3-3.6c1.9-0.1,3.5,1.4,3.6,3.3l0,0v0.3H85.9z"/>
<path class="st1" d="M84.9,192.3c0-1.9,1.5-3.4,3.5-3.4c1.9,0,3.4,1.5,3.4,3.4H84.9z"/>
<path class="st1" d="M75.9,195.5c-0.1-1.9,1.4-3.5,3.3-3.6c1.9-0.1,3.5,1.4,3.6,3.3v0.3H75.9z"/>
<path class="st7" d="M113,302.2c-0.1-1.9,1.4-3.5,3.3-3.6c1.9-0.1,3.5,1.4,3.6,3.3v0.3H113z"/>
<path class="st7" d="M112,292.8c0-1.9,1.5-3.5,3.4-3.5c1.9,0,3.5,1.5,3.5,3.5H112z"/>
<path class="st7" d="M103,296c-0.1-1.9,1.4-3.5,3.3-3.6c1.9-0.1,3.5,1.4,3.6,3.3v0.3H103z"/>
<line class="st12" x1="86.8" y1="285" x2="86.1" y2="285.5"/>
<path class="st13" d="M209.3,184.5c0,0-0.6-7.4,5.3-9.3s9.1,1.3,9.1,1.3s0.7,8.1-5.4,9.1S209.3,184.5,209.3,184.5z"/>
<circle class="st14" cx="218.9" cy="177.7" r="0.7"/>
<path class="st13" d="M215.7,174.1c0,0-2-4.6-4.1-3.5S215.7,174.1,215.7,174.1z"/>
<path class="st13" d="M220.4,183.8c0,0-2.5,3.6-0.7,4.7S220.4,183.8,220.4,183.8z"/>
<path class="st13" d="M208.9,183.2c0,0-7.1-3.7-8.7-0.2S208.9,183.2,208.9,183.2z"/>
<path class="st13" d="M208.7,183.7c0,0-7.7,2.1-6.6,5.7S208.7,183.7,208.7,183.7z"/>
<path class="st13" d="M209.9,183.7c0,0-5.6,5.6-2.9,8.2S209.9,183.7,209.9,183.7z"/>
<path class="st15" d="M222.6,404.1h54.9c3.5,0,6.3,2.7,6.3,6.2c0,0,0,0,0,0v0.6"/>
<path class="st3" d="M315.4,413.4c0,0,0.4-11.3,6.8-11.3s7.9,10.9,7.9,10.9L315.4,413.4z"/>
<path class="st2" d="M325.2,413.1c0,0-1.5-21.9,6.8-22.3c9.8-0.4,7.9,21.9,7.9,21.9L325.2,413.1z"/>
<path class="st3" d="M302.7,399.9c0,0-2.1-22,9.3-22.5c13.4-0.6,10.8,22,10.8,22L302.7,399.9z"/>
<path class="st2" d="M260.4,395.3c0,0-2.1-22,9.3-22.5c13.4-0.6,10.8,22,10.8,22L260.4,395.3z"/>
<path class="st16" d="M331.8,375.1c-0.1-1.9,1.4-3.5,3.3-3.6c1.9-0.1,3.5,1.4,3.6,3.3v0.3H331.8z"/>
<path class="st16" d="M330.8,365.7c0-1.9,1.5-3.4,3.5-3.4c1.9,0,3.4,1.5,3.4,3.4H330.8z"/>
<path class="st16" d="M321.8,368.8c-0.1-1.9,1.4-3.5,3.3-3.6c1.9-0.1,3.5,1.4,3.6,3.3v0.3H321.8z"/>
<path class="st17" d="M260.3,400.4h56.5c0,0-7.2-10.8-28.2-10.2C264.4,391,260.3,400.4,260.3,400.4z"/>
<path class="st3" d="M210.8,417.9h20.3c0,0-2.3-10.2-9.4-10.9S210.8,417.9,210.8,417.9z"/>
<path class="st2" d="M226.2,418.1h11.2c0,0-1.2-5.6-5.2-6S226.2,418.1,226.2,418.1z"/>
<path class="st3" d="M246,415.7h16.8c0,0-1.9-8.4-7.8-9S246,415.7,246,415.7z"/>
<path class="st18" d="M189.2,190.4c0-3,2.4-5.4,5.4-5.4c3,0,5.4,2.4,5.4,5.4"/>
<path class="st18" d="M196.6,198.6c0.2-3,2.7-5.2,5.7-5c2.7,0.2,4.9,2.3,5,5"/>
<path class="st18" d="M180.7,198c0.2-3,2.7-5.2,5.7-5c2.7,0.2,4.9,2.3,5,5"/>
<path class="st19" d="M372.6,401.1c-0.2-2.5,0.1-5,0.8-7.4c1.9-6.8,5.8-7.6,5.8-7.6"/>
<path class="st19" d="M370.7,401.1c-0.3-3.8-0.1-7.7,0.6-11.5c1-5.1,3.9-6.4,3.9-6.4"/>
<line class="st19" x1="369.2" y1="401.1" x2="369.1" y2="382.3"/>
<path class="st19" d="M363.6,383.6c0,0,2.5,1.9,3.6,10.4c0.4,3.4,0.6,5.7,0.7,7.1"/>
<path class="st19" d="M359.1,386.1c0,0,4.2,1.3,6,7.6c0.7,2.4,1,4.9,0.8,7.4"/>
<path class="st20" d="M372.6,401.1c-0.2-2.5,0.1-5,0.8-7.4c1.9-6.8,5.8-7.6,5.8-7.6"/>
<path class="st20" d="M370.7,401.1c-0.3-3.8-0.1-7.7,0.6-11.5c1-5.1,3.9-6.4,3.9-6.4"/>
<line class="st20" x1="369.2" y1="401.1" x2="369.1" y2="382.3"/>
<path class="st20" d="M363.6,383.6c0,0,2.5,1.9,3.6,10.4c0.4,3.4,0.6,5.7,0.7,7.1"/>
<path class="st20" d="M359.1,386.1c0,0,4.2,1.3,6,7.6c0.7,2.4,1,4.9,0.8,7.4"/>
<line class="st21" x1="376.6" y1="401.1" x2="362.4" y2="401.1"/>
<line class="st22" x1="376.1" y1="401.1" x2="372.3" y2="401.1"/>
<path class="st22" d="M329,338h0.3c1.1,0,2.1,0.9,2.1,2c0,0,0,0.1,0,0.1l0,0"/>
<line class="st23" x1="155.8" y1="160.9" x2="155.4" y2="174.1"/>
<line class="st23" x1="155.1" y1="179.6" x2="155.1" y2="181.5"/>
<path class="st24" d="M75,263.2h-3.7c-3.6,0-6.6-2.9-6.6-6.6c0,0,0,0,0,0v-0.7c0-4.6,3.8-8.4,8.4-8.4h4c5.1,0,9.9-2,13.5-5.6
	l1.7-1.7c0.9-0.9,2.1-1.4,3.4-1.4h10c2.7,0,4.8,2.1,4.8,4.8l0,0v6.3c0,3.1-2.6,5.7-5.7,5.7l0,0c-1.2,0-2.2,1-2.2,2.2l0,0
	c0,2.5-2,4.5-4.5,4.6C90.4,262.7,75.5,263.2,75,263.2z"/>
<path class="st7" d="M75,260.6h-3.7c-3.6,0-6.6-2.9-6.6-6.6c0,0,0,0,0,0v-0.7c0-4.6,3.8-8.4,8.4-8.4h4c5.1,0,9.9-2,13.5-5.6l1.7-1.7
	c0.9-0.9,2.1-1.4,3.4-1.4h10c2.7,0,4.8,2.1,4.8,4.8l0,0v6.3c0,3.1-2.6,5.7-5.7,5.7l0,0c-1.2,0-2.2,1-2.2,2.2l0,0
	c0,2.5-2,4.5-4.5,4.6C90.4,260.1,75.5,260.6,75,260.6z"/>
<path class="st24" d="M388.5,367.5h4.9c4.9,0,8.9-4,8.9-8.9v-1c0-6.2-5-11.3-11.3-11.3c0,0,0,0,0,0h-5.4c-6.8,0-13.4-2.7-18.2-7.5
	l-2.2-2.2c-1.2-1.2-2.9-1.9-4.6-1.9h-13.5c-3.6,0-6.5,2.9-6.5,6.5c0,0,0,0,0,0v8.5c0,4.3,3.4,7.7,7.7,7.7h0l0,0
	c1.6,0,2.9,1.3,2.9,2.9l0,0c0,3.3,2.7,6.1,6,6.2C367.7,366.9,387.9,367.5,388.5,367.5z"/>
<path class="st7" d="M388.5,364h4.9c4.9,0,8.9-4,8.9-8.9v-1c0-6.2-5-11.3-11.3-11.3c0,0,0,0,0,0h-5.4c-6.8,0-13.4-2.7-18.2-7.5
	l-2.2-2.2c-1.2-1.2-2.9-1.9-4.6-1.9h-13.5c-3.6,0-6.5,2.9-6.5,6.5c0,0,0,0,0,0v8.5c0,4.3,3.4,7.7,7.7,7.7h0l0,0
	c1.6,0,2.9,1.3,2.9,2.9l0,0c0,3.3,2.7,6.1,6,6.2C367.7,363.3,387.9,364,388.5,364z"/>
<path class="st7" d="M266.1,185.2v1.8c0,1.8-1.3,3.3-3.1,3.4c-1.9,0.2-4.1,0.3-5.1,0.3l-3.6-0.2h-24.7c-1.9,0-3.4-1.5-3.4-3.3
	c0,0,0,0,0-0.1c0-1.9,1.5-3.4,3.4-3.4h3.8c1.9,0,3.4-1.5,3.4-3.3c0,0,0,0,0-0.1c0-1.7,1.2-3.1,2.9-3.4h10.8c0.9,0,1.8,0.4,2.4,1
	l2.9,2.9c0.6,0.6,1.5,1,2.4,1h4.6c0.8,0,1.6,0.3,2.2,0.8C265.7,183.3,266.1,184.2,266.1,185.2z"/>
<path class="st7" d="M146.1,351.4v1.9c0,1.9-1.4,3.4-3.3,3.6c-2,0.2-4.4,0.3-5.4,0.3l-3.8-0.2h-26.2c-2,0-3.6-1.6-3.6-3.6
	c0,0,0,0,0,0c0-1,0.4-1.9,1.1-2.5c0.7-0.6,1.6-1,2.5-1.1h4c2,0,3.6-1.6,3.6-3.6c0,0,0,0,0,0c0-1,0.4-1.9,1.1-2.5
	c0.6-0.5,1.2-0.9,2-1h11.4c1,0,1.9,0.4,2.5,1.1l3.1,3.1c0.7,0.7,1.6,1.1,2.5,1.1h4.9c0.8,0,1.7,0.3,2.3,0.8
	C145.7,349.4,146.1,350.4,146.1,351.4z"/>
<path class="st7" d="M343.5,193.6L343.5,193.6c0,4.5-3.6,8.1-8,8.1c0,0,0,0-0.1,0l-25.3,0.1c-3.5,0-6.4-2.8-6.4-6.4c0,0,0,0,0,0l0,0
	c0-3.5,2.9-6.4,6.4-6.4l8.2,0.8c2.8,0.3,5.6-0.4,8-1.9l1.6-1.1c1.3-0.8,2.8-1.3,4.3-1.3h3.2C339.9,185.5,343.5,189.1,343.5,193.6
	C343.5,193.6,343.5,193.6,343.5,193.6z"/>
<path class="st2" d="M204.5,311.5l-6,0.2c-0.9,0-1.8-0.3-2.4-1l-4-4.5c-0.6-0.6-1.4-1-2.2-1l-4.8-0.2c-0.9,0-1.7,0.3-2.3,0.9
	l-6.8,6.8c-0.9,0.9-1.1,2.2-0.7,3.3l0.7,1.8c0.6,1.6,2.4,2.4,4,1.8c0.2-0.1,0.3-0.1,0.5-0.2l0,0c1.3-0.8,3-0.5,4,0.7l1.7,2.1
	c0.6,0.7,1.4,1.1,2.3,1.2l7.8,0.4c1.4,0.1,2.6-0.7,3.1-2l0,0c0.4-1.3,1.7-2.1,3-2l2.4,0.1c1.7,0.1,3.1-1.1,3.2-2.8
	c0-0.2,0-0.4,0-0.6l-0.2-2C207.7,312.8,206.2,311.4,204.5,311.5z"/>
<path class="st3" d="M195.4,314.7h-1.3c-0.6,0-1.1-0.4-1.4-0.9l-0.8-1.9c-0.2-0.5-0.7-0.9-1.3-0.9l-4.7-0.3c-0.6,0-1.2,0.3-1.5,0.9
	l-0.4,0.9c-0.3,0.7,0,1.6,0.7,2l5.3,2.7c0.1,0,0.1,0.1,0.2,0.1l4.6,1.5c0.7,0.2,1.4,0,1.8-0.6l0,0c0.1-0.2,0.2-0.4,0.2-0.6l0.2-1.2
	c0.1-0.9-0.6-1.6-1.5-1.7C195.5,314.7,195.4,314.7,195.4,314.7z"/>
<path class="st16" d="M119.9,290c0.1-2.4,2.2-4.3,4.6-4.2c2.3,0.1,4.1,1.9,4.2,4.2H119.9z"/>
<path class="st25" d="M135.1,260.9c0,0-4.1,2.3-6,5.6"/>
<ellipse class="st25" cx="128.3" cy="270.1" rx="0.2" ry="0.6"/>
<polygon class="st7" points="168.2,236.3 161.1,236.3 161.9,199.7 167.6,199.7 "/>
<path class="st7" d="M159.1,189.8h-2.9c-0.4,0-0.8,0.3-0.8,0.8c0,0.2,0.1,0.3,0.1,0.4l5.9,8.1c0.3,0.3,0.7,0.5,1.1,0.6h4.4
	c0.4,0,0.9-0.2,1.1-0.6l4.9-7.2c0.4-0.6,0.3-1.4-0.3-1.9c-0.2-0.2-0.5-0.2-0.8-0.2h-15.1"/>
<path class="st7" d="M158.1,190.5h12.4c0.7,0,1.3-0.6,1.3-1.3l0,0c0-0.7-0.6-1.3-1.3-1.3h-12.4c-0.7,0-1.3,0.6-1.3,1.3l0,0
	C156.8,189.9,157.4,190.5,158.1,190.5z"/>
<path class="st7" d="M160.2,188.4h8.3c0.7,0,1.3-0.6,1.3-1.3l0,0c0-0.7-0.6-1.3-1.3-1.3h-8.3c-0.7,0-1.3,0.6-1.3,1.3l0,0
	C158.9,187.8,159.5,188.4,160.2,188.4z"/>
<line class="st22" x1="164.9" y1="171" x2="164.9" y2="182.4"/>
<path class="st16" d="M157.5,236.6c0.5-4.4,4.5-7.6,8.8-7.1c3.7,0.4,6.6,3.3,7.1,7.1H157.5z"/>
<path class="st3" d="M169.4,236.6c0.2-3.2,2.9-5.6,6.1-5.4c2.9,0.2,5.2,2.5,5.4,5.4H169.4z"/>
<path class="st24" d="M161,200.6h7.2c0.6,0,1-0.4,1-1l0,0c0-0.6-0.4-1-1-1H161c-0.6,0-1,0.4-1,1l0,0c0,0.5,0.4,1,0.9,1
	C160.9,200.6,161,200.6,161,200.6z"/>
<path class="st24" d="M168.6,185.8c0-2.2-1.8-4-4-4s-4,1.8-4,4"/>
<line class="st26" x1="156.8" y1="189.8" x2="168" y2="189.8"/>
<line class="st26" x1="169.5" y1="187.8" x2="165.8" y2="187.8"/>
<path class="st27" d="M237.8,261.7c0,0-2.3-7.4-0.9-10"/>
<path class="st27" d="M234.1,252.8c0,0,0.7,0.5,1.7,4.2c1,3.7,1.2,5.2,1.2,5.2"/>
<path class="st7" d="M247.9,269.9c-0.2,3.8-4.6,5.6-4.6,5.6c-0.7,1-1.9,1.6-3.1,1.5c-1.3-0.1-2.6-0.3-3.9-0.7c0,0-5.9,1.3-6.1-3.1
	s4-8,5.2-10c0.5-0.4,0.8-1,0.9-1.7c0-0.7,0.7,0.5,0.8,0.7l0,0l-0.1-1.5l0,0l0.8,1l0,0l0.2-2l0,0c0,0.1,0.1,0.2,0.2,0.3
	c0.3,0.5,0.8,0.9,1.3,1.2C242.1,262.6,248.1,266.8,247.9,269.9z"/>
<path class="st28" d="M237.6,264.9c-1.1,2.1-1.8,4.3-2,6.6c-0.3,3.7,0.6,4.8,0.6,4.8"/>
<path class="st28" d="M240.7,265.9c1.2,1.7,2,3.7,2.4,5.7c0.3,2.6,0.1,2.9,0.1,2.9"/>
<path class="st16" d="M220.6,277.8c0.2-4.6,4.1-8.2,8.8-8c0,0,0,0,0,0c4.4,0.2,7.8,3.6,8,8H220.6z"/>
<path class="st3" d="M235.1,277.8c0-2.2,1.8-4.1,4.1-4.1s4.1,1.8,4.1,4.1l0,0H235.1z"/>
<path class="st27" d="M233,256c0,0,2.9,2,3.6,3.9"/>
<path class="st29" d="M259.7,408.2h56.5c0,0-7.2-10.8-28.2-10.2C263.9,398.7,259.7,408.2,259.7,408.2z"/>
<path class="st25" d="M275.5,402.8c0,0-2.7,0.2-3.9,1.3"/>
<g id="road">
	<circle class="st7" cx="279.7" cy="347.6" r="11.3"/>
	<path class="st30" d="M348.2,344.6l-81.6,3.7c-5.7,0.3-12.4,0.2-17.4-2.6l-14.3-6.8l0,0"/>
	<path class="st15" d="M55.7,217.2l5.2-0.2l31.4-1c11.4-0.3,22.4,4.5,29.9,13.2l27.5,32.1c4.9,5.7,11.8,9.2,19.3,9.8l9.4,0.7
		c9.5,0.7,18.3-5.1,21.5-14.1l4.5-13.1c2.7-7.8,9.6-13.3,17.8-14.1l23.2-2.3c5.8-0.6,10.7-4.6,12.4-10.2l0.5-1.6
		c1.8-6,7.2-10.1,13.4-10.3l17-0.5c6.3-0.2,11.8,4.2,13.1,10.4l1.8,9.1c1.3,6.5-2.4,12.9-8.7,14.9l-5.2,1.7c-2,0.6-3.7,1.8-5,3.4
		c-1.3,1.6-2.1,3.5-2.4,5.5c-0.8,5.2,2.4,10.3,7.4,11.9l1.2,0.4c4.5,1.4,7.4,5.7,7.1,10.4l-0.1,1.8c-0.1,2.2-1,4.4-2.5,6
		c-1.5,1.7-3.4,2.8-5.6,3.3c-3.1,0.7-5.1,3.6-4.6,6.7l1,7.1c1.1,7.5-4.2,14.4-11.7,15.5c-0.3,0-0.6,0.1-0.8,0.1l-10.9,0.8
		c-7.9,0.6-15.7-1.9-21.7-7l-2.6-2.2c-8.3-7-18.8-10.9-29.6-11.1c-15.4-0.3-38.3-0.7-54.1-1h-0.4c-10.7-0.2-19.5,8.4-19.7,19.1
		c-0.2,10.7,8.4,19.5,19.1,19.6l68.8,2.2c4.5,0.1,8.9,1.9,12.2,4.9l0,0l0.6,0.6c7.6,7.4,7.8,19.6,0.4,27.2c-1.8,1.8-3.9,3.3-6.2,4.3
		l-10,1.8c-7.5,1.4-13,7.9-13,15.5v0.9c0.5,8.3,7.4,14.8,15.7,14.8h54.9c3.5,0,6.3,2.7,6.3,6.2c0,0,0,0,0,0v0.6
		c-0.3,2.6-2.2,4.8-4.8,5.5l-31.6,16.7"/>
	<path class="st30" d="M240.3,351h-61.7c-6.7,0-12.1,5.4-12.1,12.1c0,0,0,0,0,0l0,0c0,6.7,5.4,12.1,12.1,12.1c0,0,0,0,0,0h35"/>
	<circle class="st7" cx="135.5" cy="312.3" r="11.3"/>
	<circle class="st31" cx="135.5" cy="312.3" r="6.8"/>
	<circle class="st7" cx="209.6" cy="393.6" r="11.3"/>
	<circle class="st31" cx="209.6" cy="393.6" r="6.8"/>
	<circle class="st7" cx="243.2" cy="438.4" r="11.3"/>
	<circle class="st31" cx="243.2" cy="438.4" r="6.8"/>
	<circle class="st7" cx="271.1" cy="206" r="11.3"/>
	<circle class="st31" cx="271.1" cy="206" r="6.8"/>
	<circle class="st7" cx="126.8" cy="232.4" r="11.3"/>
	<circle class="st31" cx="126.8" cy="232.4" r="6.8"/>
	<circle class="st7" cx="92.8" cy="216" r="11.3"/>
	<circle class="st31" cx="92.8" cy="216" r="6.8"/>
	<circle class="st7" cx="202.1" cy="252.8" r="11.3"/>
	<circle class="st31" cx="202.1" cy="252.8" r="6.8"/>
	<circle class="st7" cx="292.5" cy="264.1" r="11.3"/>
	<circle class="st31" cx="292.5" cy="264.1" r="6.8"/>
	<circle class="st7" cx="225.5" cy="297.6" r="11.3"/>
	<circle class="st31" cx="225.5" cy="297.6" r="6.8"/>
	<circle class="st7" cx="236.4" cy="229.1" r="11.3"/>
	<circle class="st31" cx="236.4" cy="229.1" r="6.8"/>
	<circle class="st7" cx="252.5" cy="312.1" r="11.3"/>
	<circle class="st31" cx="252.5" cy="312.1" r="6.8"/>
	<circle class="st7" cx="170.3" cy="370.2" r="11.3"/>
	<circle class="st31" cx="170.3" cy="370.2" r="6.8"/>
	<circle class="st7" cx="180.5" cy="333" r="11.3"/>
	<circle class="st31" cx="180.5" cy="333" r="6.8"/>
	<circle class="st7" cx="233" cy="334.7" r="11.3"/>
	<circle class="st31" cx="233" cy="334.7" r="6.8"/>
	<circle class="st7" cx="259.5" cy="396.2" r="11.3"/>
	<circle class="st31" cx="259.5" cy="396.2" r="6.8"/>
</g>
<path class="st32" d="M290.2,238v-6.4c0-2.6,1.9-4.7,4.1-4.7c0.4,0,0.7,0.1,1.1,0.2c-1.8,0.7-2.9,2.5-2.9,4.4v6.1"/>
<rect x="289.5" y="215.7" class="st17" width="20.5" height="6.1"/>
<path class="st29" d="M310.2,216.2h-20.9c0,0-3.9-6-2.9-11.7c1.5-8.5,11.8-12.6,13.4-13.2c1.5,0.6,3,1.3,4.4,2.1
	c3.6,2.1,8.1,5.7,9,11.1C314.1,210.2,310.2,216.2,310.2,216.2z"/>
<path class="st17" d="M316.1,221.3v17.1h-13.2v-4.6c0-3.7-2.9-6.8-6.6-7c-3.7-0.1-6.8,2.9-6.9,6.6c0,0.1,0,0.1,0,0.2v4
	c-2.8,1.3-6,3-7.7,4.8l-0.5,0.5l-0.1-21.6H316.1z"/>
<rect x="315.8" y="221.3" class="st32" width="11.2" height="17.2"/>
<path class="st25" d="M295.7,198.7c0,0-2.8,2.1-3.6,4"/>
<path class="st25" d="M291.2,205.1"/>
<line class="st22" x1="311.8" y1="221" x2="295.6" y2="221"/>
<line class="st22" x1="294" y1="220.9" x2="293" y2="220.9"/>
<path class="st33" d="M294.3,218l4.5-0.3C297.3,218.1,295.8,218.2,294.3,218z"/>
<path class="st33" d="M310,216.2h-7.7c2.1-1.5,4-4.1,4.5-8.6c0.6-5.4-1.4-11-2.9-14.2c3.6,2.1,8.1,5.7,9,11.1
	C313.9,210.2,310,216.2,310,216.2z"/>
<path class="st32" d="M273,310.3v-3.7c0.2-1.6,2.3-2.8,4.9-2.7c0.2,0,0.5,0,0.7,0.1c-1.8,0.3-3.1,1.4-3,2.6v3.5"/>
<polygon class="st32" points="271.2,265.2 271.2,287.8 266.4,287.8 266.4,295.7 262.2,295.7 262.2,265.2 "/>
<line class="st34" x1="264.7" y1="268.2" x2="264.7" y2="272.1"/>
<line class="st34" x1="266.7" y1="268.2" x2="266.7" y2="272.1"/>
<line class="st34" x1="268.7" y1="268.2" x2="268.7" y2="272.1"/>
<path class="st35" d="M295.8,283.3c-2.2,0.7-4,2.3-4.9,4.5h-15.7c0.5-6.1,5.7-10.6,11.8-10.2C290.7,277.9,294,280,295.8,283.3
	L295.8,283.3z"/>
<path class="st36" d="M304.9,287.8h-14c0.8-2.2,2.6-3.9,4.9-4.5c0.7-0.2,1.4-0.3,2.1-0.3C301,283,303.8,284.9,304.9,287.8z"/>
<rect x="291" y="287.8" class="st17" width="16.5" height="30.2"/>
<path class="st17" d="M266.4,295.7v14.8c-0.8,0-1.6,0.1-2.5,0.1h-4.2v-14.8L266.4,295.7L266.4,295.7z"/>
<path class="st29" d="M291,287.8V318h-8.5v-9.6c0-2.8-2.3-5.1-5.1-5.1s-5.1,2.3-5.1,5.1v1.3c-1.6,0.3-3.6,0.5-5.9,0.7v-22.7
	L291,287.8L291,287.8z"/>
<path class="st16" d="M287.1,318.8c0-1.9,1.5-3.4,3.5-3.4c1.9,0,3.4,1.5,3.4,3.4H287.1z"/>
<path class="st22" d="M283.4,280.7c-1.2,0.1-2.4,0.8-3.1,1.8"/>
<line class="st22" x1="291" y1="294.6" x2="286.8" y2="294.6"/>
<line class="st22" x1="291.9" y1="303" x2="293.7" y2="303"/>
<line class="st22" x1="268.8" y1="299.4" x2="272" y2="299.4"/>
<path class="st3" d="M309.2,311c-2.5,0-4.8,1.2-6.2,3.2c-0.6-0.3-1.3-0.4-2-0.4c-2.7,0-4.8,2.1-4.8,4.8h20.6
	C316.8,314.4,313.4,311,309.2,311L309.2,311z"/>
<g id="dokme">
	<circle class="st37" cx="53" cy="217.8" r="11.3"/>
	<circle class="st38" cx="53.6" cy="214.9" r="11.3"/>
	<circle class="st39" cx="53.6" cy="214.9" r="11.3"/>
	<path class="st23" d="M52.3,209.3c3.4-1,6.9,1,7.9,4.4c0,0,0,0,0,0"/>
	<line class="st23" x1="48.2" y1="210.6" x2="47.9" y2="211.1"/>
</g>
<path class="st32" d="M206.3,290.7c0-1.9-1-1.5-2.6-2c0.3-0.1,0.7-0.2,1-0.2c2.1,0,4-0.2,4,2.1"/>
<path class="st32" d="M150.4,290.3c0-3.7,2.7-4.7,6.1-4.7c0.5,0,1.1,0.1,1.6,0.2c-2.5,0.8-4.1,1.1-4.1,4.1"/>
<path class="st32" d="M161.1,260.1l-15.6-0.4l-4.9-7.5c3.1-5.4,8.7-17.3,19.4-9.8c3.8,2.6,4.8,7.4,5.4,12.1L161.1,260.1z"/>
<path class="st40" d="M213,290.5l-3.9-0.3c-0.9-1.6-2.6-2.5-4.4-2.5c-2.8,0-5.1,2.3-5.1,5.1v9.1l-36-0.8c0,0,3-15.2-6-16.2
	c-6.8-0.8-8,4.9-8,4.9l-24.4-0.7l-0.8-3c0,0-5.6-21.8,3-26.7s8.7-3.4,11.3-5.3c0.7-0.6,1.3-1.4,1.6-2.3c1.2-0.1,2.4,0.1,3.5,0.4
	c1.9,0.8-0.4,4,4,5.5c3.4,1.1,2.6-5.1,7-5.6c4.7-0.6,3.4,3.8,7.2,3.8c1.3,0,2.5-0.6,3.3-1.6c0.7,5.6,0.6,9.9,3.6,11.5
	c0.7,0.4,1.3,0.8,1.8,1.3c1.2,0.9,2.7,1.5,4.3,1.5c2.1,0.1,6.1-1.2,12.1-0.1s9.1,8.7,10.5,10c4.3,3.8,10.1,2,12.8,5.5
	C211.9,285.5,212.6,287.9,213,290.5z"/>
<path class="st3" d="M137.2,282.9c2.5,0,4.8,1.2,6.2,3.2c0.6-0.3,1.3-0.4,2-0.4c2.7,0,4.8,2.1,4.8,4.8h-20.6
	C129.6,286.3,133,282.9,137.2,282.9z"/>
<path class="st3" d="M191.6,294.5c2.8,0,5.3,1.3,6.9,3.6c0.7-0.3,1.4-0.5,2.2-0.5c3,0,5.4,2.4,5.4,5.4c0,0,0,0,0,0h-23
	C183.1,298.3,186.9,294.5,191.6,294.5C191.6,294.5,191.6,294.5,191.6,294.5z"/>
<path class="st41" d="M328.8,335.1h-1.1c-0.3,0-0.6,0-0.9,0.1c-1.8-3.2-5.9-4.4-9.1-2.5c-2.1,1.2-3.4,3.4-3.4,5.8v8.4
	c0,3.3,2.4,6.1,5.6,6.6l-0.1,0.1h9.1c3.4,0,6.2-2.8,6.2-6.2v-6.1C335,337.9,332.2,335.1,328.8,335.1z"/>
<polyline class="st38" points="324.5,340.9 324.5,348.8 324.5,367.7 "/>
<path class="st38" d="M329.1,345.4v1.7c0,1.2-1,2.3-2.2,2.3c0,0-0.1,0-0.1,0h-2.3"/>
<path class="st38" d="M324.5,345.4H323c-1.9,0-3.5-1.5-3.5-3.5c0,0,0,0,0,0v-5.3"/>
<path class="st41" d="M179.1,246.3h-0.8c-0.2,0-0.5,0-0.7,0.1c-1.3-2.3-4.1-3.1-6.4-1.8c-1.5,0.8-2.4,2.4-2.4,4.1v5.8
	c0,2.3,1.7,4.2,3.9,4.6h6.3c2.4,0,4.3-1.9,4.3-4.2c0,0,0,0,0-0.1v-4.2c0.1-2.3-1.8-4.2-4.1-4.3C179.2,246.3,179.1,246.3,179.1,246.3
	z"/>
<polyline class="st38" points="176.1,250.4 176.1,256 176.1,269.1 "/>
<path class="st38" d="M179.3,253.5v1.2c0,0.9-0.7,1.6-1.6,1.6c0,0,0,0,0,0h-1.6"/>
<path class="st38" d="M176.1,253.5H175c-1.3,0-2.4-1.1-2.4-2.4v-3.7"/>
<path class="st41" d="M167.4,295h-1.1c-0.3,0-0.7,0-1,0.1c-1.2-2.2-3.6-3.6-6.1-3.6c-3.9,0-7,3.1-7,7v8.8c0,3.4,2.4,6.3,5.8,6.9
	l-0.1,0.1h9.4c3.5,0,6.4-2.8,6.4-6.4c0,0,0,0,0,0v-6.3c0.2-3.4-2.4-6.4-5.8-6.6C167.7,295,167.6,295,167.4,295z"/>
<polyline class="st38" points="162.9,301.1 162.9,309.4 162.9,329.1 "/>
<path class="st38" d="M167.7,305.7v1.8c0,1.3-1.1,2.4-2.4,2.4h-2.4"/>
<path class="st38" d="M162.9,305.7h-1.6c-2,0-3.6-1.6-3.6-3.6c0,0,0,0,0,0v-5.6"/>
</svg>
