<svg width="24" height="24" viewBox="0 0 24 24" xmlns="http://www.w3.org/2000/svg">
    <defs>
        <filter id="6c53mhpo5a">
            <feColorMatrix in="SourceGraphic" values="0 0 0 0 1.000000 0 0 0 0 1.000000 0 0 0 0 1.000000 0 0 0 1.000000 0"/>
        </filter>
    </defs>
    <g transform="translate(-8 -12)" filter="url(#6c53mhpo5a)" fill="none" fill-rule="evenodd" stroke-linecap="round" stroke-linejoin="round">
        <g stroke="#200E32" stroke-width="1.5">
            <path d="m25.268 21.061-4.266 3.434a2.223 2.223 0 0 1-2.746 0l-4.302-3.434"/>
            <path d="M14.888 15.5h9.428c1.36.015 2.653.59 3.58 1.59a5.017 5.017 0 0 1 1.326 3.704v6.528a5.017 5.017 0 0 1-1.326 3.704 4.957 4.957 0 0 1-3.58 1.59h-9.428c-2.92 0-4.888-2.375-4.888-5.294v-6.528c0-2.919 1.968-5.294 4.888-5.294z"/>
        </g>
    </g>
</svg>
